<?xml version="1.0" standalone="no"?>
<!DOCTYPE svg PUBLIC "-//W3C//DTD SVG 20010904//EN"
 "http://www.w3.org/TR/2001/REC-SVG-20010904/DTD/svg10.dtd">
<svg version="1.0" xmlns="http://www.w3.org/2000/svg"
 width="796.000000pt" height="796.000000pt" viewBox="0 0 796.000000 796.000000"
 preserveAspectRatio="xMidYMid meet">
<metadata>
Created by potrace 1.14, written by Peter Selinger 2001-2017
</metadata>
<g transform="translate(0.000000,796.000000) scale(0.100000,-0.100000)"
fill="#000000" stroke="none">
<path d="M7950 7664 c-3 -7 -34 -44 -70 -84 -36 -40 -73 -82 -83 -94 -43 -49
-134 -152 -152 -172 -18 -19 -108 -121 -155 -174 -30 -34 -145 -164 -155 -174
-6 -6 -60 -67 -120 -136 -60 -69 -126 -142 -145 -164 -68 -75 -68 -75 -210
-236 -32 -37 -146 -165 -165 -186 -30 -32 -63 -70 -145 -164 -41 -47 -79 -90
-85 -96 -5 -6 -37 -41 -70 -79 -33 -38 -69 -78 -80 -91 -11 -12 -42 -47 -70
-79 -27 -31 -61 -69 -75 -84 -25 -27 -131 -147 -167 -187 -47 -54 -139 -158
-149 -168 -5 -6 -43 -49 -84 -96 -41 -47 -77 -87 -80 -90 -4 -3 -40 -43 -81
-90 -40 -47 -78 -90 -84 -96 -5 -6 -37 -42 -70 -79 -33 -38 -67 -76 -75 -85
-8 -9 -46 -52 -85 -96 -38 -43 -72 -81 -75 -84 -3 -3 -37 -41 -75 -85 -39 -44
-75 -84 -81 -90 -5 -5 -43 -47 -83 -92 l-73 -83 -928 0 -928 0 -68 77 c-38 42
-73 81 -79 87 -55 61 -178 198 -201 225 -16 19 -34 39 -39 45 -6 6 -44 49 -85
96 -41 47 -78 87 -81 90 -3 3 -43 48 -89 100 -47 52 -87 97 -90 100 -3 3 -36
41 -75 85 -87 99 -130 148 -175 196 -19 20 -54 59 -76 86 -54 62 -65 75 -149
168 -38 43 -74 83 -80 89 -5 6 -30 34 -55 61 -25 28 -74 84 -110 124 -36 41
-72 82 -80 90 -9 9 -67 75 -130 146 -63 72 -119 135 -125 141 -11 11 -110 124
-142 160 -15 18 -146 163 -178 198 -5 6 -44 49 -85 96 -41 47 -89 101 -107
120 -17 19 -40 44 -50 56 -10 12 -47 54 -83 94 -36 40 -72 81 -80 90 -8 9 -44
50 -80 90 -36 40 -73 82 -82 92 -32 37 -153 172 -168 188 -8 8 -58 64 -110
124 l-95 108 -3 -119 c-5 -228 4 -3588 10 -3610 4 -12 9 -50 13 -84 4 -35 8
-66 10 -69 1 -3 6 -27 10 -55 11 -88 83 -374 112 -445 3 -8 7 -19 8 -25 8 -32
99 -254 136 -330 126 -264 335 -575 530 -790 110 -121 290 -295 384 -370 28
-22 60 -49 73 -60 63 -54 290 -212 397 -277 116 -70 407 -221 510 -265 324
-139 773 -269 1060 -307 11 -2 38 -6 60 -9 22 -4 60 -9 85 -13 25 -3 46 -6 46
-7 1 -1 5 -27 8 -57 24 -211 166 -379 381 -451 24 -9 83 -14 150 -13 97 0 118
3 180 28 195 80 318 236 341 434 3 34 12 62 18 63 6 0 18 2 26 3 8 2 40 6 70
10 30 3 82 11 115 17 33 6 72 13 87 14 15 2 44 8 65 14 21 5 52 12 68 14 17 3
77 17 135 32 866 219 1620 684 2141 1320 293 358 510 774 624 1200 28 101 58
246 69 320 7 52 15 101 23 145 6 35 16 3369 11 3630 -2 74 -5 130 -8 124z
m-7632 -944 c93 -184 335 -663 537 -1065 202 -401 446 -884 541 -1073 96 -189
174 -345 174 -348 0 -2 -322 -4 -715 -4 l-715 0 0 1417 c0 779 2 1414 4 1412
3 -2 81 -155 174 -339z m7501 -1075 l0 -1415 -714 0 c-393 0 -715 2 -715 4 0
3 98 200 219 438 120 238 359 712 531 1053 545 1082 674 1335 677 1335 1 0 2
-637 2 -1415z m-4744 -1617 c5 -35 9 -74 10 -88 1 -14 5 -46 9 -72 3 -27 8
-68 11 -93 8 -69 16 -137 20 -170 2 -16 7 -57 10 -90 3 -33 7 -71 10 -85 4
-22 13 -100 20 -170 1 -14 5 -47 9 -75 6 -50 9 -79 21 -185 3 -30 12 -109 20
-175 15 -118 18 -144 30 -255 3 -30 8 -66 10 -80 3 -14 7 -53 10 -88 4 -35 8
-71 10 -81 2 -9 6 -50 10 -90 3 -40 8 -81 10 -91 2 -10 6 -47 10 -82 3 -35 7
-74 10 -88 2 -14 7 -50 10 -80 5 -51 8 -74 20 -170 5 -42 12 -104 20 -185 3
-33 8 -71 10 -85 12 -84 15 -110 19 -150 3 -25 12 -105 21 -178 17 -153 18
-165 8 -159 -5 3 -37 8 -73 11 -214 22 -737 155 -905 230 -16 8 -41 17 -55 21
-51 16 -320 139 -425 195 -343 184 -633 398 -895 660 -210 211 -327 357 -473
590 -87 139 -232 422 -253 495 -2 6 -25 74 -51 151 -53 155 -50 146 -68 224
-35 147 -60 292 -71 410 -2 30 -7 74 -9 98 l-4 42 1463 0 1463 0 8 -62z m4739
15 c-44 -559 -223 -1056 -546 -1516 -37 -54 -73 -104 -78 -110 -125 -155 -174
-211 -300 -337 -96 -96 -132 -130 -228 -213 -58 -50 -237 -183 -328 -244 -279
-187 -626 -356 -969 -471 -118 -40 -396 -116 -465 -127 -19 -3 -51 -10 -70
-15 -19 -5 -51 -11 -70 -14 -53 -6 -182 -26 -209 -32 -26 -5 -25 -14 -6 146
13 104 17 138 20 170 4 45 14 136 20 180 2 19 9 71 14 115 6 44 13 103 16 130
3 28 7 68 10 90 2 22 7 63 9 90 3 28 7 66 10 85 3 19 8 58 11 85 3 28 7 66 10
85 3 19 7 60 10 90 3 30 7 64 9 75 2 11 7 54 11 95 4 41 8 82 10 90 1 8 6 47
10 85 4 39 9 78 10 87 2 9 6 45 10 80 3 35 8 77 11 93 2 17 6 50 9 75 7 72 14
138 34 305 6 50 14 113 17 140 2 28 7 61 9 75 2 14 7 54 10 90 4 36 8 76 10
90 4 27 22 176 31 255 2 28 7 68 11 90 5 40 8 69 11 113 l2 22 1464 0 1464 0
-4 -47z m-3394 -1579 c0 -7 -229 -791 -295 -1009 -13 -44 -33 -111 -43 -150
-33 -117 -94 -319 -100 -329 -2 -5 -26 65 -53 155 -26 90 -75 259 -109 374
-33 116 -73 248 -87 295 -15 47 -28 90 -29 95 -1 6 -38 134 -83 286 -44 152
-81 279 -81 283 0 3 198 6 440 6 242 0 440 -3 440 -6z"/>
<path d="M2103 3308 c-26 -40 -50 -77 -53 -83 -3 -5 -63 -98 -134 -205 -70
-107 -156 -238 -191 -290 -34 -52 -61 -96 -60 -98 1 -1 35 -4 76 -7 72 -4 210
-12 354 -20 39 -2 117 -7 175 -10 58 -3 147 -8 197 -11 106 -6 103 -13 48 91
-18 33 -105 205 -194 383 -90 177 -164 322 -166 322 -2 0 -26 -33 -52 -72z"/>
<path d="M5601 2979 l-203 -400 94 5 c123 7 286 16 373 21 395 21 427 23 431
28 2 2 -12 26 -30 53 -19 27 -81 121 -139 209 -241 370 -317 485 -320 485 -1
0 -94 -180 -206 -401z"/>
</g>
</svg>
