<svg width="733" height="1504" viewBox="0 0 733 1504" fill="none" xmlns="http://www.w3.org/2000/svg">
<g clip-path="url(#clip0_805_2527)">
<rect width="733" height="1504" fill="white"/>
<path d="M1.55343e-05 869.744H733L733 1504.14H0L1.55343e-05 869.744Z" fill="#4673C9"/>
<path d="M0 0H733V1261.01C372.608 1128.43 378.717 1409.54 0 1261.01V0Z" fill="#FF9A03"/>
<g clip-path="url(#clip1_805_2527)">
<path d="M343.28 1347.05H63.9473V1512.39H343.28V1347.05Z" fill="#455A64"/>
<path d="M337.049 1342.32H56.9976C40.1374 1342.32 26.4695 1355.05 26.4695 1370.76V1371.91C26.4695 1387.62 40.1374 1400.35 56.9976 1400.35H337.049C353.909 1400.35 367.577 1387.62 367.577 1371.91V1370.76C367.577 1355.05 353.909 1342.32 337.049 1342.32Z" fill="#455A64"/>
<path d="M343.657 1399.57C343.657 1399.79 278.399 1399.97 197.93 1399.97C117.461 1399.97 52.185 1399.79 52.185 1399.57C52.185 1399.35 117.425 1399.17 197.93 1399.17C278.435 1399.17 343.657 1399.33 343.657 1399.57Z" fill="#151A1D"/>
<path d="M101.263 1513.71C101.012 1513.71 100.815 1488.5 100.815 1457.42C100.815 1426.34 101.012 1401.12 101.263 1401.12C101.515 1401.12 101.694 1426.34 101.694 1457.42C101.694 1488.5 101.497 1513.71 101.263 1513.71Z" fill="#151A1D"/>
<path d="M277.824 1376.93C277.365 1375.53 276.999 1374.11 276.729 1372.67C275.866 1369.22 274.664 1365.86 273.137 1362.63C271.596 1359.42 269.751 1356.34 267.624 1353.43C266.655 1352.27 265.761 1351.06 264.948 1349.8C266.155 1350.78 267.223 1351.91 268.127 1353.14C272.748 1358.87 275.9 1365.5 277.339 1372.53C277.702 1373.97 277.865 1375.45 277.824 1376.93Z" fill="#151A1D"/>
<path d="M292.819 1368.27C292.675 1368.27 292.064 1366.59 290.574 1364.1C286.653 1357.51 280.364 1352.43 272.814 1349.73C269.923 1348.69 268.037 1348.38 268.055 1348.22C268.514 1348.19 268.975 1348.23 269.42 1348.34C270.639 1348.53 271.84 1348.81 273.011 1349.18C280.896 1351.63 287.413 1356.91 291.131 1363.83C291.694 1364.86 292.162 1365.93 292.531 1367.03C292.697 1367.42 292.794 1367.84 292.819 1368.27Z" fill="#151A1D"/>
<path d="M126.315 1343.52C137.466 1400.87 156.843 1460.05 184.228 1512.49H196.799C201.935 1505.8 200.229 1496.63 197.014 1489.07C193.8 1481.51 189.256 1474.01 189.31 1465.83C189.31 1460.81 191.106 1455.91 191.806 1450.91C194.374 1431.59 180.134 1413.92 176.83 1394.7C175.644 1387.76 176.327 1379.73 181.984 1375.06C186.94 1370.96 194.195 1370.64 200.821 1370.79C218.133 1371.18 235.713 1373.2 252.611 1369.66C269.51 1366.11 286.121 1355.33 289.622 1339.54L126.315 1343.52Z" fill="black"/>
<path d="M290.287 1163.53L345.004 1149.76C345.004 1149.76 333.295 1117.41 324.173 1094.1C316.11 1073.49 302.624 1064.91 295.548 1060.24C292.702 1058.35 289.405 1057.13 285.941 1056.69C272.975 1055.02 237.563 1050.75 219.982 1049.38C198.235 1047.71 152.838 1058.84 152.838 1058.84C152.838 1058.84 113.026 1079.41 99.5934 1087.73C96.3135 1089.74 93.7997 1092.67 92.4103 1096.09C89.9321 1102.32 86.7716 1113.01 83.0005 1126.82C80.5762 1135.62 72.6209 1164.72 72.6209 1164.72L119.311 1163.38C128.721 1190 137.448 1213.9 137.448 1213.9L128.99 1262.85C128.99 1262.85 192.812 1286.63 209.118 1284.94C225.423 1283.25 299.319 1256.66 299.319 1256.66C299.319 1256.66 290.861 1179 290.861 1176.76C290.861 1175.89 290.61 1170.25 290.287 1163.53Z" fill="#4673C9"/>
<path d="M236.449 1111.75C234.614 1109.8 232.29 1108.3 229.683 1107.39C227.076 1106.48 224.268 1106.19 221.509 1106.53C215.999 1107.28 210.774 1109.29 206.298 1112.37C192.13 1121.32 182.091 1134.82 173.202 1148.42C157.701 1172.16 144.676 1197.22 134.306 1223.27L134.665 1229.96C146.284 1228.61 153.844 1219.47 158.89 1209.64C163.936 1199.8 166.073 1188.91 170.544 1178.82C179.176 1159.43 195.69 1144.01 216.48 1135.93C219.939 1136.34 223.454 1135.98 226.736 1134.88C230.017 1133.78 232.971 1131.97 235.354 1129.6C239.879 1124.73 240.741 1116.84 236.449 1111.75Z" fill="black"/>
<path d="M290.825 1171.98C290.556 1171.98 289.03 1157.86 287.36 1140.43C285.689 1122.99 284.576 1108.82 284.827 1108.79C285.079 1108.76 286.623 1122.89 288.293 1140.34C289.963 1157.79 291.131 1171.94 290.825 1171.98Z" fill="#151A1D"/>
<path d="M106.884 1108.79C107.183 1109.5 107.411 1110.23 107.567 1110.98C107.98 1112.65 108.483 1114.61 109.093 1117.04C110.35 1122.06 112.038 1129.22 113.816 1137.11C115.594 1145.01 117.192 1152.04 118.269 1157.19C118.772 1159.63 119.185 1161.69 119.527 1163.3C119.721 1164.04 119.829 1164.79 119.85 1165.55C119.548 1164.85 119.319 1164.11 119.167 1163.36C118.754 1161.77 118.252 1159.75 117.623 1157.32C116.366 1152.2 114.696 1145.13 112.9 1137.25C111.104 1129.37 109.542 1122.32 108.447 1117.17C107.962 1114.73 107.531 1112.69 107.208 1111.08C107.012 1110.33 106.903 1109.56 106.884 1108.79Z" fill="#151A1D"/>
<path d="M282.475 1057.3C282.744 1057.3 281.164 1063.02 280.087 1070.13C279.009 1077.24 278.776 1083.09 278.488 1083.09C278.245 1081.82 278.185 1080.53 278.309 1079.25C278.402 1076.15 278.684 1073.07 279.153 1070.01C279.627 1066.95 280.293 1063.92 281.146 1060.93C281.409 1059.67 281.857 1058.44 282.475 1057.3Z" fill="#151A1D"/>
<path d="M290.287 1163.53C289.802 1163.66 304.204 1209.77 304.204 1209.77L261.878 1206.56L241.675 1229.61L313.811 1254.37C313.811 1254.37 358.526 1235.8 358.526 1234.11C358.526 1232.42 342.364 1150.46 342.364 1150.46L290.287 1163.53Z" fill="#886962"/>
<path d="M259.148 1168.87C259.561 1168.85 259.967 1168.76 260.341 1168.6C260.714 1168.44 261.048 1168.2 261.321 1167.91C261.651 1167.57 261.903 1167.17 262.061 1166.74C262.218 1166.3 262.278 1165.84 262.237 1165.39C262.144 1164.77 261.862 1164.19 261.426 1163.72C260.99 1163.25 260.417 1162.9 259.776 1162.73C258.987 1162.46 258.134 1162.39 257.307 1162.53C256.48 1162.67 255.708 1163.02 255.072 1163.53C254.322 1164.1 253.71 1164.81 253.276 1165.62C253.048 1166.05 252.868 1166.5 252.737 1166.96C252.611 1167.43 252.45 1167.95 252.737 1168.25C252.893 1168.4 253.092 1168.51 253.312 1168.56C253.532 1168.61 253.762 1168.6 253.976 1168.53C254.48 1168.4 254.923 1168.12 255.233 1167.73C255.564 1167.3 255.782 1166.81 255.869 1166.29C255.957 1165.77 255.911 1165.23 255.736 1164.73C255.463 1164.21 255.081 1163.75 254.613 1163.37C254.145 1162.99 253.599 1162.69 253.009 1162.51C252.418 1162.33 251.794 1162.26 251.174 1162.3C250.554 1162.35 249.95 1162.51 249.397 1162.78C248.132 1163.31 247.028 1164.13 246.182 1165.15C245.751 1165.63 245.471 1166.21 245.374 1166.83C245.33 1167.09 245.396 1167.37 245.559 1167.6C245.722 1167.82 245.97 1167.98 246.254 1168.05C246.581 1168.09 246.913 1168.06 247.225 1167.96C247.537 1167.86 247.82 1167.7 248.05 1167.48C248.528 1167.03 248.82 1166.44 248.876 1165.8C248.914 1165.11 248.76 1164.42 248.43 1163.8C248.1 1163.18 247.604 1162.65 246.991 1162.26C246.323 1161.88 245.576 1161.63 244.799 1161.54C244.022 1161.45 243.232 1161.51 242.483 1161.72C241.704 1161.89 240.975 1162.22 240.353 1162.68C239.73 1163.15 239.23 1163.74 238.892 1164.42C238.716 1164.73 238.616 1165.08 238.597 1165.43C238.579 1165.79 238.642 1166.14 238.784 1166.47C238.944 1166.78 239.202 1167.04 239.523 1167.21C239.845 1167.37 240.213 1167.44 240.58 1167.41C240.973 1167.4 241.358 1167.3 241.702 1167.12C242.045 1166.94 242.337 1166.69 242.552 1166.38C242.768 1166.07 242.9 1165.72 242.938 1165.36C242.976 1164.99 242.918 1164.62 242.771 1164.28C242.477 1163.54 241.929 1162.91 241.211 1162.49C240.493 1162.07 239.646 1161.88 238.802 1161.96C236.979 1162.1 235.273 1162.85 233.989 1164.06C233.282 1164.64 232.649 1165.29 232.104 1166.01C231.84 1166.3 231.656 1166.66 231.566 1167.04C231.475 1167.41 231.481 1167.81 231.583 1168.18C231.675 1168.33 231.799 1168.46 231.946 1168.56C232.094 1168.67 232.262 1168.74 232.441 1168.78C232.62 1168.83 232.807 1168.83 232.989 1168.81C233.172 1168.78 233.347 1168.72 233.504 1168.63C233.869 1168.44 234.167 1168.16 234.362 1167.81C234.556 1167.47 234.639 1167.08 234.6 1166.69C234.539 1165.82 234.25 1164.97 233.759 1164.23C233.268 1163.48 232.588 1162.86 231.78 1162.41C230.543 1161.7 229.076 1161.42 227.641 1161.63C226.206 1161.84 224.897 1162.52 223.951 1163.55C223.648 1163.87 223.418 1164.24 223.276 1164.65C223.134 1165.05 223.082 1165.48 223.125 1165.91C223.304 1167.58 226.285 1167.93 227.255 1166.52C227.725 1165.77 227.859 1164.87 227.627 1164.02C227.396 1163.17 226.817 1162.45 226.016 1161.99C225.162 1161.55 224.209 1161.29 223.232 1161.24C222.255 1161.19 221.278 1161.35 220.377 1161.71C219.435 1162.04 218.532 1162.47 217.684 1162.98C216.848 1163.41 216.125 1164.01 215.565 1164.73C215.315 1165.06 215.166 1165.44 215.134 1165.84C215.103 1166.24 215.189 1166.64 215.385 1166.99C215.458 1167.16 215.569 1167.3 215.708 1167.42C215.848 1167.54 216.013 1167.63 216.194 1167.69C216.374 1167.74 216.565 1167.76 216.754 1167.74C216.943 1167.73 217.125 1167.67 217.288 1167.58C217.641 1167.37 217.921 1167.08 218.094 1166.73C218.267 1166.38 218.324 1165.99 218.258 1165.6C218.136 1164.76 217.756 1163.97 217.163 1163.33C216.588 1162.68 215.849 1162.17 215.013 1161.85C214.177 1161.53 213.268 1161.4 212.368 1161.49C211.484 1161.57 210.634 1161.85 209.895 1162.31C209.156 1162.76 208.549 1163.39 208.13 1164.12C207.937 1164.45 207.824 1164.81 207.799 1165.19C207.774 1165.56 207.838 1165.94 207.986 1166.29C208.148 1166.59 208.412 1166.83 208.736 1166.98C209.06 1167.13 209.428 1167.17 209.782 1167.11C210.167 1167.07 210.533 1166.93 210.847 1166.72C211.161 1166.51 211.413 1166.23 211.578 1165.91C211.738 1165.56 211.82 1165.2 211.82 1164.83C211.82 1164.45 211.738 1164.09 211.578 1163.75C211.229 1163.05 210.697 1162.45 210.031 1162C209.365 1161.55 208.587 1161.27 207.771 1161.17C206.145 1160.83 204.455 1160.87 202.85 1161.29C202.1 1161.45 201.41 1161.79 200.853 1162.29C200.297 1162.78 199.895 1163.41 199.69 1164.1C199.527 1164.76 199.617 1165.46 199.944 1166.07C200.272 1166.68 200.817 1167.17 201.486 1167.44C202.157 1167.56 202.851 1167.43 203.418 1167.08C203.986 1166.72 204.382 1166.18 204.521 1165.55C204.658 1164.92 204.628 1164.27 204.435 1163.64C204.241 1163.02 203.888 1162.46 203.407 1161.99C202.495 1161.04 201.292 1160.37 199.959 1160.07C198.706 1159.78 197.397 1159.79 196.146 1160.08C194.895 1160.37 193.738 1160.94 192.776 1161.74C191.89 1162.47 191.263 1163.43 190.98 1164.5C190.851 1164.98 190.868 1165.48 191.03 1165.95C191.192 1166.42 191.492 1166.84 191.896 1167.16C192.264 1167.45 192.734 1167.6 193.215 1167.59C193.697 1167.57 194.155 1167.39 194.5 1167.08C194.842 1166.79 195.102 1166.43 195.256 1166.03C195.41 1165.62 195.452 1165.19 195.38 1164.77C195.242 1163.96 194.895 1163.2 194.37 1162.55C193.844 1161.89 193.155 1161.37 192.363 1161.02C191.169 1160.41 189.782 1160.22 188.448 1160.47C187.465 1160.66 186.547 1161.08 185.773 1161.67C185.144 1162.18 184.61 1162.79 184.192 1163.46C184.255 1163.27 184.339 1163.09 184.444 1162.91C184.76 1162.39 185.167 1161.93 185.647 1161.54C186.422 1160.89 187.36 1160.43 188.376 1160.2C189.785 1159.91 191.26 1160.08 192.543 1160.7C193.362 1161.07 194.077 1161.62 194.629 1162.29C195.181 1162.96 195.556 1163.75 195.721 1164.58C195.805 1165.08 195.758 1165.59 195.582 1166.06C195.407 1166.54 195.109 1166.97 194.716 1167.31C194.278 1167.7 193.702 1167.93 193.096 1167.95C192.491 1167.97 191.898 1167.79 191.429 1167.43C190.942 1167.05 190.576 1166.56 190.373 1166C190.17 1165.44 190.138 1164.84 190.28 1164.27C190.532 1163.09 191.158 1162.02 192.076 1161.19C193.106 1160.31 194.353 1159.68 195.706 1159.36C197.058 1159.03 198.476 1159.02 199.834 1159.33C201.317 1159.65 202.659 1160.38 203.677 1161.44C204.239 1161.99 204.651 1162.65 204.876 1163.38C205.101 1164.11 205.133 1164.88 204.969 1165.62C204.735 1166.4 204.238 1167.09 203.551 1167.58C203.187 1167.84 202.764 1168.01 202.315 1168.09C201.866 1168.17 201.404 1168.15 200.965 1168.03C200.532 1167.9 200.135 1167.68 199.801 1167.39C199.466 1167.1 199.202 1166.75 199.025 1166.36C198.631 1165.59 198.499 1164.73 198.648 1163.9C198.887 1163.08 199.358 1162.34 200.012 1161.75C200.667 1161.16 201.48 1160.75 202.366 1160.55C204.117 1160.08 205.969 1160.01 207.753 1160.37C208.709 1160.5 209.615 1160.84 210.393 1161.38C211.17 1161.91 211.793 1162.62 212.206 1163.43C212.406 1163.87 212.509 1164.35 212.509 1164.83C212.509 1165.31 212.406 1165.78 212.206 1166.22C211.977 1166.67 211.629 1167.06 211.196 1167.35C210.763 1167.65 210.259 1167.83 209.728 1167.9C209.174 1168 208.598 1167.93 208.088 1167.7C207.579 1167.47 207.165 1167.09 206.909 1166.62C206.699 1166.16 206.603 1165.65 206.628 1165.15C206.653 1164.64 206.798 1164.14 207.053 1163.7C207.547 1162.83 208.265 1162.09 209.14 1161.55C210.016 1161 211.022 1160.66 212.071 1160.57C213.12 1160.47 214.177 1160.62 215.15 1160.99C216.123 1161.37 216.981 1161.97 217.648 1162.73C218.375 1163.49 218.832 1164.45 218.959 1165.47C219.042 1166.02 218.95 1166.58 218.695 1167.08C218.44 1167.59 218.032 1168.01 217.522 1168.3C217.256 1168.45 216.959 1168.55 216.649 1168.59C216.34 1168.62 216.025 1168.6 215.726 1168.51C215.124 1168.32 214.628 1167.91 214.343 1167.38C214.064 1166.88 213.935 1166.32 213.97 1165.76C214.005 1165.2 214.202 1164.66 214.541 1164.2C215.176 1163.36 216.004 1162.66 216.965 1162.16C217.868 1161.61 218.831 1161.16 219.838 1160.8C220.879 1160.39 222.008 1160.21 223.135 1160.28C224.262 1160.34 225.359 1160.65 226.339 1161.17C226.855 1161.46 227.304 1161.84 227.66 1162.29C228.016 1162.74 228.272 1163.25 228.412 1163.79C228.553 1164.34 228.575 1164.9 228.478 1165.45C228.381 1166.01 228.167 1166.54 227.848 1167.01C227.473 1167.47 226.969 1167.84 226.389 1168.05C225.81 1168.27 225.178 1168.34 224.561 1168.25C223.9 1168.19 223.274 1167.94 222.766 1167.54C222.288 1167.14 221.972 1166.6 221.868 1166.01C221.8 1165.45 221.856 1164.9 222.032 1164.37C222.208 1163.84 222.501 1163.35 222.891 1162.93C223.988 1161.72 225.512 1160.93 227.186 1160.68C228.86 1160.43 230.573 1160.76 232.014 1161.59C232.956 1162.11 233.745 1162.85 234.315 1163.72C234.884 1164.6 235.216 1165.59 235.282 1166.61C235.313 1167.16 235.176 1167.71 234.887 1168.2C234.598 1168.68 234.169 1169.08 233.648 1169.35C233.091 1169.61 232.458 1169.68 231.852 1169.55C231.538 1169.49 231.245 1169.36 230.996 1169.17C230.746 1168.98 230.548 1168.74 230.416 1168.46C230.247 1167.95 230.213 1167.41 230.316 1166.88C230.419 1166.36 230.656 1165.86 231.008 1165.44C231.595 1164.66 232.282 1163.95 233.055 1163.33C234.496 1161.98 236.408 1161.16 238.443 1161.02C239.485 1160.97 240.521 1161.2 241.424 1161.69C242.317 1162.21 242.984 1163.01 243.309 1163.95C243.479 1164.41 243.536 1164.91 243.477 1165.4C243.418 1165.89 243.244 1166.36 242.968 1166.78C242.668 1167.18 242.272 1167.51 241.811 1167.75C241.35 1167.99 240.837 1168.12 240.31 1168.15C239.773 1168.18 239.238 1168.06 238.771 1167.81C238.305 1167.56 237.928 1167.19 237.688 1166.74C237.492 1166.31 237.399 1165.84 237.418 1165.37C237.437 1164.9 237.566 1164.43 237.796 1164.01C238.193 1163.23 238.778 1162.54 239.506 1161.99C240.235 1161.45 241.087 1161.07 241.998 1160.89C242.861 1160.65 243.768 1160.58 244.659 1160.7C245.551 1160.81 246.406 1161.1 247.17 1161.54C247.9 1162.01 248.487 1162.64 248.874 1163.38C249.261 1164.13 249.435 1164.95 249.379 1165.77C249.375 1166.19 249.275 1166.61 249.087 1166.99C248.899 1167.37 248.627 1167.71 248.288 1167.99C247.949 1168.27 247.552 1168.48 247.121 1168.6C246.69 1168.73 246.236 1168.77 245.787 1168.72C245.325 1168.61 244.919 1168.35 244.648 1167.99C244.376 1167.63 244.258 1167.18 244.315 1166.74C244.434 1165.98 244.776 1165.27 245.303 1164.68C246.239 1163.6 247.439 1162.73 248.804 1162.16C250.093 1161.58 251.573 1161.51 252.92 1161.95C254.267 1162.39 255.37 1163.32 255.987 1164.52C256.199 1165.11 256.252 1165.73 256.143 1166.35C256.033 1166.96 255.764 1167.54 255.359 1168.03C254.963 1168.52 254.399 1168.87 253.761 1169.02C253.438 1169.11 253.094 1169.1 252.774 1169.01C252.453 1168.91 252.171 1168.73 251.965 1168.48C251.846 1168.22 251.785 1167.93 251.785 1167.65C251.785 1167.36 251.846 1167.07 251.965 1166.81C252.117 1166.32 252.321 1165.85 252.575 1165.4C253.042 1164.54 253.697 1163.78 254.497 1163.16C255.2 1162.62 256.044 1162.27 256.942 1162.13C257.841 1161.99 258.763 1162.07 259.615 1162.38C260.313 1162.58 260.932 1162.98 261.397 1163.5C261.863 1164.03 262.154 1164.67 262.237 1165.35C262.265 1165.84 262.186 1166.33 262.004 1166.79C261.822 1167.25 261.54 1167.67 261.177 1168.03C260.932 1168.31 260.621 1168.53 260.269 1168.67C259.916 1168.82 259.533 1168.88 259.148 1168.87Z" fill="#151A1D"/>
<path d="M183.851 1164.05L159.141 1251.04L237.706 1253.35L262.416 1167.43L183.851 1164.05Z" fill="#455A64"/>
<path d="M183.851 1164.05L180.709 1164.32L155.783 1244.67L159.572 1249.52L183.851 1164.05Z" fill="#E0E0E0"/>
<path d="M235.857 1186.21H261.375C262.577 1186.2 263.756 1186.52 264.764 1187.13C265.771 1187.74 266.561 1188.61 267.031 1189.64C268.051 1191.8 268.554 1194.14 268.504 1196.5C269.605 1197.9 270.231 1199.57 270.3 1201.3C270.556 1205.65 270.556 1210 270.3 1214.34C270.066 1215.02 267.355 1215.71 267.355 1215.71C267.355 1215.71 269.15 1219.37 267.606 1222.1C266.882 1223.63 265.569 1224.86 263.925 1225.53C263.925 1225.53 260.495 1232.86 257.047 1233.76C253.599 1234.66 250.438 1233.76 248.715 1233.76C246.991 1233.76 219.264 1220.51 219.264 1220.51V1217.53C219.264 1217.53 209.459 1218.45 209.207 1213.42C208.956 1208.38 215.582 1208.7 215.582 1208.7H230.559C230.559 1208.7 214.11 1209.3 212.602 1207.03C211.093 1204.75 209.154 1199.25 214.182 1198.34C219.21 1197.44 241.909 1197.42 241.909 1197.42L254.299 1199.33H256.257L254.73 1194.31C254.73 1194.31 241.729 1194.31 239.79 1194.06C237.85 1193.81 234.187 1193.38 234.187 1190.18C234.187 1186.98 235.857 1186.21 235.857 1186.21Z" fill="#886962"/>
<path d="M250.205 1210.1C248.635 1210.36 247.039 1210.47 245.446 1210.41C242.501 1210.41 238.425 1210.41 233.935 1210.1C229.446 1209.8 225.387 1209.4 222.478 1209.02C220.886 1208.89 219.315 1208.6 217.791 1208.15C219.381 1208.08 220.975 1208.15 222.55 1208.36C225.477 1208.6 229.518 1208.92 233.989 1209.18C238.461 1209.45 242.519 1209.62 245.446 1209.75C247.041 1209.72 248.635 1209.84 250.205 1210.1Z" fill="#2B2625"/>
<path d="M247.888 1222.92C246.471 1223.06 245.039 1223.02 243.632 1222.8C241.029 1222.58 237.437 1222.2 233.486 1221.6C229.536 1221 225.998 1220.33 223.448 1219.74C222.047 1219.52 220.679 1219.14 219.372 1218.62C220.794 1218.63 222.21 1218.79 223.592 1219.11L233.648 1220.69L243.722 1222.17C245.135 1222.28 246.531 1222.54 247.888 1222.92Z" fill="#2B2625"/>
<path d="M269.258 1204.95C269.258 1204.95 269.617 1205.05 270.156 1205.47C270.901 1206.08 271.469 1206.86 271.808 1207.73C272.361 1209.09 272.329 1210.6 271.718 1211.94C271.318 1212.8 270.713 1213.55 269.95 1214.15C269.187 1214.75 268.287 1215.18 267.319 1215.41L267.606 1214.76C268.181 1215.67 268.543 1216.69 268.667 1217.74C268.791 1218.79 268.674 1219.86 268.325 1220.86C267.975 1221.87 267.401 1222.8 266.64 1223.59C265.878 1224.37 264.947 1225 263.907 1225.43L264.194 1225.13C263.323 1228.22 261.386 1230.97 258.681 1232.94C257.911 1233.49 257.08 1233.97 256.203 1234.36C255.9 1234.53 255.564 1234.64 255.215 1234.68C255.215 1234.56 256.49 1234.01 258.304 1232.52C260.752 1230.52 262.492 1227.87 263.296 1224.93V1224.71L263.512 1224.63C264.419 1224.24 265.229 1223.68 265.892 1222.99C266.555 1222.29 267.055 1221.48 267.361 1220.59C267.666 1219.71 267.771 1218.77 267.668 1217.85C267.565 1216.93 267.256 1216.03 266.762 1215.22L266.403 1214.71L267.049 1214.55C267.889 1214.37 268.675 1214.02 269.346 1213.51C270.018 1213.01 270.559 1212.37 270.928 1211.64C271.522 1210.47 271.624 1209.14 271.216 1207.9C270.797 1206.8 270.13 1205.79 269.258 1204.95Z" fill="#2B2625"/>
<path d="M209.118 1091.86L224.867 1062.32L219.982 1049.37C219.982 1049.37 243.615 1037.94 235.534 1014.62C231.637 1003.36 221.58 980.775 212.188 960.432C207.335 949.894 198.402 941.443 187.165 936.763C175.928 932.082 163.212 931.513 151.545 935.17L149.139 935.923C123.711 945.459 118.198 970.905 129.134 994.326L161.117 1081.32L209.118 1091.86Z" fill="#886962"/>
<path d="M220 1049.3C208.56 1053.1 196.165 1053.65 184.39 1050.87C184.39 1050.87 198.11 1065.18 222.245 1055.29L220 1049.3Z" fill="#2B2625"/>
<path d="M213.068 978.767C213.388 979.629 213.335 980.573 212.919 981.397C212.503 982.222 211.757 982.864 210.842 983.184C210.4 983.361 209.925 983.454 209.445 983.457C208.965 983.46 208.488 983.373 208.045 983.201C207.601 983.029 207.199 982.777 206.862 982.458C206.525 982.139 206.26 981.76 206.083 981.344C205.763 980.483 205.817 979.539 206.233 978.714C206.648 977.889 207.394 977.248 208.31 976.927C208.751 976.75 209.226 976.658 209.706 976.655C210.187 976.652 210.663 976.739 211.107 976.91C211.55 977.082 211.953 977.335 212.29 977.654C212.627 977.973 212.891 978.351 213.068 978.767Z" fill="#151A1D"/>
<path d="M210.896 972.076C210.608 972.645 207.304 971.641 203.425 972.845C199.546 974.05 197.427 976.727 196.853 976.409C196.583 976.292 196.745 975.355 197.679 974.15C198.949 972.575 200.712 971.406 202.725 970.804C204.727 970.2 206.882 970.2 208.884 970.804C210.321 971.156 211.039 971.825 210.896 972.076Z" fill="#151A1D"/>
<path d="M177.817 989.658C178.138 990.522 178.085 991.468 177.669 992.296C177.253 993.123 176.508 993.768 175.591 994.092C175.149 994.269 174.674 994.361 174.194 994.364C173.714 994.367 173.237 994.28 172.794 994.109C172.35 993.937 171.948 993.684 171.611 993.365C171.274 993.046 171.009 992.668 170.832 992.251C170.511 991.388 170.564 990.442 170.98 989.614C171.396 988.786 172.141 988.142 173.059 987.818C173.5 987.641 173.975 987.548 174.455 987.546C174.936 987.543 175.412 987.63 175.856 987.801C176.299 987.973 176.701 988.226 177.038 988.545C177.375 988.864 177.64 989.242 177.817 989.658Z" fill="#151A1D"/>
<path d="M173.687 982.649C173.454 983.251 169.988 982.649 166.324 984.171C162.661 985.694 160.829 988.621 160.219 988.387C159.931 988.287 159.985 987.35 160.775 986.045C161.847 984.332 163.467 982.975 165.409 982.164C167.313 981.333 169.453 981.093 171.514 981.478C173.041 981.796 173.795 982.381 173.687 982.649Z" fill="#151A1D"/>
<path d="M197.014 1007.99C198.813 1006.77 200.775 1005.76 202.85 1005C203.802 1004.6 204.646 1004.13 204.646 1003.46C204.646 1002.79 203.874 1001.87 203.03 1000.95L197.643 994.928C190.065 986.296 184.21 979.085 184.587 978.801C184.965 978.517 191.411 985.292 198.954 993.858L204.233 999.964C205.245 1000.88 205.881 1002.09 206.029 1003.39C206 1003.76 205.883 1004.11 205.687 1004.43C205.491 1004.75 205.222 1005.03 204.898 1005.23C204.405 1005.53 203.874 1005.78 203.317 1005.95C201.318 1006.88 199.2 1007.57 197.014 1007.99Z" fill="#151A1D"/>
<path d="M168.479 970.302C168.479 971.39 164.457 972.126 160.147 974.033C155.837 975.94 152.605 978.232 151.689 977.546C151.276 977.212 151.581 976.108 152.712 974.702C154.258 972.942 156.211 971.531 158.425 970.575C160.64 969.619 163.058 969.143 165.498 969.181C167.366 969.198 168.479 969.7 168.479 970.302Z" fill="#151A1D"/>
<path d="M206.334 962.473C205.957 963.51 203.012 963.493 199.816 964.447C196.619 965.4 194.159 966.823 193.225 966.12C192.812 965.785 192.938 964.848 193.836 963.711C195.084 962.299 196.753 961.263 198.632 960.733C200.511 960.204 202.516 960.203 204.395 960.733C205.813 961.268 206.496 961.937 206.334 962.473Z" fill="#151A1D"/>
<path d="M137.377 1010.8C136.892 1010.8 118.539 1011.44 124.806 1027.15C131.073 1042.86 146.715 1033.84 146.571 1033.29C146.427 1032.74 137.377 1010.8 137.377 1010.8Z" fill="#886962"/>
<path d="M139.047 1029.12C138.957 1029.12 138.831 1029.42 138.418 1029.81C137.832 1030.33 137.053 1030.62 136.245 1030.61C134.216 1030.61 131.666 1028.5 130.463 1025.69C129.872 1024.37 129.615 1022.93 129.709 1021.5C129.67 1020.95 129.777 1020.4 130.018 1019.9C130.259 1019.41 130.627 1018.97 131.091 1018.63C131.398 1018.44 131.766 1018.36 132.132 1018.39C132.499 1018.43 132.841 1018.58 133.103 1018.82C133.498 1019.17 133.516 1019.52 133.623 1019.52C133.731 1019.52 133.875 1019.14 133.48 1018.53C133.228 1018.18 132.854 1017.91 132.42 1017.78C131.823 1017.61 131.179 1017.67 130.624 1017.93C129.981 1018.3 129.45 1018.82 129.082 1019.43C128.714 1020.05 128.522 1020.74 128.523 1021.44C128.351 1023.05 128.603 1024.67 129.26 1026.16C130.624 1029.29 133.551 1031.67 136.245 1031.47C136.748 1031.43 137.236 1031.3 137.674 1031.06C138.112 1030.83 138.489 1030.51 138.777 1030.13C139.172 1029.53 139.118 1029.14 139.047 1029.12Z" fill="#2B2625"/>
<path d="M186.617 1014C187.227 1013.77 188.646 1017.65 193.189 1019.27C197.733 1020.89 202.024 1019.1 202.168 1019.62C202.312 1019.86 201.45 1020.69 199.6 1021.29C197.178 1022.09 194.531 1022.06 192.13 1021.21C189.822 1020.4 187.942 1018.79 186.886 1016.71C186.204 1015.17 186.329 1014.07 186.617 1014Z" fill="#151A1D"/>
<path d="M218.33 926.036C217.557 924.593 216.41 923.353 214.992 922.427C213.575 921.501 211.933 920.918 210.213 920.732C209.882 919.855 209.461 919.009 208.956 918.206C207.401 915.765 204.995 913.895 202.138 912.909C199.281 911.922 196.148 911.879 193.261 912.786C192.057 910.897 190.324 909.35 188.246 908.31C186.169 907.271 183.827 906.779 181.472 906.888C179.117 906.996 176.839 907.701 174.881 908.926C172.924 910.151 171.363 911.85 170.365 913.84C167.609 912.809 164.592 912.538 161.676 913.06C158.759 913.582 156.065 914.875 153.916 916.784C153.354 917.226 152.937 917.805 152.712 918.457C152.662 918.681 152.661 918.913 152.711 919.137C152.76 919.362 152.858 919.574 153 919.762C151.78 918.841 150.34 918.208 148.802 917.917C147.264 917.626 145.673 917.685 144.165 918.089C143.144 918.382 142.184 918.834 141.327 919.427C138.705 920.493 136.632 922.467 135.545 924.931C131.725 924.986 128.059 926.342 125.24 928.743C122.421 931.144 120.644 934.425 120.245 937.964C117.521 939.023 115.197 940.814 113.569 943.108C111.941 945.402 111.083 948.096 111.104 950.846C109.338 951.53 107.799 952.639 106.645 954.061C105.491 955.483 104.765 957.165 104.54 958.935C104.315 960.704 104.6 962.498 105.365 964.131C106.131 965.764 107.349 967.178 108.896 968.228C108.896 968.228 97.8695 974.485 104.55 983.435C107.962 988.019 114.965 984.84 114.965 984.84L135.688 1014.07C135.599 1014.27 139.28 1017.3 141.076 1015.84C142.872 1014.38 143.285 1012.06 143.841 1009.92C144.693 1007.53 145.136 1005.04 145.152 1002.52C145.126 1001.27 144.665 1000.05 143.836 999.059C143.007 998.067 141.856 997.352 140.555 997.019C141.792 996.017 142.724 994.728 143.257 993.283C143.789 991.838 143.904 990.288 143.59 988.788C142.939 985.797 141.723 982.936 139.998 980.34L133.049 968.512C136.109 967.431 138.794 965.59 140.814 963.19C142.833 960.79 144.11 957.921 144.506 954.894C145.9 955.269 147.364 955.364 148.801 955.174C150.237 954.983 151.614 954.511 152.841 953.789C154.068 953.066 155.116 952.11 155.917 950.983C156.719 949.856 157.254 948.583 157.489 947.249C159.61 949.719 162.657 951.348 166.017 951.808C169.376 952.267 172.797 951.523 175.591 949.725C176.093 953.221 183.528 954.292 187.317 954.074C191.106 953.857 194.626 950.21 194.626 950.21C197.169 950.693 199.785 950.744 202.348 950.361L202.725 950.277C207.699 949.206 210.931 943.585 211.847 938.984C213.148 938.724 214.373 938.205 215.439 937.462C217.207 936.122 218.449 934.274 218.972 932.207C219.495 930.14 219.269 927.97 218.33 926.036Z" fill="#151A1D"/>
<path d="M78.2776 1164.53C78.2776 1164.53 67.3413 1201.34 64.935 1210.41C62.5286 1219.47 62.5466 1240.34 67.9698 1246.53C73.3931 1252.72 91.5304 1256.65 91.5304 1256.65C91.5304 1256.65 127.033 1240.5 139.1 1220.81C151.168 1201.12 184.228 1147.54 184.228 1147.54L173.759 1120.77L118.736 1169.72L119.293 1163.36L78.2776 1164.53Z" fill="#886962"/>
<path d="M193.189 1036.42C193.642 1036.2 194.135 1036.08 194.641 1036.04C195.147 1036.01 195.656 1036.06 196.138 1036.21C196.62 1036.36 197.066 1036.59 197.45 1036.9C197.835 1037.21 198.15 1037.59 198.379 1038.01L230.074 1096.74L221.958 1100.09L191.429 1041.15C191.004 1040.3 190.95 1039.34 191.279 1038.45C191.607 1037.57 192.293 1036.84 193.189 1036.42Z" fill="#455A64"/>
<path d="M171.999 1122.54L201.593 1094.1H229.967L248.14 1116.45C248.14 1116.45 239.538 1117.94 236.449 1113.64L232.445 1108.32C232.445 1108.32 236.449 1116.5 234.241 1120.53C234.241 1120.53 229.985 1129.87 229.302 1130.87C228.009 1132.75 227.022 1133.95 223.322 1133.38C219.623 1132.81 213.876 1130.04 214.505 1128C214.699 1127.42 215.059 1126.9 215.546 1126.49C216.034 1126.09 216.63 1125.82 217.27 1125.7L208.633 1124.55C208.633 1124.55 199.941 1139.22 194.698 1142.67C191.462 1144.77 187.918 1146.44 184.174 1147.6L171.999 1122.54Z" fill="#886962"/>
<path d="M119.85 1168.87C119.85 1169 117.461 1170.07 113.69 1172.11C108.797 1174.79 104.196 1177.9 99.9526 1181.41C95.7191 1184.95 91.8751 1188.87 88.4776 1193.12C85.8557 1196.37 84.4371 1198.53 84.3114 1198.44C84.5275 1197.89 84.8106 1197.35 85.1554 1196.85C85.748 1195.85 86.6818 1194.45 87.9389 1192.76C94.5214 1183.95 103.223 1176.7 113.349 1171.58C115.288 1170.61 116.941 1169.9 118.036 1169.47C118.613 1169.2 119.222 1169 119.85 1168.87Z" fill="#2B2625"/>
<path d="M208.112 1102.3C209.464 1101.93 210.855 1101.72 212.26 1101.65C214.846 1101.35 218.42 1101.01 222.353 1100.68C223.348 1100.56 224.356 1100.56 225.351 1100.68C226.308 1100.81 227.219 1101.14 228.009 1101.66C229.297 1102.52 230.329 1103.68 231.008 1105.01C231.697 1106.17 232.147 1107.44 232.337 1108.76C232.193 1108.76 231.655 1107.38 230.434 1105.29C229.731 1104.1 228.742 1103.08 227.542 1102.3C226.839 1101.88 226.051 1101.6 225.226 1101.48C224.301 1101.38 223.367 1101.38 222.442 1101.48C218.492 1101.8 214.918 1102.05 212.314 1102.18C210.922 1102.36 209.513 1102.4 208.112 1102.3Z" fill="#2B2625"/>
<path d="M230.703 1129.37C230.559 1129.37 230.829 1127.36 230.703 1124.16C230.596 1122.3 230.326 1120.44 229.895 1118.61C229.41 1116.6 228.71 1114.19 226.555 1113.02C225.455 1112.48 224.275 1112.09 223.053 1111.87L219.569 1111.13C217.605 1110.72 215.613 1110.44 213.607 1110.28C211.756 1110.22 209.903 1110.26 208.058 1110.41C208.504 1110.17 209 1110.02 209.513 1109.98C210.873 1109.73 212.258 1109.62 213.643 1109.66C215.69 1109.73 217.726 1109.96 219.731 1110.35C220.862 1110.55 222.047 1110.78 223.322 1111.05C224.635 1111.27 225.902 1111.68 227.075 1112.27C228.266 1112.94 229.197 1113.95 229.733 1115.15C230.222 1116.22 230.572 1117.34 230.775 1118.49C231.185 1120.37 231.402 1122.28 231.421 1124.2C231.443 1125.48 231.359 1126.77 231.17 1128.05C231.091 1128.51 230.933 1128.95 230.703 1129.37Z" fill="#2B2625"/>
<path d="M220.431 1119.81C220.861 1121.55 221.012 1123.34 220.88 1125.12V1125.64L220.323 1125.54C220.007 1125.51 219.688 1125.51 219.372 1125.54C217.88 1125.59 216.473 1126.19 215.457 1127.21C214.649 1128 214.397 1128.66 214.254 1128.61C214.11 1128.56 214.254 1127.81 214.954 1126.82C215.469 1126.18 216.135 1125.66 216.901 1125.3C217.667 1124.94 218.512 1124.74 219.372 1124.73C219.758 1124.74 220.143 1124.78 220.521 1124.85L219.964 1125.27C219.824 1123.44 219.981 1121.6 220.431 1119.81Z" fill="#2B2625"/>
<path d="M220.467 1120.7C218.547 1120.78 216.624 1120.69 214.721 1120.45C212.793 1120.5 210.864 1120.39 208.956 1120.13C210.816 1119.53 212.803 1119.34 214.756 1119.58C216.727 1119.54 218.683 1119.92 220.467 1120.7Z" fill="#2B2625"/>
<path d="M209.423 1119.33C209.532 1121.24 209.091 1123.15 208.148 1124.85C207.499 1126.67 206.347 1128.31 204.808 1129.59C204.592 1129.43 206.029 1127.34 207.286 1124.57C208.543 1121.79 209.154 1119.28 209.423 1119.33Z" fill="#2B2625"/>
<path d="M322.844 1440.92L320.294 1516.66L421.414 1520.1C421.181 1511.09 369.57 1491.23 369.57 1491.23L373.359 1442.71L322.844 1440.92Z" fill="#FF9A03"/>
<path d="M338.467 1486.08C337.483 1486.32 336.63 1486.89 336.07 1487.69C335.51 1488.48 335.283 1489.44 335.432 1490.38C335.657 1491.3 336.253 1492.11 337.099 1492.63C337.944 1493.16 338.974 1493.36 339.976 1493.2C341.019 1492.95 341.922 1492.34 342.51 1491.5C343.098 1490.66 343.328 1489.64 343.154 1488.65C342.816 1487.71 342.1 1486.93 341.155 1486.47C340.211 1486.01 339.112 1485.91 338.09 1486.19" fill="white"/>
<path d="M320.294 1516.66L320.869 1509.03L417.607 1515.19C417.607 1515.19 422.043 1517.18 421.414 1520.1L320.294 1516.66Z" fill="white"/>
<path d="M371.24 1490.81C371.24 1491.26 368.726 1491.4 366.23 1492.79C363.734 1494.17 362.369 1496.13 361.92 1495.88C361.471 1495.63 362.315 1493.05 365.368 1491.41C368.421 1489.77 371.348 1490.39 371.24 1490.81Z" fill="#151A1D"/>
<path d="M381.674 1495.26C381.781 1495.71 379.608 1496.42 377.849 1498.31C376.089 1500.2 375.532 1502.24 375.047 1502.2C374.562 1502.17 374.347 1499.54 376.574 1497.19C378.8 1494.83 381.692 1494.83 381.674 1495.26Z" fill="#151A1D"/>
<path d="M387.241 1507.32C386.792 1507.32 386.181 1505.08 387.564 1502.61C388.947 1500.13 391.263 1499.26 391.461 1499.59C391.658 1499.93 390.168 1501.27 389.09 1503.34C388.013 1505.42 387.725 1507.32 387.241 1507.32Z" fill="#151A1D"/>
<path d="M370.773 1479.67C370.558 1480.09 368.313 1479.37 365.512 1479.45C362.71 1479.54 360.501 1480.29 360.268 1479.89C360.035 1479.49 362.189 1477.91 365.476 1477.86C368.762 1477.81 371.043 1479.32 370.773 1479.67Z" fill="#151A1D"/>
<path d="M368.816 1468.41C368.816 1468.61 366.841 1468.83 363.752 1468.21C361.938 1467.85 360.177 1467.29 358.508 1466.54C357.519 1466.09 356.564 1465.57 355.653 1465C355.094 1464.69 354.592 1464.3 354.162 1463.84C353.854 1463.5 353.675 1463.08 353.652 1462.63C353.629 1462.19 353.764 1461.75 354.037 1461.38C354.298 1461.07 354.634 1460.82 355.017 1460.65C355.401 1460.49 355.822 1460.4 356.245 1460.41C356.887 1460.42 357.522 1460.53 358.131 1460.71C359.205 1460.99 360.246 1461.36 361.238 1461.84C362.921 1462.61 364.46 1463.62 365.799 1464.85C368.062 1466.95 368.798 1468.69 368.636 1468.78C368.475 1468.86 367.307 1467.44 365.045 1465.68C363.69 1464.67 362.206 1463.83 360.627 1463.16C359.696 1462.78 358.735 1462.48 357.754 1462.24C356.676 1461.94 355.779 1461.89 355.473 1462.24C355.383 1462.4 355.366 1462.47 355.581 1462.77C355.893 1463.1 356.256 1463.39 356.658 1463.63C357.538 1464.19 358.454 1464.7 359.28 1465.15C360.823 1465.92 362.44 1466.56 364.111 1467.06C365.711 1467.4 367.283 1467.86 368.816 1468.41Z" fill="#151A1D"/>
<path d="M368.134 1469.05C367.954 1469.05 367.056 1467.37 366.984 1464.45C366.96 1461.65 367.754 1458.89 369.283 1456.48C369.581 1455.87 370.044 1455.34 370.625 1454.94C371.207 1454.54 371.889 1454.29 372.605 1454.21C373.054 1454.23 373.486 1454.38 373.851 1454.63C374.216 1454.87 374.5 1455.21 374.67 1455.6C374.909 1456.16 375.06 1456.75 375.119 1457.35C375.25 1458.41 375.207 1459.48 374.993 1460.53C374.642 1462.29 373.835 1463.93 372.641 1465.33C370.576 1467.71 368.493 1468.18 368.457 1468.03C368.421 1467.87 370.055 1466.95 371.653 1464.68C372.592 1463.36 373.205 1461.86 373.449 1460.3C373.593 1459.39 373.593 1458.47 373.449 1457.57C373.323 1456.57 372.964 1455.75 372.551 1455.9C372.138 1456.05 371.168 1456.6 370.755 1457.39C370.218 1458.18 369.766 1459.02 369.409 1459.89C368.785 1461.4 368.392 1462.97 368.241 1464.58C367.954 1467.26 368.349 1469 368.134 1469.05Z" fill="#151A1D"/>
<path d="M171.155 1441.48L196.763 1513.41L100.868 1543.53C98.3364 1534.83 141.74 1502.1 141.74 1502.1L123.316 1456.65L171.155 1441.48Z" fill="#FF9A03"/>
<path d="M169.988 1488.92C171.01 1488.9 172.007 1489.22 172.785 1489.84C173.564 1490.46 174.071 1491.32 174.208 1492.27C174.275 1493.21 173.952 1494.15 173.304 1494.88C172.657 1495.61 171.734 1496.08 170.724 1496.2C169.645 1496.22 168.595 1495.88 167.773 1495.23C166.951 1494.58 166.416 1493.66 166.271 1492.67C166.271 1490.78 168.39 1488.64 170.383 1488.95" fill="white"/>
<path d="M196.763 1513.4L193.872 1506.24L103.023 1537.8C103.023 1537.8 99.4318 1540.88 100.868 1543.53L196.763 1513.4Z" fill="white"/>
<path d="M140.034 1502.14C140.196 1502.56 142.62 1502.02 145.422 1502.71C148.223 1503.39 150.127 1504.83 150.504 1504.51C150.881 1504.19 149.247 1501.92 145.835 1501.17C142.423 1500.41 139.783 1501.77 140.034 1502.14Z" fill="#151A1D"/>
<path d="M131.307 1509.16C131.307 1509.62 133.641 1509.73 135.904 1511.07C138.167 1512.41 139.334 1514.23 139.783 1514.07C140.232 1513.9 139.657 1511.34 136.802 1509.72C133.947 1508.09 131.307 1508.75 131.307 1509.16Z" fill="#151A1D"/>
<path d="M129.726 1522.18C130.175 1522.18 130.05 1519.75 127.931 1517.75C125.812 1515.74 123.316 1515.47 123.262 1515.89C123.208 1516.31 125.057 1517.18 126.674 1518.85C128.29 1520.52 129.242 1522.28 129.726 1522.18Z" fill="#151A1D"/>
<path d="M137.053 1491.33C137.394 1491.68 139.334 1490.39 142.028 1489.66C144.721 1488.92 147.092 1489.12 147.199 1488.69C147.307 1488.25 144.757 1487.3 141.579 1488.12C138.4 1488.94 136.694 1491.06 137.053 1491.33Z" fill="#151A1D"/>
<path d="M135.509 1480.02C135.509 1480.2 137.52 1479.89 140.304 1478.48C141.929 1477.66 143.437 1476.64 144.793 1475.47C145.602 1474.77 146.364 1474.03 147.074 1473.25C147.51 1472.8 147.868 1472.29 148.133 1471.74C148.332 1471.33 148.378 1470.88 148.264 1470.44C148.15 1470.01 147.882 1469.62 147.505 1469.35C147.161 1469.12 146.765 1468.96 146.347 1468.9C145.928 1468.84 145.501 1468.87 145.098 1469C144.46 1469.18 143.855 1469.45 143.303 1469.8C142.365 1470.36 141.482 1470.99 140.663 1471.69C139.289 1472.88 138.125 1474.26 137.215 1475.79C136.235 1477.12 135.709 1478.69 135.706 1480.31C135.976 1480.31 136.568 1478.63 138.256 1476.37C139.246 1475.04 140.41 1473.84 141.722 1472.78C142.499 1472.16 143.328 1471.6 144.2 1471.1C145.116 1470.53 145.996 1470.27 146.391 1470.6C146.786 1470.94 146.589 1470.79 146.391 1471.14C146.184 1471.54 145.918 1471.91 145.601 1472.24C144.97 1473 144.286 1473.71 143.554 1474.38C142.318 1475.54 140.965 1476.59 139.513 1477.51C137.179 1479.1 135.401 1479.79 135.509 1480.02Z" fill="#151A1D"/>
<path d="M136.335 1480.46C136.532 1480.46 136.892 1478.62 136.048 1475.74C135.214 1473.05 133.613 1470.62 131.415 1468.71C130.938 1468.2 130.33 1467.82 129.647 1467.59C128.965 1467.37 128.231 1467.31 127.518 1467.42C127.094 1467.56 126.723 1467.82 126.449 1468.15C126.175 1468.48 126.01 1468.88 125.973 1469.3C125.909 1469.89 125.94 1470.5 126.063 1471.09C126.618 1473.92 128.347 1476.43 130.876 1478.08C133.605 1479.75 135.742 1479.75 135.724 1479.55C134.31 1478.84 132.942 1478.04 131.63 1477.18C130.335 1476.16 129.294 1474.89 128.577 1473.46C128.17 1472.63 127.886 1471.74 127.733 1470.84C127.536 1469.85 127.733 1468.96 128.056 1468.93C128.476 1468.93 128.891 1469.02 129.272 1469.18C129.653 1469.35 129.992 1469.59 130.265 1469.88C131.023 1470.5 131.72 1471.19 132.348 1471.92C133.404 1473.2 134.257 1474.61 134.88 1476.11C135.976 1478.68 136.066 1480.56 136.335 1480.46Z" fill="#151A1D"/>
<path d="M148.061 1270.62C148.061 1270.62 110.494 1239.58 94.0085 1239.85C77.5233 1240.12 23.4526 1236.76 46.1332 1306.55C68.9934 1376.93 109.937 1484.55 111.05 1480.69L181.588 1451.85L152.856 1351.74C152.856 1351.74 248.876 1352.74 267.426 1350.48C285.977 1348.22 320.671 1325.39 320.671 1325.39L315.14 1451.88L388.767 1448.07C388.767 1448.07 399.111 1296.11 402.092 1264.89C404.678 1237.71 371.887 1207.19 338.431 1214.07C316.595 1218.57 238.497 1269.93 238.497 1269.93L148.061 1270.62Z" fill="#151A1D"/>
<path d="M323.203 1258.2C323.316 1259.32 323.316 1260.44 323.203 1261.55C323.077 1263.89 322.898 1266.9 322.7 1270.55C322.323 1278.16 322.054 1288.67 321.856 1300.29C321.659 1311.92 321.425 1322.44 320.994 1330.06C320.797 1333.87 320.545 1336.95 320.33 1339.07C320.294 1340.2 320.138 1341.32 319.863 1342.42C319.767 1341.31 319.767 1340.19 319.863 1339.07C319.863 1336.73 320.007 1333.7 320.115 1330.07C320.258 1322.24 320.438 1311.82 320.635 1300.29C320.833 1288.77 321.228 1278.14 321.82 1270.53C322.126 1266.73 322.431 1263.66 322.718 1261.53C322.783 1260.41 322.945 1259.3 323.203 1258.2Z" fill="#455A64"/>
<path d="M320.222 1317.43C318.933 1316.38 317.835 1315.15 316.972 1313.78C312.436 1307.33 309.946 1299.82 309.789 1292.11C309.646 1290.53 309.798 1288.93 310.238 1287.4C310.651 1287.4 310.076 1294.67 312.949 1303.09C315.823 1311.5 320.563 1317.22 320.222 1317.43Z" fill="#455A64"/>
<path d="M220.036 1343.06C219.91 1343.06 219.767 1341.38 219.192 1338.24C218.393 1333.87 217.099 1329.6 215.331 1325.49C212.716 1319.41 209.126 1313.73 204.682 1308.66C199.217 1302.44 192.509 1297.26 184.929 1293.42C169.018 1284.82 154.957 1276.35 145.152 1269.76C140.25 1266.42 136.389 1263.64 133.839 1261.57C132.546 1260.56 131.594 1259.71 130.948 1259.14C130.6 1258.87 130.287 1258.56 130.014 1258.22C130.014 1258.22 131.486 1259.27 134.144 1261.21C136.802 1263.15 140.699 1265.9 145.655 1269.09C155.568 1275.52 169.665 1283.83 185.611 1292.52C193.299 1296.44 200.085 1301.73 205.58 1308.09C210.048 1313.28 213.611 1319.09 216.139 1325.31C217.885 1329.48 219.091 1333.83 219.731 1338.27C219.919 1339.47 220.032 1340.67 220.072 1341.88C220.104 1342.27 220.092 1342.67 220.036 1343.06Z" fill="#455A64"/>
<path d="M246.021 1268.94C245.716 1269.95 245.307 1270.93 244.8 1271.87C243.92 1273.73 242.735 1276.42 241.37 1279.8C234.223 1297.42 230.908 1316.19 231.619 1335.01C231.744 1338.61 231.942 1341.52 232.14 1343.52C232.303 1344.56 232.351 1345.62 232.283 1346.67C231.973 1345.66 231.763 1344.62 231.655 1343.57C231.313 1341.58 230.99 1338.66 230.757 1335.04C229.555 1316.11 232.905 1297.16 240.562 1279.58C242.034 1276.24 243.345 1273.56 244.369 1271.77C244.818 1270.78 245.371 1269.83 246.021 1268.94Z" fill="#455A64"/>
<path d="M104.765 1259.84C105.123 1260.02 105.466 1260.23 105.789 1260.46L108.608 1262.38C109.237 1262.8 109.901 1263.27 110.637 1263.79C111.374 1264.31 112.074 1264.98 112.882 1265.65C114.736 1267.13 116.481 1268.72 118.108 1270.42L120.963 1273.38C121.879 1274.46 122.759 1275.62 123.747 1276.72L125.219 1278.55C125.686 1279.18 126.117 1279.85 126.566 1280.52C127.464 1281.87 128.362 1283.23 129.331 1284.69C133.084 1291.04 136.244 1297.68 138.777 1304.54C141.561 1311.8 143.662 1318.9 145.547 1325.32L150.432 1342.44C151.868 1347.3 153.018 1351.24 153.898 1353.93C154.293 1355.23 154.598 1356.27 154.849 1357.06C154.964 1357.42 155.054 1357.79 155.119 1358.16C154.928 1357.83 154.777 1357.47 154.67 1357.11C154.4 1356.32 154.023 1355.3 153.574 1354.03C152.605 1351.35 151.348 1347.44 149.839 1342.59L144.775 1325.52C142.836 1319.1 140.717 1312.04 137.951 1304.81C135.436 1298 132.319 1291.39 128.631 1285.05C127.751 1283.6 126.835 1282.24 125.919 1280.9C125.471 1280.24 125.057 1279.57 124.591 1278.93L123.172 1277.12C122.22 1275.94 121.376 1274.76 120.442 1273.69L117.659 1270.72C116.068 1269.01 114.365 1267.4 112.559 1265.9C111.769 1265.21 111.086 1264.54 110.368 1263.99L108.411 1262.55L105.681 1260.51C105.353 1260.32 105.046 1260.09 104.765 1259.84Z" fill="#455A64"/>
<path d="M147.289 1270C160.686 1278.23 175.447 1280.17 191.232 1282.98C200.336 1284.65 209.854 1286.07 218.743 1283.63C237.796 1278.4 256.203 1258.19 268.432 1250.99L217.342 1263.07L147.289 1270Z" fill="#4673C9"/>
</g>
</g>
<defs>
<clipPath id="clip0_805_2527">
<rect width="733" height="1504" fill="white"/>
</clipPath>
<clipPath id="clip1_805_2527">
<rect width="733" height="1505" fill="white"/>
</clipPath>
</defs>
</svg>
