<svg width="627" height="1315" viewBox="0 0 627 1315" fill="none" xmlns="http://www.w3.org/2000/svg">
<path d="M1.2788e-05 780.267H627L627 1314.96H0L1.2788e-05 780.267Z" fill="#4673C9"/>
<path d="M0 0H627V1101.6C318.725 985.783 323.95 1231.36 0 1101.6V0Z" fill="#FF9A03"/>
<path d="M15.074 1100.78C15.074 1100.78 74.6793 1097.04 93.285 1106C93.285 1106 83.6492 1082.07 65.0007 1073.88C60.5244 1071.97 55.6497 1071.19 50.8016 1071.6C45.9536 1072.01 41.2795 1073.6 37.1869 1076.24C25.3819 1083.7 1.99195 1099.64 15.074 1100.78Z" fill="#0071F2"/>
<path d="M36.6614 1035.84C36.6614 1035.84 19.901 1047.78 47.2932 1064.95C47.2932 1064.95 86.6004 1088.09 95.5641 1090.33C95.5641 1090.33 86.6982 1045.54 56.1164 1035.85C56.092 1035.84 45.619 1030.62 36.6614 1035.84Z" fill="#0071F2"/>
<path d="M119.04 1146.13C118.957 1146.13 118.877 1146.1 118.811 1146.05C118.746 1146 118.7 1145.93 118.679 1145.85C113.18 1124.69 102.023 1101.96 101.913 1101.74C83.4537 1065.32 62.0617 1055.57 54.0145 1051.9C52.2731 1051.1 51.2222 1050.63 50.8372 1050.16C50.7999 1050.12 50.7706 1050.08 50.7512 1050.03C50.7318 1049.98 50.7228 1049.93 50.7247 1049.88C50.7267 1049.83 50.7395 1049.78 50.7624 1049.73C50.7853 1049.68 50.8178 1049.64 50.8577 1049.61C50.8976 1049.57 50.9441 1049.55 50.9942 1049.53C51.0443 1049.52 51.0968 1049.52 51.1485 1049.52C51.2001 1049.53 51.2496 1049.55 51.2939 1049.58C51.3382 1049.6 51.3762 1049.64 51.4055 1049.68C51.6865 1050.02 52.8475 1050.55 54.32 1051.22C62.4344 1054.89 83.9975 1064.75 102.591 1101.41C102.707 1101.65 113.907 1124.43 119.412 1145.67C119.437 1145.77 119.422 1145.87 119.371 1145.96C119.321 1146.04 119.239 1146.1 119.144 1146.13L119.04 1146.13Z" fill="#2F2E41"/>
<path opacity="0.2" d="M15.074 1100.78C15.074 1100.78 74.6793 1097.04 93.285 1106C93.285 1106 83.6492 1082.07 65.0007 1073.88C60.5244 1071.97 55.6497 1071.19 50.8016 1071.6C45.9536 1072.01 41.2795 1073.6 37.1869 1076.24C25.3819 1083.7 1.99195 1099.64 15.074 1100.78Z" fill="black"/>
<path d="M118.282 1146.13C118.201 1146.13 118.123 1146.1 118.059 1146.05C117.995 1146 117.949 1145.94 117.928 1145.86C113.919 1131.39 109.483 1125.27 109.44 1125.21C99.4869 1104.64 79.0726 1096.98 63.6931 1094.15C53.332 1092.3 42.7659 1091.89 32.2926 1092.93C32.1964 1092.94 32.1006 1092.91 32.0254 1092.85C31.9503 1092.79 31.9016 1092.7 31.8897 1092.6C31.8778 1092.51 31.9037 1092.41 31.9617 1092.33C32.0198 1092.26 32.1055 1092.2 32.2009 1092.19C42.7431 1091.14 53.3795 1091.55 63.8092 1093.41C79.3659 1096.26 100.018 1104.03 110.07 1124.82C110.223 1125.01 114.591 1131.03 118.624 1145.63C118.651 1145.73 118.638 1145.83 118.59 1145.91C118.542 1146 118.462 1146.06 118.368 1146.09L118.282 1146.13Z" fill="#2F2E41"/>
<path d="M45.9612 1092.4C45.88 1092.4 45.8009 1092.37 45.7352 1092.32C35.1583 1084.27 22.5774 1086.51 22.449 1086.54C22.3529 1086.55 22.2541 1086.53 22.1733 1086.48C22.0925 1086.42 22.0359 1086.34 22.0152 1086.24C21.9989 1086.15 22.0209 1086.05 22.0767 1085.96C22.1324 1085.88 22.2177 1085.82 22.3146 1085.8C22.4429 1085.8 35.3416 1083.47 46.1873 1091.73C46.2646 1091.79 46.3149 1091.88 46.3275 1091.98C46.3401 1092.07 46.3139 1092.17 46.2545 1092.25C46.2204 1092.29 46.1761 1092.33 46.1252 1092.36C46.0743 1092.38 46.0182 1092.4 45.9612 1092.4Z" fill="#2F2E41"/>
<path d="M61.4629 1093.77C61.3851 1093.77 61.309 1093.74 61.2455 1093.7C61.1819 1093.65 61.134 1093.59 61.1085 1093.52C55.4932 1076.89 37.9996 1076.24 37.8224 1076.24C37.7737 1076.24 37.7257 1076.23 37.6811 1076.21C37.6365 1076.19 37.5963 1076.16 37.5627 1076.12C37.5291 1076.09 37.5029 1076.05 37.4856 1076C37.4683 1075.95 37.4602 1075.91 37.4619 1075.86C37.4705 1075.76 37.5135 1075.67 37.5831 1075.6C37.6526 1075.54 37.7441 1075.5 37.8407 1075.49C38.024 1075.49 56.0309 1076.18 61.8173 1093.31C61.8465 1093.4 61.8379 1093.5 61.7934 1093.59C61.749 1093.68 61.672 1093.75 61.579 1093.78C61.5399 1093.78 61.5007 1093.78 61.4629 1093.77V1093.77Z" fill="#2F2E41"/>
<path d="M75.2659 1097.05C75.1832 1097.05 75.1028 1097.02 75.0375 1096.97C74.9722 1096.92 74.9258 1096.85 74.9054 1096.77C70.3227 1079.4 56.6908 1072.06 55.6032 1071.95C55.5111 1071.94 55.4287 1071.88 55.3724 1071.81C55.3161 1071.73 55.2899 1071.64 55.2992 1071.55C55.3084 1071.45 55.3524 1071.37 55.4223 1071.31C55.4922 1071.24 55.5829 1071.21 55.6765 1071.21C56.7763 1071.32 70.8543 1078.61 75.602 1096.6C75.6149 1096.65 75.6184 1096.7 75.6122 1096.75C75.606 1096.8 75.5902 1096.84 75.5658 1096.89C75.5414 1096.93 75.5088 1096.97 75.4699 1097C75.4311 1097.03 75.3866 1097.05 75.3392 1097.06L75.2659 1097.05Z" fill="#2F2E41"/>
<path d="M31.5961 1100.62C31.5264 1100.62 31.4581 1100.6 31.3988 1100.57C31.3395 1100.53 31.2915 1100.48 31.26 1100.41C31.2379 1100.37 31.2246 1100.32 31.221 1100.27C31.2173 1100.23 31.2233 1100.18 31.2386 1100.13C31.2539 1100.08 31.2783 1100.04 31.3103 1100C31.3422 1099.97 31.3812 1099.93 31.425 1099.91C31.5411 1099.86 43.23 1093.95 52.1998 1091.96C52.2953 1091.94 52.3949 1091.95 52.4772 1092.01C52.5594 1092.06 52.6178 1092.14 52.6397 1092.24C52.6514 1092.28 52.6534 1092.33 52.6455 1092.38C52.6376 1092.43 52.62 1092.48 52.5938 1092.52C52.5676 1092.56 52.5332 1092.6 52.4928 1092.63C52.4524 1092.65 52.4068 1092.67 52.3587 1092.68C43.4805 1094.66 31.8771 1100.52 31.7733 1100.58C31.7181 1100.61 31.6576 1100.62 31.5961 1100.62V1100.62Z" fill="#2F2E41"/>
<path d="M52.2609 1100.62C52.1936 1100.62 52.1277 1100.6 52.0698 1100.57C52.0119 1100.53 51.9641 1100.49 51.9309 1100.43C51.8846 1100.34 51.874 1100.24 51.9014 1100.14C51.9288 1100.05 51.992 1099.97 52.0776 1099.92C52.487 1099.69 62.2206 1094.36 69.9623 1094.77C70.0147 1094.76 70.0672 1094.77 70.1163 1094.79C70.1654 1094.81 70.2099 1094.84 70.2471 1094.87C70.2842 1094.91 70.313 1094.96 70.3317 1095.01C70.3504 1095.05 70.3585 1095.11 70.3555 1095.16C70.3524 1095.21 70.3383 1095.26 70.3141 1095.31C70.2899 1095.36 70.2561 1095.4 70.2149 1095.43C70.1738 1095.46 70.1262 1095.49 70.0753 1095.5C70.0243 1095.51 69.9713 1095.51 69.9195 1095.51C62.41 1095.1 52.542 1100.52 52.4381 1100.57C52.3841 1100.61 52.3232 1100.62 52.2609 1100.62V1100.62Z" fill="#2F2E41"/>
<path d="M64.4508 1057.36C64.3566 1057.36 64.2653 1057.33 64.1959 1057.26C64.1265 1057.2 64.0843 1057.11 64.078 1057.02C63.5465 1050.01 55.4626 1040.49 55.3832 1040.4C55.3184 1040.33 55.2859 1040.23 55.2928 1040.13C55.2996 1040.03 55.3453 1039.94 55.4198 1039.88C55.4571 1039.85 55.5003 1039.82 55.5469 1039.81C55.5935 1039.79 55.6426 1039.79 55.6914 1039.79C55.7402 1039.79 55.7878 1039.81 55.8313 1039.83C55.8749 1039.85 55.9136 1039.88 55.9453 1039.92C56.2875 1040.31 64.2736 1049.71 64.8174 1056.96C64.8215 1057.01 64.816 1057.06 64.8009 1057.11C64.7859 1057.15 64.7617 1057.2 64.7299 1057.23C64.698 1057.27 64.659 1057.3 64.6153 1057.32C64.5716 1057.34 64.5239 1057.36 64.4752 1057.36H64.4508Z" fill="#2F2E41"/>
<path d="M76.0297 1066.17C75.9404 1066.17 75.8538 1066.14 75.7863 1066.08C75.7188 1066.03 75.675 1065.94 75.6631 1065.86C74.6099 1059.07 72.4048 1052.52 69.1434 1046.48C69.1007 1046.44 69.0676 1046.39 69.0469 1046.33C69.0261 1046.28 69.0181 1046.22 69.0237 1046.16C69.0292 1046.11 69.0481 1046.05 69.0788 1046C69.1095 1045.95 69.1512 1045.91 69.2006 1045.88C69.25 1045.85 69.3057 1045.83 69.3633 1045.83C69.421 1045.82 69.479 1045.83 69.5327 1045.85C69.5864 1045.87 69.6345 1045.91 69.6729 1045.95C69.7114 1046 69.7393 1046.05 69.7545 1046.1C73.0695 1052.22 75.3099 1058.87 76.378 1065.75C76.392 1065.85 76.3672 1065.95 76.3088 1066.03C76.2505 1066.11 76.1633 1066.16 76.0663 1066.17H76.0297Z" fill="#2F2E41"/>
<path d="M73.8239 1064.24C73.7621 1064.24 73.7011 1064.23 73.6467 1064.2C66.3144 1060.23 52.4564 1062.27 52.3158 1062.29C52.2672 1062.3 52.2174 1062.3 52.1696 1062.29C52.1218 1062.27 52.0769 1062.25 52.0375 1062.22C51.9981 1062.19 51.9652 1062.16 51.9406 1062.11C51.9159 1062.07 51.9002 1062.02 51.8942 1061.97C51.8855 1061.93 51.8868 1061.88 51.898 1061.83C51.9092 1061.78 51.93 1061.74 51.9591 1061.7C51.9883 1061.66 52.0253 1061.62 52.0677 1061.6C52.1101 1061.57 52.1571 1061.56 52.2058 1061.55C52.7802 1061.47 66.4183 1059.46 74.0011 1063.54C74.0446 1063.56 74.0831 1063.59 74.1143 1063.63C74.1456 1063.67 74.169 1063.71 74.1832 1063.76C74.1974 1063.8 74.2021 1063.85 74.1971 1063.9C74.192 1063.95 74.1773 1064 74.1538 1064.04C74.1212 1064.1 74.0734 1064.15 74.0154 1064.19C73.9574 1064.22 73.8913 1064.24 73.8239 1064.24V1064.24Z" fill="#2F2E41"/>
<path d="M86.2766 1077.02C86.1854 1077.02 86.0977 1076.99 86.0321 1076.92C78.4616 1070.15 64.5974 1070.43 64.4569 1070.43C64.358 1070.43 64.2632 1070.39 64.1933 1070.32C64.1234 1070.25 64.0842 1070.16 64.0842 1070.06C64.0842 1069.96 64.1234 1069.87 64.1933 1069.8C64.2632 1069.73 64.358 1069.69 64.4569 1069.69C65.0679 1069.69 78.7549 1069.39 86.5454 1076.37C86.6148 1076.44 86.6538 1076.54 86.6538 1076.63C86.6538 1076.73 86.6148 1076.83 86.5454 1076.9C86.5108 1076.93 86.4693 1076.96 86.4232 1076.99C86.377 1077.01 86.3272 1077.02 86.2766 1077.02V1077.02Z" fill="#2F2E41"/>
<path d="M60.0575 1054.59H60.0086C52.2181 1053.58 38.7756 1054.59 38.6228 1054.59C38.5249 1054.6 38.4283 1054.57 38.3539 1054.5C38.2795 1054.44 38.2335 1054.35 38.2256 1054.25C38.2215 1054.2 38.2271 1054.15 38.2421 1054.11C38.2571 1054.06 38.2813 1054.02 38.3132 1053.98C38.345 1053.94 38.384 1053.91 38.4277 1053.89C38.4714 1053.87 38.5191 1053.86 38.5678 1053.85C38.7022 1053.85 52.2303 1052.84 60.0942 1053.85C60.1845 1053.87 60.2658 1053.92 60.3224 1053.99C60.379 1054.06 60.4069 1054.15 60.4009 1054.24C60.3948 1054.34 60.3552 1054.42 60.2896 1054.49C60.224 1054.55 60.137 1054.59 60.0453 1054.59H60.0575Z" fill="#2F2E41"/>
<path d="M155.145 1053.75C155.145 1053.75 144.086 1077.75 123.323 1078.98C122.303 1079.04 121.293 1078.77 120.431 1078.22C119.57 1077.67 118.9 1076.87 118.514 1075.92C117.041 1072.38 115.971 1068.69 115.325 1064.91C113.199 1052.85 115.421 1040.43 121.594 1029.87C121.594 1029.87 129.201 1016.36 140.413 1008.93C145.185 1005.77 150.605 1003.71 156.373 1004.26C156.932 1004.31 157.467 1004.51 157.928 1004.83C158.389 1005.16 158.76 1005.59 159.007 1006.1C161.377 1010.85 166.706 1026.33 155.145 1053.75Z" fill="#0071F2"/>
<path opacity="0.2" d="M140.438 1008.91C140.438 1008.91 138.831 1035.84 115.325 1064.92C113.194 1052.86 115.416 1040.44 121.594 1029.87C121.594 1029.87 129.225 1016.36 140.438 1008.91Z" fill="black"/>
<path d="M122.651 1146.05C122.576 1146.05 122.503 1146.02 122.441 1145.98C122.379 1145.94 122.331 1145.88 122.303 1145.81C120.781 1141.81 118.154 1123.77 117.097 1116.19C116.719 1113.52 116.574 1110.82 116.663 1108.13C118.465 1054.02 144.904 1020.27 145.167 1019.94C145.197 1019.9 145.235 1019.86 145.278 1019.84C145.321 1019.82 145.368 1019.8 145.417 1019.79C145.466 1019.79 145.515 1019.79 145.563 1019.81C145.61 1019.82 145.654 1019.84 145.693 1019.87C145.769 1019.94 145.819 1020.03 145.83 1020.12C145.841 1020.22 145.814 1020.32 145.754 1020.4C145.485 1020.73 119.199 1054.3 117.408 1108.15C117.319 1110.81 117.462 1113.47 117.836 1116.11C118.887 1123.66 121.502 1141.63 122.999 1145.56C123.017 1145.61 123.025 1145.66 123.024 1145.71C123.023 1145.76 123.012 1145.8 122.992 1145.85C122.972 1145.89 122.944 1145.94 122.908 1145.97C122.873 1146 122.831 1146.03 122.785 1146.05C122.741 1146.05 122.695 1146.05 122.651 1146.05V1146.05Z" fill="#2F2E41"/>
<path d="M131.706 1044.54C131.615 1044.54 131.527 1044.51 131.462 1044.44C131.425 1044.41 131.394 1044.37 131.373 1044.33C131.351 1044.28 131.338 1044.24 131.335 1044.19C131.332 1044.14 131.34 1044.09 131.356 1044.04C131.372 1044 131.398 1043.95 131.431 1043.92C131.541 1043.8 142.43 1031.74 154.4 1031.74C154.449 1031.74 154.497 1031.75 154.542 1031.77C154.587 1031.78 154.629 1031.81 154.663 1031.85C154.698 1031.88 154.725 1031.92 154.744 1031.97C154.763 1032.01 154.772 1032.06 154.772 1032.11C154.772 1032.16 154.763 1032.21 154.744 1032.25C154.725 1032.3 154.698 1032.34 154.663 1032.37C154.629 1032.41 154.587 1032.44 154.542 1032.45C154.497 1032.47 154.449 1032.48 154.4 1032.48C142.79 1032.48 132.091 1044.3 131.987 1044.42C131.951 1044.46 131.908 1044.49 131.859 1044.51C131.811 1044.53 131.759 1044.54 131.706 1044.54V1044.54Z" fill="#2F2E41"/>
<path d="M124.038 1065.32C123.966 1065.32 123.896 1065.3 123.836 1065.26C123.754 1065.21 123.696 1065.12 123.676 1065.03C123.655 1064.93 123.673 1064.83 123.726 1064.75C123.836 1064.58 134.627 1048.15 150.526 1049.65C150.624 1049.66 150.714 1049.7 150.777 1049.78C150.84 1049.86 150.87 1049.95 150.862 1050.05C150.858 1050.1 150.844 1050.15 150.821 1050.19C150.799 1050.24 150.767 1050.28 150.729 1050.31C150.691 1050.34 150.646 1050.36 150.599 1050.38C150.551 1050.39 150.502 1050.39 150.452 1050.39C135.006 1048.93 124.459 1064.99 124.349 1065.15C124.316 1065.2 124.27 1065.25 124.216 1065.28C124.161 1065.31 124.1 1065.32 124.038 1065.32V1065.32Z" fill="#2F2E41"/>
<path d="M133.313 1087.03C133.313 1087.03 142.479 1064.15 158.518 1059.7C158.518 1059.7 170.592 1057.14 179.262 1060.67C179.262 1060.67 188.067 1064.34 186.509 1070.61C186.509 1070.61 186.442 1086.59 161.109 1085.1C161.109 1085.1 142.772 1083.73 133.313 1087.03Z" fill="#0071F2"/>
<path d="M174.142 1079.14C174.142 1079.1 172.125 1074.72 167.879 1074.51L167.915 1073.76C172.626 1074 174.741 1078.66 174.826 1078.84L174.142 1079.14Z" fill="#2F2E41"/>
<path d="M121.594 1145.04C121.551 1142.99 120.671 1094.53 137.731 1081.84C138.409 1081.08 147.691 1071.36 178.254 1074.28L178.187 1075.02C147.44 1072.09 138.354 1082.25 138.269 1082.37L138.207 1082.42C121.423 1094.86 122.321 1144.54 122.321 1145.04L121.594 1145.04Z" fill="#2F2E41"/>
<path d="M150.813 1076.78L150.11 1076.52C152.903 1068.73 164.231 1064.76 164.714 1064.59L164.952 1065.3C164.842 1065.34 153.483 1069.33 150.813 1076.78Z" fill="#2F2E41"/>
<path d="M163.052 1074.4L162.538 1073.86C169.449 1067.34 175.126 1066.51 175.37 1066.51L175.468 1067.25C175.407 1067.23 169.773 1068.05 163.052 1074.4Z" fill="#2F2E41"/>
<path d="M155.548 1083.75C152.725 1076.68 144.416 1078.65 144.061 1078.75L143.878 1078.02C143.969 1078.02 153.171 1075.79 156.239 1083.47L155.548 1083.75Z" fill="#2F2E41"/>
<path d="M167.567 1083.02C167.518 1082.95 162.483 1075.32 156.721 1075.53L156.691 1074.79C162.801 1074.54 167.977 1082.29 168.19 1082.62L167.567 1083.02Z" fill="#2F2E41"/>
<path d="M129.158 1145.8C129.158 1145.55 126.519 1120.6 147.165 1115.72L147.336 1116.45C127.337 1121.17 129.867 1145.47 129.898 1145.72L129.158 1145.8Z" fill="#2F2E41"/>
<path d="M106.116 1066.85C106.116 1066.85 93.4622 1069.42 78.4799 1039.2C78.4799 1039.2 57.5401 1005.99 72.443 977.62C72.443 977.62 82.8731 951.496 102.249 954.483C102.249 954.483 126.928 963.022 132.922 995.794C134.754 1005.92 134.418 1016.31 131.939 1026.3C129.459 1036.28 124.892 1045.62 118.539 1053.7C114.809 1058.46 110.651 1062.86 106.116 1066.85Z" fill="#0071F2"/>
<path d="M121.08 1146.13C121.004 1146.13 120.93 1146.11 120.867 1146.07C120.805 1146.02 120.758 1145.96 120.732 1145.89C112.08 1122.44 106.404 1081.09 106.349 1080.67C101.925 1054.79 100.238 969.088 100.238 968.225C100.238 968.176 100.246 968.127 100.264 968.081C100.282 968.036 100.309 967.994 100.343 967.959C100.377 967.924 100.418 967.895 100.463 967.876C100.508 967.856 100.556 967.846 100.605 967.845C100.654 967.842 100.703 967.849 100.75 967.865C100.796 967.882 100.838 967.908 100.874 967.942C100.91 967.976 100.938 968.017 100.957 968.063C100.976 968.108 100.985 968.157 100.984 968.206C100.984 969.069 102.683 1054.73 107.094 1080.56C107.155 1080.99 112.819 1122.25 121.441 1145.63C121.475 1145.72 121.47 1145.83 121.429 1145.91C121.388 1146 121.313 1146.07 121.221 1146.11C121.177 1146.13 121.129 1146.14 121.08 1146.13V1146.13Z" fill="#2F2E41"/>
<path d="M100.758 986.202C100.682 986.203 100.608 986.181 100.546 986.138C100.484 986.095 100.436 986.034 100.41 985.963C93.1811 966.419 83.9547 968.555 83.863 968.58C83.7674 968.604 83.6662 968.589 83.5814 968.538C83.4967 968.488 83.4353 968.406 83.4108 968.31C83.3971 968.263 83.393 968.214 83.3989 968.165C83.4048 968.117 83.4205 968.07 83.4451 968.027C83.4697 967.985 83.5026 967.948 83.5419 967.919C83.5812 967.89 83.626 967.869 83.6736 967.857C84.0708 967.747 93.2728 965.55 100.684 984.592C101.705 980.852 105.438 969.4 113.259 967.851C113.309 967.835 113.362 967.83 113.415 967.836C113.467 967.843 113.517 967.86 113.562 967.887C113.607 967.913 113.646 967.95 113.676 967.993C113.707 968.036 113.727 968.085 113.737 968.136C113.747 968.188 113.746 968.241 113.734 968.293C113.722 968.344 113.7 968.392 113.668 968.434C113.636 968.476 113.596 968.51 113.549 968.535C113.503 968.56 113.452 968.576 113.4 968.58C104.711 970.306 101.179 985.755 101.118 985.914C101.1 985.992 101.058 986.062 100.997 986.114C100.937 986.165 100.862 986.196 100.782 986.202H100.758Z" fill="#2F2E41"/>
<path d="M102.334 1023.6C102.261 1023.6 102.19 1023.57 102.129 1023.53C102.068 1023.49 102.021 1023.44 101.992 1023.37L98.326 1014.77C95.4242 1007.83 91.1175 1001.56 85.6778 996.375C82.6232 993.481 79.3708 990.804 75.9442 988.363C75.9035 988.335 75.8688 988.3 75.8419 988.259C75.8149 988.217 75.7964 988.171 75.7873 988.123C75.7782 988.075 75.7788 988.025 75.7889 987.977C75.7991 987.929 75.8186 987.883 75.8464 987.843C75.8734 987.802 75.9082 987.767 75.9488 987.74C75.9893 987.714 76.0348 987.695 76.0826 987.686C76.1303 987.677 76.1794 987.677 76.227 987.687C76.2746 987.697 76.3197 987.717 76.3597 987.745C79.822 990.203 83.1053 992.905 86.1849 995.83C91.7016 1001.09 96.0706 1007.44 99.0164 1014.48L102.163 1021.91C108.273 987.316 128.064 984.721 128.266 984.696C128.316 984.687 128.368 984.689 128.418 984.7C128.468 984.712 128.515 984.734 128.555 984.765C128.596 984.796 128.631 984.835 128.656 984.879C128.681 984.924 128.697 984.973 128.703 985.024C128.708 985.075 128.703 985.126 128.688 985.175C128.672 985.224 128.647 985.269 128.614 985.308C128.58 985.347 128.539 985.378 128.493 985.401C128.447 985.423 128.397 985.435 128.346 985.437C128.15 985.437 108.438 988.1 102.683 1023.28C102.669 1023.36 102.63 1023.44 102.572 1023.49C102.514 1023.55 102.439 1023.58 102.359 1023.6H102.334Z" fill="#2F2E41"/>
<path d="M103.452 1045.66C103.364 1045.66 103.279 1045.63 103.212 1045.57C103.145 1045.52 103.1 1045.44 103.086 1045.35C99.1569 1023.17 70.3716 1012.41 70.0905 1012.3C69.9969 1012.26 69.9206 1012.19 69.8782 1012.1C69.8359 1012.01 69.8309 1011.91 69.8644 1011.81C69.8988 1011.72 69.9682 1011.65 70.0575 1011.6C70.1467 1011.56 70.2487 1011.56 70.3411 1011.59C70.6282 1011.7 98.3259 1022.05 103.465 1043.48C104.888 1037.64 110.968 1018.59 131.077 1008.59C131.165 1008.54 131.267 1008.54 131.359 1008.57C131.452 1008.6 131.528 1008.67 131.572 1008.76C131.594 1008.8 131.607 1008.85 131.611 1008.9C131.614 1008.95 131.608 1009 131.593 1009.04C131.578 1009.09 131.553 1009.13 131.521 1009.17C131.49 1009.21 131.451 1009.24 131.407 1009.26C107.937 1020.94 103.862 1045.09 103.825 1045.34C103.81 1045.42 103.765 1045.5 103.698 1045.56C103.631 1045.62 103.547 1045.65 103.459 1045.66L103.452 1045.66Z" fill="#2F2E41"/>
<path d="M56.9291 1118.88C56.9291 1118.88 79.8975 1104.46 93.3033 1118.67C93.3033 1118.67 100.782 1124.99 107.1 1141.25C107.1 1141.25 79.9708 1136.71 68.3858 1126.56C64.9793 1123.43 61.1159 1120.84 56.9291 1118.88V1118.88Z" fill="#0071F2"/>
<path opacity="0.2" d="M56.9291 1118.88C56.9291 1118.88 79.8975 1104.46 93.3033 1118.67C93.3033 1118.67 100.782 1124.99 107.1 1141.25C107.1 1141.25 79.9708 1136.71 68.3858 1126.56C64.9793 1123.43 61.1159 1120.84 56.9291 1118.88V1118.88Z" fill="black"/>
<path d="M56.9291 1118.88C56.9291 1118.88 29.9768 1103.78 21.0375 1132.12C21.0375 1132.12 18.9662 1141.44 21.7219 1146.28C22.2312 1147.15 23.0124 1147.83 23.9452 1148.22C24.8781 1148.6 25.911 1148.67 26.885 1148.4C29.9402 1147.64 35.2927 1144.8 42.6678 1135.11C42.6433 1135.11 52.5908 1121.31 56.9291 1118.88Z" fill="#0071F2"/>
<path d="M24.3432 1141.62C24.3006 1141.63 24.2574 1141.63 24.2149 1141.62C24.1226 1141.59 24.0474 1141.52 24.0052 1141.43C23.963 1141.34 23.9571 1141.24 23.9888 1141.14C24.0804 1140.9 33.2397 1116.48 56.9841 1118.53C57.0361 1118.53 57.0877 1118.54 57.1356 1118.56C57.1835 1118.58 57.2266 1118.61 57.2621 1118.65C57.2977 1118.69 57.3249 1118.73 57.342 1118.78C57.3591 1118.83 57.3657 1118.89 57.3614 1118.94C57.3571 1118.99 57.342 1119.04 57.3171 1119.09C57.2921 1119.13 57.2579 1119.17 57.2166 1119.2C57.1753 1119.23 57.1279 1119.26 57.0773 1119.27C57.0267 1119.28 56.9742 1119.28 56.923 1119.27C33.7468 1117.25 24.777 1141.12 24.6915 1141.38C24.6653 1141.45 24.6179 1141.51 24.5556 1141.55C24.4934 1141.6 24.4192 1141.62 24.3432 1141.62V1141.62Z" fill="#2F2E41"/>
<path d="M169.895 1159.55C169.895 1159.55 149.933 1023.9 235.617 1000.76C235.617 1000.76 256.972 990.64 307.883 1013.45C314.714 1016.51 320.555 1024.89 324.466 1031.28C328.774 1038.33 334.041 1049.07 337.853 1063.83C337.853 1063.83 351.296 1099.16 356.422 1148.11L169.895 1159.55Z" fill="#B3B3B3"/>
<path opacity="0.2" d="M188.672 1133.62C181.248 1116.82 195.302 1063.84 195.302 1063.84C198.204 1039.58 240.395 1036.29 240.395 1036.29C250.391 1036.75 256.85 1027.18 256.85 1027.18C247.538 1008.82 257.76 998.518 257.76 998.518L295.735 993.241L310.522 1009.3L230.026 1131.39L188.672 1133.62Z" fill="black"/>
<path d="M456.258 1183.62L452.903 1189.48C452.765 1189.71 452.724 1189.99 452.787 1190.26C452.851 1190.53 453.015 1190.76 453.245 1190.91L453.771 1191.26C453.986 1191.4 454.243 1191.46 454.497 1191.42C454.751 1191.39 454.985 1191.27 455.158 1191.08L459.863 1185.88L456.129 1182.2L456.258 1183.62Z" fill="#2F2E41"/>
<path d="M488.398 1184.37L491.752 1190.21C491.89 1190.45 491.932 1190.73 491.868 1191C491.804 1191.26 491.64 1191.49 491.41 1191.64L490.884 1191.99C490.671 1192.13 490.414 1192.19 490.161 1192.16C489.908 1192.12 489.675 1192 489.503 1191.81L484.799 1186.61L488.526 1182.94L488.398 1184.37Z" fill="#2F2E41"/>
<path d="M310.51 1181.73L307.027 1171.98L316.492 1169.25L338.758 1166.97L383.436 1173.79L398.412 1189.97L310.51 1181.73Z" fill="white"/>
<path d="M403.349 1173.79H383.436L338.758 1166.97L322.413 1155.63L361.909 1153.84L403.349 1173.79Z" fill="#E6E6E6"/>
<path d="M139.13 1198.93L513.15 1195.94L437.896 1149.66L72.1986 1145.03L139.13 1198.93Z" fill="#999999"/>
<path d="M316.51 1169.28L349.86 1165.87C349.964 1165.86 350.061 1165.82 350.136 1165.75C350.211 1165.67 350.259 1165.58 350.271 1165.47C350.283 1165.37 350.259 1165.27 350.203 1165.18C350.147 1165.09 350.063 1165.02 349.964 1164.99L304.54 1149.38L272.156 1154.54L316.51 1169.28Z" fill="#CCCCCC"/>
<path d="M139.13 1198.93L136.894 1217.58L69.9806 1162.24L72.1986 1145.03L139.13 1198.93Z" fill="#666666"/>
<path d="M252.005 1038.82C252.005 1038.82 227.13 1046.95 224.295 1050.72L216.223 1098.74C215.256 1104.46 215.919 1110.33 218.136 1115.68L233.729 1153.15L294.452 1143.32C300.015 1136.07 303.839 1127.65 305.628 1118.69C305.628 1118.69 305.628 1085.1 320.525 1064.95C320.525 1064.95 318.227 1057.89 292.925 1051.34L252.005 1038.82Z" fill="#0071F2"/>
<path d="M224.57 1050.78C223.26 1049.86 221.672 1049.43 220.079 1049.55C215.148 1050 203.734 1054.39 197.99 1077.99C197.99 1077.99 189.79 1112.32 198.736 1119.03L233.008 1127.25C233.008 1127.25 224.808 1125.01 227.044 1109.33C227.044 1109.36 240.517 1061.75 224.57 1050.78Z" fill="#0071F2"/>
<path opacity="0.2" d="M224.246 1050.53C223.076 1049.78 221.699 1049.44 220.317 1049.54C215.514 1049.89 203.819 1054.03 198.008 1077.99C198.008 1077.99 189.808 1112.32 198.754 1119.03L233.026 1127.25C233.026 1127.25 224.826 1125.01 227.063 1109.33C227.044 1109.36 240.743 1061.07 224.246 1050.53Z" fill="black"/>
<path d="M292.467 1152.75L288.189 1138.74L280.448 1137.86L272.504 1132.51C268.038 1130.27 264.665 1131.5 264.665 1131.5L256.196 1133.33C250.318 1134.13 249.408 1146.29 249.408 1146.29L250.899 1146.71C250.899 1146.71 264.433 1139.62 267.353 1142.05L273.983 1146.63C273.983 1146.63 276.024 1147.36 276.494 1150.37C276.494 1150.37 280.985 1156.5 285.929 1154.5C286.621 1154.21 287.333 1153.98 288.061 1153.81L292.467 1152.75Z" fill="#F9B499"/>
<path d="M278.016 1152.4C277.944 1152.4 277.875 1152.38 277.814 1152.34C277.772 1152.31 277.736 1152.28 277.707 1152.24C277.679 1152.2 277.659 1152.15 277.648 1152.11C277.638 1152.06 277.638 1152.01 277.647 1151.96C277.657 1151.91 277.676 1151.87 277.704 1151.83L281.15 1146.48C281.211 1146.41 281.291 1146.37 281.377 1146.36C281.464 1146.36 281.55 1146.38 281.623 1146.42C281.695 1146.47 281.748 1146.54 281.774 1146.63C281.799 1146.71 281.795 1146.8 281.761 1146.88L278.309 1152.23C278.277 1152.28 278.234 1152.32 278.183 1152.35C278.132 1152.38 278.075 1152.4 278.016 1152.4Z" fill="#F7A48B"/>
<g opacity="0.2">
<path d="M248.52 1044.09L229.888 1050.79L230.14 1051.5L248.772 1044.79L248.52 1044.09Z" fill="black"/>
</g>
<g opacity="0.2">
<path d="M316.278 1063.35C311.219 1059.67 291.385 1054.87 291.19 1054.82L291.361 1054.1C292.179 1054.29 311.524 1058.99 316.712 1062.74L316.278 1063.35Z" fill="black"/>
</g>
<path d="M263.81 1171.8L271.698 1174.36L316.492 1169.25L276.189 1155.8L267.311 1146.68L257.76 1153.24L251.632 1164.59L263.81 1171.8Z" fill="#E6E6E6"/>
<path d="M271.698 1174.36L248.277 1165.63V1171.74L271.698 1178.32V1174.36Z" fill="#2F2E41"/>
<path d="M136.894 1217.58L513.15 1209.93V1195.94L139.13 1198.93L136.894 1217.58Z" fill="#808080"/>
<path d="M448.149 1166.11L453.459 1166.37" stroke="#FF0000" stroke-width="0.25" stroke-miterlimit="10"/>
<path d="M149.188 1112.72C149.188 1112.72 156.275 1107.21 168.74 1104.76L168.007 1117.61C168.007 1117.61 158.127 1112.72 149.188 1112.72Z" fill="#0071F2"/>
<path d="M286.46 1053.07C286.362 1065.13 283.173 1070.05 280.185 1072.05C278.674 1073.08 276.824 1073.48 275.022 1073.18C253.697 1070.57 251.638 1039.22 251.638 1039.22L263.168 1027.23C261.109 1038.72 264.671 1049.26 272.816 1053.05C277.008 1054.98 281.786 1054.87 286.46 1053.07Z" fill="#F9B499"/>
<path d="M286.46 1053.07C286.362 1065.13 283.173 1070.05 280.185 1072.05L266.981 1057.62C257.162 1046.37 262.966 1027.86 263.168 1027.23C261.109 1038.72 264.671 1049.26 272.816 1053.05C277.008 1054.98 281.786 1054.87 286.46 1053.07Z" fill="#F7A48B"/>
<path d="M304.443 1034.91C300.263 1043.87 293.481 1050.37 286.46 1053.07C281.786 1054.87 277.008 1054.98 272.816 1053.01C264.671 1049.2 261.109 1038.68 263.168 1027.19C263.802 1023.7 264.886 1020.3 266.394 1017.09C273.354 1002.17 287.517 994.062 298.021 998.983C308.524 1003.9 311.402 1019.98 304.443 1034.91Z" fill="#F9B499"/>
<path d="M270.262 1011.58C270.262 1011.91 270.262 1012.23 270.213 1012.55C269.859 1017.05 267.011 1020.51 263.553 1020.51C259.85 1020.51 256.832 1016.5 256.832 1011.55C256.832 1008.14 258.255 1005.18 260.351 1003.67C261.27 1002.98 262.386 1002.6 263.535 1002.59C267.256 1002.62 270.262 1006.63 270.262 1011.58Z" fill="#F9B499"/>
<path d="M326.14 1007.85C326.14 1007.85 334.334 1016.06 322.413 1024.27C322.413 1024.27 319.816 1038.54 305.463 1032.53C305.463 1032.53 303.526 1031.47 305.897 1026C305.897 1026 284.548 1029.06 294.526 1005.03C294.226 1005.45 284.206 1019.29 270.262 1018.06C270.262 1018.06 280.857 1014.57 283.008 1011.58C283.008 1011.58 275.474 1013.6 270.262 1012.59L270.213 1012.55C270.213 1012.23 270.262 1011.91 270.262 1011.58C270.262 1006.63 267.256 1002.62 263.541 1002.62C262.392 1002.63 261.276 1003.01 260.357 1003.7C260.357 1003.7 256.08 983.221 286.631 975.754C286.631 975.754 280.442 968.408 285.409 961.277C285.409 961.277 288.128 955.603 298.558 958.59C298.558 958.59 312.716 951.122 312.716 966.798C312.716 966.798 320.91 965.305 319.437 974.26C319.437 974.26 325.401 977.247 317.952 983.221C317.952 983.221 325.444 984.831 321.698 992.611C321.692 992.611 334.334 998.144 326.14 1007.85Z" fill="#2F2E41"/>
<path d="M305.414 989.238C304.782 989.239 304.151 989.192 303.526 989.097C298.565 988.363 294.275 984.684 290.792 978.171C290.792 978.171 290.609 977.878 290.285 977.418C289.503 977.161 288.819 976.929 288.263 976.733C287.125 976.341 285.956 976.048 284.768 975.858C276.336 974.468 273.83 971.842 273.244 969.822C273.122 969.39 273.104 968.934 273.19 968.493C273.276 968.052 273.464 967.637 273.739 967.282C274.03 966.891 274.406 966.572 274.839 966.349C275.273 966.126 275.751 966.006 276.238 965.997H276.372C282.715 965.997 288.8 973.905 290.792 976.77C296.438 978.606 307.29 981.807 318.007 982.829L318.796 982.903L318.24 983.466C317.952 983.735 312.374 989.238 305.414 989.238ZM291.458 977.792C294.843 984.109 298.937 987.653 303.679 988.357C309.789 989.263 315.331 985.051 317.121 983.503C307.101 982.456 297.153 979.634 291.458 977.792ZM276.366 966.774H276.244C275.871 966.781 275.505 966.874 275.174 967.045C274.842 967.215 274.554 967.46 274.331 967.759C274.134 968.023 273.999 968.328 273.939 968.652C273.878 968.976 273.894 969.309 273.983 969.626C274.545 971.573 277.215 974.156 286.723 975.399H286.808C286.845 975.399 287.847 975.796 289.57 976.378C287.181 973.17 281.737 966.762 276.342 966.762L276.366 966.774Z" fill="#0071F2"/>
<path d="M288.599 976.457L284.413 992.923L281.438 992.176L285.018 981.673L275.016 1000.18L271.753 997.404L285.531 975.38L288.599 976.457Z" fill="#0071F2"/>
<path d="M287.395 1136.22L293.359 1155.63L342.002 1152.02C342.002 1152.02 348.491 1147.42 344.019 1133.98L320.549 1064.95C320.549 1064.95 304.534 1082.49 304.534 1117.59L319.431 1129.97L287.395 1136.22Z" fill="#0071F2"/>
<path opacity="0.2" d="M304.534 1117.57C304.082 1104.71 307.644 1090.98 316.492 1081.32C315.814 1082.28 315.038 1083.32 314.347 1084.27C307.895 1094.07 305.054 1105.92 304.534 1117.57V1117.57Z" fill="black"/>
<path d="M254.033 1145.4C253.989 1145.41 253.943 1145.41 253.899 1145.4C253.807 1145.37 253.733 1145.3 253.692 1145.21C253.651 1145.12 253.647 1145.01 253.679 1144.92C254.772 1142.25 256.244 1139.76 258.048 1137.51C258.078 1137.47 258.116 1137.44 258.159 1137.41C258.202 1137.39 258.249 1137.37 258.298 1137.37C258.346 1137.36 258.396 1137.37 258.443 1137.38C258.491 1137.39 258.535 1137.42 258.573 1137.45C258.649 1137.51 258.697 1137.6 258.707 1137.7C258.718 1137.8 258.689 1137.9 258.628 1137.97C256.877 1140.16 255.447 1142.59 254.381 1145.18C254.351 1145.25 254.302 1145.31 254.24 1145.35C254.178 1145.38 254.106 1145.41 254.033 1145.4V1145.4Z" fill="#F7A48B"/>
<path d="M265.294 1141.73C265.268 1141.74 265.241 1141.74 265.215 1141.73C265.167 1141.72 265.121 1141.7 265.081 1141.67C265.04 1141.65 265.006 1141.61 264.98 1141.57C264.954 1141.53 264.936 1141.48 264.928 1141.43C264.92 1141.38 264.922 1141.33 264.934 1141.28C265.694 1138.57 267.11 1136.09 269.058 1134.06C269.091 1134.02 269.131 1133.99 269.177 1133.97C269.223 1133.94 269.273 1133.93 269.324 1133.93C269.375 1133.92 269.426 1133.93 269.474 1133.95C269.523 1133.97 269.567 1133.99 269.604 1134.03C269.641 1134.06 269.67 1134.11 269.69 1134.15C269.71 1134.2 269.72 1134.25 269.719 1134.3C269.718 1134.36 269.707 1134.41 269.686 1134.45C269.665 1134.5 269.634 1134.54 269.596 1134.58C267.751 1136.52 266.401 1138.88 265.661 1141.46C265.638 1141.54 265.59 1141.61 265.524 1141.66C265.458 1141.71 265.377 1141.73 265.294 1141.73V1141.73Z" fill="#F7A48B"/>
<path d="M271.698 1145.4C271.636 1145.4 271.575 1145.39 271.521 1145.36C271.434 1145.31 271.37 1145.24 271.341 1145.14C271.313 1145.05 271.322 1144.95 271.368 1144.86L274.686 1138.55C274.738 1138.47 274.815 1138.42 274.904 1138.4C274.993 1138.38 275.087 1138.39 275.168 1138.43C275.249 1138.47 275.311 1138.55 275.343 1138.63C275.374 1138.72 275.373 1138.81 275.34 1138.9L272.028 1145.21C271.996 1145.27 271.949 1145.32 271.89 1145.35C271.832 1145.39 271.766 1145.41 271.698 1145.4V1145.4Z" fill="#F7A48B"/>
<path d="M243.12 1144.44L250.886 1146.68C250.886 1146.68 259.85 1141.63 264.665 1141.26C265.617 1141.2 266.562 1141.46 267.341 1142.01L274.57 1147.03C275.119 1147.4 275.578 1147.9 275.911 1148.48C276.244 1149.06 276.443 1149.7 276.494 1150.37C276.636 1151.89 276.543 1153.42 276.219 1154.9C276.219 1154.9 276.219 1160.86 273.983 1160.86C273.983 1160.86 273.048 1165.93 269.046 1165.63C268.311 1166.89 267.157 1167.84 265.789 1168.32C265.789 1168.32 265.789 1173.22 259.838 1172.26C259.838 1172.26 242.693 1166.83 238.965 1161.61L239.711 1145.93L243.12 1144.44Z" fill="#F7A48B"/>
<path d="M273.983 1161.23C273.932 1161.23 273.882 1161.22 273.836 1161.2C273.79 1161.18 273.748 1161.15 273.714 1161.11L264.396 1151.01C264.329 1150.93 264.293 1150.84 264.297 1150.74C264.301 1150.64 264.345 1150.54 264.418 1150.48C264.49 1150.41 264.587 1150.37 264.686 1150.38C264.785 1150.38 264.879 1150.42 264.946 1150.5L274.258 1160.6C274.326 1160.67 274.365 1160.77 274.365 1160.87C274.365 1160.97 274.326 1161.06 274.258 1161.14C274.182 1161.2 274.084 1161.24 273.983 1161.23V1161.23Z" fill="#EF947F"/>
<path d="M249.395 1160.49C249.351 1160.49 249.306 1160.49 249.261 1160.49C249.17 1160.45 249.097 1160.38 249.058 1160.29C249.019 1160.2 249.017 1160.09 249.053 1160C249.053 1159.91 252.677 1150.89 259.441 1144.2C259.475 1144.16 259.516 1144.14 259.561 1144.12C259.606 1144.1 259.654 1144.09 259.703 1144.09C259.752 1144.09 259.801 1144.1 259.846 1144.12C259.891 1144.14 259.932 1144.16 259.966 1144.2C260.035 1144.27 260.073 1144.37 260.073 1144.46C260.073 1144.56 260.035 1144.66 259.966 1144.73C253.294 1151.31 249.762 1160.19 249.725 1160.27C249.696 1160.34 249.649 1160.39 249.591 1160.43C249.533 1160.46 249.465 1160.49 249.395 1160.49Z" fill="#EF947F"/>
<path d="M269.046 1166.01C268.973 1166.01 268.9 1166 268.837 1165.96C268.773 1165.92 268.721 1165.87 268.688 1165.8C268.655 1165.74 268.642 1165.67 268.65 1165.59C268.658 1165.52 268.687 1165.45 268.734 1165.4C268.97 1165.07 269.124 1164.68 269.184 1164.28C269.245 1163.88 269.21 1163.47 269.083 1163.09C267.922 1159.35 259.667 1155.98 259.587 1155.95C259.496 1155.91 259.422 1155.84 259.383 1155.75C259.345 1155.66 259.343 1155.55 259.38 1155.46C259.398 1155.42 259.425 1155.37 259.459 1155.34C259.493 1155.31 259.534 1155.28 259.579 1155.26C259.624 1155.24 259.672 1155.23 259.721 1155.23C259.769 1155.23 259.817 1155.24 259.862 1155.26C260.217 1155.4 268.527 1158.79 269.791 1162.87C269.951 1163.36 269.994 1163.88 269.919 1164.39C269.844 1164.9 269.652 1165.38 269.358 1165.81C269.328 1165.86 269.283 1165.91 269.229 1165.95C269.174 1165.98 269.111 1166 269.046 1166.01V1166.01Z" fill="#EF947F"/>
<path d="M265.795 1168.69C265.714 1168.69 265.635 1168.67 265.569 1168.62L257.534 1162.54C257.453 1162.48 257.399 1162.39 257.385 1162.29C257.37 1162.19 257.395 1162.09 257.455 1162.01C257.515 1161.93 257.605 1161.88 257.704 1161.86C257.804 1161.85 257.905 1161.87 257.987 1161.93L266.015 1168.05C266.094 1168.11 266.145 1168.2 266.159 1168.3C266.173 1168.39 266.147 1168.49 266.089 1168.57C266.052 1168.61 266.006 1168.64 265.955 1168.67C265.905 1168.69 265.85 1168.7 265.795 1168.69V1168.69Z" fill="#EF947F"/>
<path opacity="0.2" d="M300.355 1133.95L287.395 1136.23" stroke="black" stroke-linecap="round" stroke-linejoin="round"/>
<path d="M209.911 1171.31L211.591 1156.81L126.042 1145.03L124.227 1157.66L209.911 1171.31Z" fill="#525659"/>
<path d="M240.395 1160.63L209.911 1171.31L211.591 1156.81L241.904 1146.68L240.395 1160.63Z" fill="#E6E6E6"/>
<g opacity="0.2">
<path d="M213.314 1159.67C213.24 1159.67 213.167 1159.65 213.105 1159.61C213.043 1159.56 212.995 1159.5 212.966 1159.43C212.949 1159.39 212.94 1159.34 212.942 1159.29C212.944 1159.24 212.955 1159.19 212.975 1159.15C212.996 1159.1 213.025 1159.06 213.061 1159.03C213.097 1158.99 213.14 1158.97 213.186 1158.95L239.417 1149C239.51 1148.97 239.612 1148.97 239.702 1149.01C239.792 1149.05 239.863 1149.13 239.9 1149.22C239.918 1149.26 239.926 1149.31 239.924 1149.36C239.923 1149.41 239.912 1149.46 239.891 1149.51C239.871 1149.55 239.841 1149.59 239.805 1149.62C239.769 1149.66 239.727 1149.68 239.68 1149.7L213.449 1159.65C213.406 1159.67 213.361 1159.67 213.314 1159.67Z" fill="black"/>
</g>
<g opacity="0.2">
<path d="M213.314 1161.93C213.24 1161.93 213.167 1161.91 213.105 1161.86C213.043 1161.82 212.995 1161.76 212.966 1161.69C212.949 1161.65 212.94 1161.6 212.942 1161.55C212.944 1161.5 212.955 1161.45 212.975 1161.4C212.996 1161.36 213.025 1161.32 213.061 1161.29C213.097 1161.25 213.14 1161.23 213.186 1161.21L239.417 1151.26C239.51 1151.23 239.612 1151.23 239.702 1151.27C239.792 1151.31 239.863 1151.38 239.9 1151.48C239.918 1151.52 239.926 1151.57 239.924 1151.62C239.923 1151.67 239.912 1151.72 239.891 1151.76C239.871 1151.81 239.841 1151.85 239.805 1151.88C239.769 1151.92 239.727 1151.94 239.68 1151.96L213.449 1161.91C213.406 1161.92 213.361 1161.93 213.314 1161.93V1161.93Z" fill="black"/>
</g>
<g opacity="0.2">
<path d="M213.315 1164.9C213.239 1164.9 213.165 1164.87 213.103 1164.83C213.041 1164.79 212.993 1164.73 212.966 1164.65C212.949 1164.61 212.941 1164.56 212.942 1164.51C212.944 1164.46 212.955 1164.41 212.976 1164.37C212.996 1164.33 213.025 1164.29 213.062 1164.25C213.098 1164.22 213.14 1164.19 213.186 1164.18L239.417 1154.22C239.464 1154.21 239.513 1154.2 239.562 1154.2C239.611 1154.2 239.66 1154.21 239.705 1154.23C239.75 1154.25 239.79 1154.28 239.824 1154.32C239.857 1154.36 239.883 1154.4 239.9 1154.45C239.918 1154.49 239.926 1154.54 239.924 1154.59C239.923 1154.64 239.911 1154.69 239.891 1154.73C239.87 1154.77 239.841 1154.81 239.805 1154.85C239.769 1154.88 239.726 1154.91 239.68 1154.92L213.449 1164.88C213.406 1164.89 213.36 1164.9 213.315 1164.9V1164.9Z" fill="black"/>
</g>
<g opacity="0.2">
<path d="M213.314 1167.88C213.24 1167.88 213.167 1167.86 213.105 1167.81C213.043 1167.77 212.995 1167.71 212.966 1167.64C212.949 1167.6 212.94 1167.55 212.942 1167.5C212.944 1167.45 212.955 1167.4 212.975 1167.35C212.996 1167.31 213.025 1167.27 213.061 1167.24C213.097 1167.2 213.14 1167.18 213.186 1167.16L239.417 1157.21C239.464 1157.19 239.513 1157.19 239.562 1157.19C239.611 1157.19 239.66 1157.2 239.705 1157.22C239.75 1157.24 239.79 1157.27 239.824 1157.31C239.857 1157.34 239.883 1157.39 239.9 1157.43C239.918 1157.48 239.926 1157.53 239.924 1157.58C239.923 1157.62 239.911 1157.67 239.891 1157.72C239.87 1157.76 239.841 1157.8 239.805 1157.83C239.769 1157.87 239.726 1157.89 239.68 1157.91L213.449 1167.86C213.406 1167.87 213.361 1167.88 213.314 1167.88V1167.88Z" fill="black"/>
</g>
<path d="M126.042 1145.03L211.591 1156.81L241.904 1146.68L199.505 1136.87L162.972 1131L126.042 1145.03Z" fill="#5D6166"/>
<path d="M179.482 1126.53L187.248 1121.28C190.463 1119.1 194.263 1117.93 198.149 1117.95C211.842 1118.07 233.753 1125.08 233.753 1125.08L240.395 1138.73C195.631 1122.56 181.853 1141.25 181.853 1141.25C160.504 1103.72 113.595 1131.15 113.595 1131.15L112.172 1117.57L124.227 1112.35C124.227 1112.35 157.009 1109.36 170.421 1119.08L179.482 1126.53Z" fill="#E6E6E6"/>
<g opacity="0.2">
<path d="M127.863 1125.68C127.782 1125.68 127.704 1125.66 127.639 1125.61C127.574 1125.56 127.526 1125.5 127.502 1125.42L123.873 1113.57C123.858 1113.53 123.852 1113.48 123.856 1113.43C123.86 1113.38 123.874 1113.33 123.897 1113.29C123.92 1113.24 123.951 1113.21 123.989 1113.17C124.026 1113.14 124.07 1113.12 124.117 1113.1C124.212 1113.08 124.314 1113.09 124.4 1113.13C124.487 1113.18 124.552 1113.26 124.582 1113.35L128.248 1125.2C128.262 1125.25 128.267 1125.3 128.262 1125.34C128.257 1125.39 128.242 1125.44 128.219 1125.48C128.196 1125.53 128.164 1125.56 128.126 1125.6C128.088 1125.63 128.044 1125.65 127.997 1125.66L127.863 1125.68Z" fill="black"/>
</g>
<g opacity="0.2">
<path d="M115.6 1130.44C115.51 1130.44 115.424 1130.41 115.356 1130.35C115.289 1130.29 115.245 1130.21 115.233 1130.12L113.577 1117.69C113.565 1117.59 113.591 1117.49 113.65 1117.41C113.71 1117.33 113.797 1117.28 113.895 1117.27C113.993 1117.25 114.092 1117.28 114.17 1117.34C114.248 1117.4 114.298 1117.49 114.31 1117.59L115.972 1130.02C115.985 1130.11 115.958 1130.21 115.899 1130.29C115.84 1130.37 115.752 1130.42 115.655 1130.44H115.6Z" fill="black"/>
</g>
<g opacity="0.2">
<path d="M118.282 1129.21C118.198 1129.21 118.117 1129.18 118.052 1129.13C117.987 1129.08 117.941 1129.01 117.921 1128.93L115.239 1117.05C115.217 1116.95 115.235 1116.85 115.287 1116.76C115.34 1116.68 115.424 1116.62 115.52 1116.6C115.617 1116.58 115.718 1116.59 115.801 1116.65C115.885 1116.7 115.944 1116.78 115.966 1116.88L118.649 1128.76C118.659 1128.81 118.661 1128.86 118.653 1128.91C118.644 1128.96 118.627 1129 118.6 1129.04C118.574 1129.08 118.54 1129.12 118.5 1129.15C118.46 1129.18 118.415 1129.2 118.368 1129.21L118.282 1129.21Z" fill="black"/>
</g>
<g opacity="0.2">
<path d="M121.08 1128.06C120.996 1128.06 120.914 1128.03 120.848 1127.98C120.781 1127.92 120.734 1127.85 120.714 1127.77L117.928 1115.96C117.916 1115.91 117.914 1115.87 117.921 1115.82C117.929 1115.77 117.946 1115.72 117.971 1115.68C117.997 1115.64 118.031 1115.6 118.07 1115.57C118.11 1115.55 118.155 1115.53 118.203 1115.52C118.25 1115.5 118.3 1115.5 118.349 1115.51C118.397 1115.52 118.444 1115.53 118.486 1115.56C118.528 1115.58 118.564 1115.62 118.593 1115.66C118.622 1115.7 118.643 1115.74 118.655 1115.79L121.447 1127.6C121.459 1127.65 121.461 1127.7 121.454 1127.74C121.446 1127.79 121.429 1127.84 121.403 1127.88C121.378 1127.92 121.344 1127.96 121.304 1127.99C121.265 1128.01 121.22 1128.03 121.172 1128.05C121.143 1128.06 121.112 1128.06 121.08 1128.06Z" fill="black"/>
</g>
<g opacity="0.2">
<path d="M124.227 1127.17C124.145 1127.17 124.066 1127.14 124 1127.09C123.935 1127.04 123.888 1126.97 123.867 1126.89L120.72 1114.84C120.707 1114.79 120.704 1114.74 120.71 1114.69C120.716 1114.64 120.732 1114.6 120.757 1114.55C120.781 1114.51 120.814 1114.48 120.852 1114.45C120.891 1114.42 120.936 1114.39 120.983 1114.38C121.03 1114.37 121.079 1114.37 121.128 1114.37C121.177 1114.38 121.224 1114.39 121.266 1114.42C121.309 1114.44 121.346 1114.48 121.376 1114.52C121.406 1114.55 121.428 1114.6 121.441 1114.65L124.588 1126.7C124.601 1126.75 124.604 1126.8 124.597 1126.85C124.59 1126.9 124.574 1126.95 124.549 1126.99C124.524 1127.03 124.491 1127.07 124.451 1127.1C124.412 1127.13 124.367 1127.15 124.319 1127.16C124.289 1127.17 124.258 1127.17 124.227 1127.17V1127.17Z" fill="black"/>
</g>
<path d="M113.595 1131.15C113.595 1131.15 158.982 1127.04 169.199 1138.73C169.199 1138.73 173.732 1142.14 176.934 1150.75C176.934 1150.75 177.808 1151.09 184.266 1152.02C184.759 1152.08 185.261 1151.99 185.7 1151.76C186.139 1151.53 186.492 1151.16 186.711 1150.71C188.232 1147.55 192.974 1140.75 205.524 1141.38L244.923 1147.42L240.389 1138.73C197.116 1122.56 181.847 1141.25 181.847 1141.25C181.847 1141.25 170.476 1113.13 131.37 1123.93C125.255 1125.84 119.31 1128.25 113.595 1131.15V1131.15Z" fill="#2F2E41"/>
<path d="M210.284 1171.31L208.793 1185.49L124.6 1170.15V1157.66L210.284 1171.31Z" fill="#0071F2"/>
<path d="M248.277 1162.54L209.911 1171.31L240.395 1160.63L248.277 1162.54Z" fill="#0071F2"/>
<path d="M208.42 1185.49L209.911 1171.31L249.395 1162.54L248.277 1173.79L208.42 1185.49Z" fill="#E6E6E6"/>
<g opacity="0.2">
<path d="M213.315 1174.39C213.224 1174.39 213.136 1174.36 213.067 1174.3C212.998 1174.24 212.954 1174.15 212.942 1174.06C212.93 1173.97 212.951 1173.88 213.002 1173.81C213.052 1173.73 213.129 1173.68 213.217 1173.65L248.186 1164.17C248.276 1164.15 248.369 1164.17 248.447 1164.22C248.524 1164.27 248.58 1164.35 248.604 1164.44C248.629 1164.52 248.619 1164.62 248.578 1164.7C248.537 1164.78 248.467 1164.85 248.381 1164.88L213.412 1174.38L213.315 1174.39Z" fill="black"/>
</g>
<g opacity="0.2">
<path d="M212.575 1178.12C212.488 1178.11 212.405 1178.08 212.34 1178.02C212.276 1177.96 212.234 1177.88 212.222 1177.79C212.211 1177.71 212.23 1177.62 212.276 1177.54C212.323 1177.47 212.394 1177.41 212.477 1177.39L247.465 1167.9C247.511 1167.89 247.56 1167.88 247.608 1167.89C247.657 1167.89 247.703 1167.91 247.745 1167.93C247.788 1167.96 247.825 1167.99 247.854 1168.03C247.883 1168.06 247.905 1168.11 247.917 1168.16C247.943 1168.25 247.931 1168.35 247.883 1168.44C247.835 1168.52 247.755 1168.59 247.66 1168.62L212.691 1178.1C212.654 1178.12 212.614 1178.12 212.575 1178.12V1178.12Z" fill="black"/>
</g>
<g opacity="0.2">
<path d="M212.575 1181.1C212.484 1181.1 212.396 1181.07 212.328 1181.01C212.259 1180.95 212.215 1180.87 212.203 1180.78C212.191 1180.69 212.212 1180.6 212.263 1180.52C212.313 1180.45 212.39 1180.39 212.477 1180.37L247.465 1170.88C247.512 1170.87 247.561 1170.86 247.609 1170.87C247.657 1170.88 247.704 1170.89 247.746 1170.92C247.788 1170.94 247.825 1170.97 247.854 1171.01C247.883 1171.05 247.905 1171.1 247.917 1171.14C247.943 1171.24 247.931 1171.34 247.883 1171.43C247.835 1171.51 247.755 1171.58 247.66 1171.6L212.691 1181.09C212.654 1181.1 212.614 1181.11 212.575 1181.1Z" fill="black"/>
</g>
<path d="M271.698 1174.36V1178.32L316.455 1172.8L316.492 1169.25L271.698 1174.36Z" fill="#2F2E41"/>
<path opacity="0.2" d="M271.698 1174.36V1178.32L316.455 1172.8L316.492 1169.25L271.698 1174.36Z" fill="black"/>
<path d="M405.347 1150.83V1160.52L465.784 1163.81L465.466 1149.66L405.347 1150.83Z" fill="#0071F2"/>
<path d="M401.394 1163.81L465.783 1166.97V1163.81L405.347 1160.52L401.394 1163.81Z" fill="#CCCCCC"/>
<path d="M401.394 1163.81L402.133 1171.98L465.466 1176.54L465.783 1166.97L401.394 1163.81Z" fill="#B3B3B3"/>
<path d="M386.778 1138.49L429.703 1145.18L467.342 1139.96L447.324 1134.74L386.778 1138.46V1138.49Z" fill="#2F2E41"/>
<path d="M428.957 1154.89L385.489 1147.42L386.778 1138.49L429.702 1145.18L428.957 1154.89Z" fill="white"/>
<path d="M427.057 1148.46H426.996L387.181 1142.58C387.083 1142.57 386.996 1142.51 386.937 1142.43C386.877 1142.35 386.851 1142.25 386.864 1142.15C386.871 1142.11 386.888 1142.06 386.914 1142.02C386.939 1141.97 386.973 1141.94 387.013 1141.91C387.052 1141.88 387.097 1141.86 387.145 1141.85C387.193 1141.84 387.243 1141.83 387.291 1141.84L427.106 1147.71C427.196 1147.73 427.277 1147.78 427.334 1147.85C427.39 1147.92 427.418 1148.01 427.412 1148.1C427.406 1148.2 427.367 1148.28 427.301 1148.35C427.235 1148.41 427.148 1148.45 427.057 1148.45V1148.46Z" fill="#E6E6E6"/>
<path d="M426.727 1151.53H426.654L387.169 1144.13C387.12 1144.12 387.074 1144.1 387.032 1144.07C386.991 1144.04 386.955 1144.01 386.927 1143.97C386.899 1143.93 386.88 1143.88 386.87 1143.83C386.86 1143.78 386.86 1143.73 386.87 1143.68C386.889 1143.59 386.945 1143.5 387.027 1143.45C387.108 1143.39 387.207 1143.37 387.304 1143.39L426.794 1150.79C426.842 1150.8 426.888 1150.82 426.929 1150.84C426.969 1150.87 427.005 1150.91 427.032 1150.95C427.059 1150.99 427.078 1151.03 427.088 1151.08C427.097 1151.13 427.097 1151.18 427.087 1151.23C427.071 1151.31 427.026 1151.38 426.96 1151.44C426.894 1151.49 426.812 1151.52 426.727 1151.53V1151.53Z" fill="#E6E6E6"/>
<path d="M384.255 1121.3L402.133 1134.74L462.27 1131.15L445.351 1119.81L384.255 1121.3Z" fill="#5D6166"/>
<path d="M383.509 1128.76C383.509 1128.76 401.736 1142.66 401.754 1143.02C401.773 1143.39 402.139 1134.74 402.139 1134.74L384.255 1121.3L383.509 1128.76Z" fill="#E6E6E6"/>
<g opacity="0.21">
<path d="M400.648 1136.6C400.566 1136.6 400.486 1136.57 400.422 1136.52L384.774 1124.59C384.696 1124.53 384.644 1124.45 384.63 1124.35C384.617 1124.25 384.642 1124.15 384.701 1124.07C384.761 1123.99 384.85 1123.94 384.948 1123.93C385.047 1123.91 385.146 1123.94 385.226 1124L400.874 1135.94C400.952 1136 401.003 1136.09 401.015 1136.19C401.028 1136.29 401.001 1136.39 400.942 1136.47C400.906 1136.51 400.861 1136.55 400.811 1136.57C400.76 1136.59 400.704 1136.6 400.648 1136.6V1136.6Z" fill="black"/>
</g>
<g opacity="0.21">
<path d="M400.648 1138.84C400.566 1138.84 400.486 1138.81 400.422 1138.76L384.774 1126.82C384.696 1126.76 384.644 1126.67 384.63 1126.58C384.617 1126.48 384.642 1126.38 384.701 1126.3C384.761 1126.22 384.85 1126.17 384.948 1126.16C385.047 1126.14 385.146 1126.17 385.226 1126.23L400.874 1138.17C400.952 1138.23 401.003 1138.32 401.015 1138.42C401.028 1138.52 401.001 1138.62 400.942 1138.7C400.907 1138.74 400.862 1138.78 400.811 1138.8C400.761 1138.83 400.705 1138.84 400.648 1138.84V1138.84Z" fill="black"/>
</g>
<g opacity="0.21">
<path d="M399.903 1140.34C399.821 1140.33 399.742 1140.31 399.677 1140.26L384.028 1128.31C383.99 1128.28 383.957 1128.25 383.932 1128.21C383.908 1128.16 383.892 1128.12 383.886 1128.07C383.879 1128.02 383.883 1127.97 383.896 1127.92C383.909 1127.88 383.931 1127.83 383.961 1127.79C384.021 1127.72 384.109 1127.66 384.206 1127.65C384.303 1127.64 384.402 1127.66 384.481 1127.72L400.129 1139.66C400.207 1139.72 400.257 1139.81 400.27 1139.91C400.282 1140.01 400.256 1140.11 400.196 1140.19C400.161 1140.23 400.117 1140.27 400.066 1140.3C400.015 1140.32 399.96 1140.33 399.903 1140.34V1140.34Z" fill="black"/>
</g>
<path d="M401.754 1143.02L402.133 1134.74L462.27 1131.15V1139.66L401.754 1143.02Z" fill="#525659"/>
<path d="M429.702 1145.18L428.957 1154.89L465.466 1149.66L467.341 1139.96L429.702 1145.18Z" fill="#2F2E41"/>
<path opacity="0.2" d="M429.702 1145.18L428.957 1154.89L465.466 1149.66L467.341 1139.96L429.702 1145.18Z" fill="black"/>
<path d="M425.981 1153.02H425.92L387.175 1146.55C387.124 1146.54 387.074 1146.53 387.029 1146.5C386.984 1146.48 386.945 1146.45 386.914 1146.41C386.882 1146.36 386.86 1146.32 386.847 1146.27C386.835 1146.22 386.833 1146.17 386.841 1146.12C386.849 1146.07 386.868 1146.02 386.896 1145.97C386.924 1145.93 386.961 1145.89 387.004 1145.87C387.046 1145.84 387.095 1145.82 387.145 1145.81C387.196 1145.8 387.248 1145.8 387.297 1145.81L426.042 1152.28C426.139 1152.3 426.224 1152.35 426.281 1152.43C426.338 1152.51 426.362 1152.61 426.348 1152.71C426.333 1152.79 426.289 1152.87 426.222 1152.93C426.155 1152.99 426.069 1153.02 425.981 1153.02V1153.02Z" fill="#E6E6E6"/>
<path d="M474.967 1190.34C488.442 1190.34 499.365 1179.06 499.365 1165.15C499.365 1151.24 488.442 1139.96 474.967 1139.96C461.492 1139.96 450.569 1151.24 450.569 1165.15C450.569 1179.06 461.492 1190.34 474.967 1190.34Z" fill="#0071F2"/>
<path opacity="0.2" d="M474.967 1190.34C488.442 1190.34 499.365 1179.06 499.365 1165.15C499.365 1151.24 488.442 1139.96 474.967 1139.96C461.492 1139.96 450.569 1151.24 450.569 1165.15C450.569 1179.06 461.492 1190.34 474.967 1190.34Z" fill="black"/>
<path d="M458.121 1145.4C458.047 1145.41 457.973 1145.38 457.912 1145.34C457.851 1145.3 457.804 1145.24 457.779 1145.17C457.724 1145.03 456.526 1141.79 457.272 1133.95C457.272 1133.63 457.119 1125.11 461.164 1123.93L461.592 1123.8C465.307 1122.71 469.926 1121.35 480.051 1122.8C480.228 1122.84 483.876 1123.69 483.607 1130.27L484.096 1139.56C484.01 1140.45 483.726 1141.3 483.265 1142.06C483.235 1142.09 483.198 1142.13 483.155 1142.15C483.113 1142.17 483.066 1142.19 483.018 1142.2C482.97 1142.2 482.921 1142.2 482.874 1142.18C482.827 1142.17 482.783 1142.15 482.745 1142.12C482.707 1142.09 482.675 1142.05 482.65 1142.01C482.626 1141.96 482.611 1141.92 482.606 1141.87C482.6 1141.82 482.604 1141.77 482.617 1141.72C482.631 1141.67 482.654 1141.63 482.684 1141.59C483.051 1140.96 483.279 1140.26 483.35 1139.54L482.862 1130.28C483.106 1124.33 480.045 1123.55 479.916 1123.55C469.981 1122.13 465.447 1123.47 461.806 1124.54L461.378 1124.66C457.871 1125.69 458.011 1133.92 458.017 1134C457.284 1141.7 458.457 1144.89 458.469 1144.92C458.487 1144.97 458.496 1145.01 458.494 1145.06C458.493 1145.11 458.482 1145.16 458.462 1145.2C458.442 1145.25 458.414 1145.29 458.378 1145.32C458.343 1145.36 458.301 1145.38 458.256 1145.4C458.212 1145.41 458.166 1145.41 458.121 1145.4V1145.4Z" fill="#0071F2"/>
<path d="M453.099 1137.29L451.705 1133.87C451.632 1133.68 451.634 1133.48 451.711 1133.29C451.787 1133.11 451.932 1132.96 452.115 1132.89L453.63 1132.27C453.813 1132.2 454.017 1132.2 454.198 1132.28C454.38 1132.35 454.525 1132.5 454.602 1132.68L455.94 1135.9L453.099 1137.29Z" fill="#2F2E41"/>
<path d="M459.136 1147.05C458.994 1147.05 458.855 1147.01 458.735 1146.93C458.615 1146.86 458.518 1146.75 458.457 1146.62L456.252 1141.91C456.198 1141.82 456.165 1141.72 456.153 1141.61C456.141 1141.51 456.151 1141.4 456.183 1141.3C456.214 1141.2 456.267 1141.11 456.336 1141.03C456.406 1140.96 456.491 1140.89 456.586 1140.85C456.682 1140.81 456.785 1140.78 456.89 1140.78C456.994 1140.78 457.098 1140.8 457.194 1140.85C457.29 1140.89 457.375 1140.95 457.446 1141.03C457.516 1141.11 457.569 1141.2 457.602 1141.3L459.808 1146C459.891 1146.18 459.901 1146.39 459.835 1146.57C459.768 1146.76 459.631 1146.91 459.453 1147C459.353 1147.04 459.244 1147.06 459.136 1147.05V1147.05Z" fill="#2F2E41"/>
<path d="M449.158 1145.15L465.38 1137.73C465.004 1136.76 464.379 1135.92 463.57 1135.27C462.761 1134.63 461.796 1134.21 460.773 1134.06C459.417 1133.89 458.043 1134.16 456.856 1134.84L452.579 1136.68C451.307 1137.2 450.234 1138.11 449.515 1139.28C448.795 1140.46 448.467 1141.83 448.577 1143.2C448.577 1143.37 448.62 1143.54 448.644 1143.7L449.158 1145.15Z" fill="#0071F2"/>
<path opacity="0.2" d="M449.158 1145.15L465.38 1137.73C465.004 1136.76 464.379 1135.92 463.57 1135.27C462.761 1134.63 461.796 1134.21 460.773 1134.06C459.417 1133.89 458.043 1134.16 456.856 1134.84L452.579 1136.68C451.307 1137.2 450.234 1138.11 449.515 1139.28C448.795 1140.46 448.467 1141.83 448.577 1143.2C448.577 1143.37 448.62 1143.54 448.644 1143.7L449.158 1145.15Z" fill="black"/>
<path d="M470.867 1188.47C484.136 1188.47 494.893 1177.95 494.893 1164.96C494.893 1151.98 484.136 1141.45 470.867 1141.45C457.598 1141.45 446.842 1151.98 446.842 1164.96C446.842 1177.95 457.598 1188.47 470.867 1188.47Z" fill="#0071F2"/>
<path opacity="0.2" d="M470.867 1188.47C484.136 1188.47 494.893 1177.95 494.893 1164.96C494.893 1151.98 484.136 1141.45 470.867 1141.45C457.598 1141.45 446.842 1151.98 446.842 1164.96C446.842 1177.95 457.598 1188.47 470.867 1188.47Z" fill="white"/>
<path opacity="0.2" d="M470.867 1185.86C482.665 1185.86 492.229 1176.5 492.229 1164.96C492.229 1153.42 482.665 1144.06 470.867 1144.06C459.07 1144.06 449.506 1153.42 449.506 1164.96C449.506 1176.5 459.07 1185.86 470.867 1185.86Z" fill="white"/>
<path d="M471.429 1165.71C472.459 1165.71 473.293 1164.88 473.293 1163.85C473.293 1162.82 472.459 1161.98 471.429 1161.98C470.4 1161.98 469.566 1162.82 469.566 1163.85C469.566 1164.88 470.4 1165.71 471.429 1165.71Z" fill="#2F2E41"/>
<path d="M465.38 1175.04C465.315 1175.04 465.251 1175.02 465.194 1174.99C465.138 1174.95 465.092 1174.91 465.06 1174.85C465.028 1174.79 465.011 1174.73 465.012 1174.66C465.012 1174.59 465.03 1174.53 465.062 1174.47L471.594 1163.55C471.636 1163.49 471.695 1163.44 471.765 1163.41L484.542 1157.79C484.634 1157.75 484.737 1157.75 484.829 1157.79C484.922 1157.83 484.997 1157.9 485.037 1157.99C485.076 1158.08 485.077 1158.18 485.04 1158.27C485.003 1158.37 484.932 1158.44 484.841 1158.48L472.193 1164.04L465.722 1174.86C465.687 1174.92 465.636 1174.96 465.576 1175C465.516 1175.03 465.448 1175.04 465.38 1175.04V1175.04Z" fill="#0071F2"/>
<path d="M481.132 1151.53C481.045 1151.52 480.961 1151.49 480.894 1151.43C480.824 1151.37 480.783 1151.27 480.78 1151.18C480.776 1151.08 480.811 1150.99 480.876 1150.91L484.023 1147.19C484.087 1147.11 484.177 1147.06 484.275 1147.05C484.374 1147.05 484.471 1147.07 484.548 1147.14C484.585 1147.17 484.616 1147.21 484.638 1147.25C484.661 1147.29 484.674 1147.34 484.678 1147.39C484.682 1147.44 484.677 1147.49 484.662 1147.54C484.647 1147.58 484.623 1147.63 484.591 1147.66L481.444 1151.4C481.406 1151.44 481.357 1151.48 481.303 1151.5C481.249 1151.52 481.191 1151.53 481.132 1151.53V1151.53Z" fill="#0071F2"/>
<path d="M473.183 1148.46C473.084 1148.46 472.989 1148.43 472.919 1148.36C472.85 1148.29 472.81 1148.19 472.81 1148.09V1143.04C472.812 1142.94 472.852 1142.84 472.921 1142.77C472.991 1142.7 473.085 1142.66 473.183 1142.66C473.282 1142.66 473.377 1142.7 473.447 1142.77C473.516 1142.84 473.556 1142.94 473.556 1143.04V1148.09C473.556 1148.19 473.516 1148.29 473.447 1148.36C473.377 1148.43 473.282 1148.46 473.183 1148.46Z" fill="#0071F2"/>
<path d="M453.991 1178.84C453.921 1178.84 453.854 1178.82 453.797 1178.78C453.74 1178.74 453.695 1178.68 453.667 1178.62C453.639 1178.56 453.629 1178.49 453.639 1178.42C453.649 1178.35 453.677 1178.28 453.722 1178.23L457.388 1174.42C457.422 1174.39 457.463 1174.36 457.508 1174.34C457.553 1174.32 457.602 1174.31 457.651 1174.31C457.7 1174.31 457.748 1174.32 457.793 1174.34C457.838 1174.36 457.879 1174.39 457.913 1174.42C457.983 1174.49 458.022 1174.59 458.022 1174.69C458.022 1174.79 457.983 1174.88 457.913 1174.95L454.247 1178.76C454.175 1178.82 454.084 1178.85 453.991 1178.84V1178.84Z" fill="#0071F2"/>
<path d="M487.542 1180.56C487.49 1180.56 487.439 1180.55 487.392 1180.53C487.345 1180.51 487.302 1180.48 487.267 1180.44L484.01 1176.82C483.975 1176.78 483.947 1176.74 483.928 1176.7C483.909 1176.65 483.899 1176.6 483.899 1176.55C483.899 1176.51 483.909 1176.46 483.928 1176.41C483.947 1176.37 483.975 1176.33 484.01 1176.29C484.045 1176.26 484.085 1176.23 484.13 1176.21C484.176 1176.19 484.224 1176.18 484.273 1176.18C484.322 1176.18 484.371 1176.19 484.416 1176.21C484.461 1176.23 484.502 1176.26 484.536 1176.29L487.793 1179.91C487.862 1179.98 487.902 1180.08 487.902 1180.17C487.902 1180.27 487.862 1180.37 487.793 1180.44C487.727 1180.51 487.638 1180.56 487.542 1180.56V1180.56Z" fill="#0071F2"/>
<path d="M486.699 1157.87C486.609 1157.87 486.524 1157.83 486.459 1157.77C486.393 1157.71 486.352 1157.63 486.343 1157.54C486.333 1157.45 486.356 1157.36 486.406 1157.29C486.457 1157.21 486.533 1157.16 486.619 1157.14L492.149 1155.91C492.246 1155.89 492.346 1155.91 492.428 1155.97C492.511 1156.02 492.569 1156.11 492.589 1156.2C492.601 1156.25 492.603 1156.3 492.595 1156.35C492.587 1156.4 492.569 1156.44 492.543 1156.48C492.517 1156.52 492.482 1156.56 492.442 1156.59C492.401 1156.61 492.356 1156.63 492.308 1156.64L486.809 1157.87L486.699 1157.87Z" fill="#0071F2"/>
<path d="M493.408 1168.32H493.341L487.97 1167.35C487.872 1167.33 487.786 1167.27 487.73 1167.19C487.674 1167.11 487.652 1167.01 487.67 1166.91C487.688 1166.82 487.744 1166.73 487.825 1166.67C487.907 1166.62 488.007 1166.6 488.104 1166.61L493.475 1167.59C493.567 1167.6 493.648 1167.65 493.705 1167.73C493.761 1167.8 493.787 1167.9 493.779 1167.99C493.771 1168.08 493.728 1168.17 493.659 1168.23C493.59 1168.29 493.501 1168.33 493.408 1168.33V1168.32Z" fill="#0071F2"/>
<path d="M453.917 1166.08H453.85L448.492 1165.1C448.394 1165.08 448.308 1165.03 448.252 1164.95C448.196 1164.87 448.174 1164.76 448.192 1164.67C448.21 1164.57 448.266 1164.48 448.347 1164.43C448.428 1164.37 448.529 1164.35 448.626 1164.37L453.997 1165.34C454.094 1165.36 454.18 1165.41 454.236 1165.5C454.293 1165.58 454.314 1165.68 454.296 1165.78C454.281 1165.86 454.235 1165.94 454.165 1166C454.095 1166.06 454.007 1166.09 453.917 1166.08V1166.08Z" fill="#0071F2"/>
<path d="M455.634 1157.25C455.558 1157.26 455.483 1157.23 455.42 1157.19L451.07 1154.13C450.989 1154.07 450.934 1153.98 450.917 1153.89C450.899 1153.79 450.922 1153.69 450.978 1153.61C451.035 1153.53 451.122 1153.47 451.219 1153.45C451.316 1153.44 451.417 1153.46 451.498 1153.51L455.848 1156.58C455.915 1156.62 455.965 1156.68 455.992 1156.76C456.018 1156.83 456.019 1156.92 455.995 1156.99C455.971 1157.07 455.923 1157.14 455.858 1157.18C455.792 1157.23 455.714 1157.25 455.634 1157.25V1157.25Z" fill="#0071F2"/>
<path d="M462.857 1186.24C462.799 1186.24 462.742 1186.22 462.692 1186.2C462.648 1186.17 462.609 1186.14 462.577 1186.11C462.545 1186.07 462.521 1186.02 462.505 1185.98C462.49 1185.93 462.484 1185.88 462.488 1185.83C462.491 1185.78 462.505 1185.74 462.527 1185.69L464.763 1181.22C464.811 1181.14 464.888 1181.08 464.978 1181.05C465.068 1181.02 465.165 1181.03 465.249 1181.07C465.333 1181.12 465.398 1181.19 465.432 1181.28C465.465 1181.36 465.464 1181.46 465.429 1181.55L463.193 1186.03C463.161 1186.09 463.113 1186.14 463.054 1186.18C462.995 1186.22 462.926 1186.24 462.857 1186.24V1186.24Z" fill="#0071F2"/>
<path d="M476.336 1186.84C476.237 1186.84 476.142 1186.8 476.072 1186.73C476.002 1186.66 475.963 1186.57 475.963 1186.47V1181.38C475.963 1181.28 476.002 1181.19 476.072 1181.12C476.142 1181.05 476.237 1181.01 476.336 1181.01C476.435 1181.01 476.53 1181.05 476.599 1181.12C476.669 1181.19 476.709 1181.28 476.709 1181.38V1186.47C476.709 1186.57 476.669 1186.66 476.599 1186.73C476.53 1186.8 476.435 1186.84 476.336 1186.84V1186.84Z" fill="#0071F2"/>
<path d="M462.857 1150.41C462.8 1150.42 462.742 1150.41 462.688 1150.39C462.635 1150.37 462.586 1150.34 462.545 1150.3L459.374 1146.45C459.342 1146.41 459.319 1146.36 459.304 1146.32C459.29 1146.27 459.285 1146.22 459.289 1146.17C459.294 1146.12 459.308 1146.08 459.331 1146.03C459.354 1145.99 459.385 1145.95 459.423 1145.92C459.499 1145.86 459.597 1145.83 459.695 1145.84C459.793 1145.85 459.884 1145.89 459.948 1145.97L463.119 1149.82C463.151 1149.86 463.174 1149.91 463.189 1149.95C463.203 1150 463.209 1150.05 463.204 1150.1C463.199 1150.15 463.185 1150.19 463.162 1150.24C463.139 1150.28 463.108 1150.32 463.07 1150.35C463.007 1150.39 462.932 1150.41 462.857 1150.41V1150.41Z" fill="#0071F2"/>
<g opacity="0.2">
<path d="M481.132 1151.53C481.045 1151.52 480.961 1151.49 480.894 1151.43C480.824 1151.37 480.783 1151.27 480.78 1151.18C480.776 1151.08 480.811 1150.99 480.876 1150.91L484.023 1147.19C484.087 1147.11 484.177 1147.06 484.275 1147.05C484.374 1147.05 484.471 1147.07 484.548 1147.14C484.585 1147.17 484.616 1147.21 484.638 1147.25C484.661 1147.29 484.674 1147.34 484.678 1147.39C484.682 1147.44 484.677 1147.49 484.662 1147.54C484.647 1147.58 484.623 1147.63 484.591 1147.66L481.444 1151.4C481.406 1151.44 481.357 1151.48 481.303 1151.5C481.249 1151.52 481.191 1151.53 481.132 1151.53V1151.53Z" fill="white"/>
<path d="M473.183 1148.46C473.084 1148.46 472.989 1148.43 472.919 1148.36C472.85 1148.29 472.81 1148.19 472.81 1148.09V1143.04C472.812 1142.94 472.852 1142.84 472.921 1142.77C472.991 1142.7 473.085 1142.66 473.183 1142.66C473.282 1142.66 473.377 1142.7 473.447 1142.77C473.516 1142.84 473.556 1142.94 473.556 1143.04V1148.09C473.556 1148.19 473.516 1148.29 473.447 1148.36C473.377 1148.43 473.282 1148.46 473.183 1148.46Z" fill="white"/>
<path d="M453.991 1178.84C453.922 1178.84 453.854 1178.82 453.797 1178.78C453.74 1178.74 453.695 1178.68 453.667 1178.62C453.639 1178.56 453.629 1178.49 453.639 1178.42C453.649 1178.35 453.678 1178.28 453.722 1178.23L457.388 1174.42C457.422 1174.39 457.463 1174.36 457.508 1174.34C457.553 1174.32 457.602 1174.31 457.651 1174.31C457.7 1174.31 457.748 1174.32 457.793 1174.34C457.839 1174.36 457.879 1174.39 457.914 1174.42C457.983 1174.49 458.022 1174.59 458.022 1174.69C458.022 1174.79 457.983 1174.88 457.914 1174.95L454.247 1178.76C454.175 1178.82 454.084 1178.85 453.991 1178.84V1178.84Z" fill="white"/>
<path d="M487.542 1180.56C487.49 1180.56 487.439 1180.55 487.392 1180.53C487.345 1180.51 487.302 1180.48 487.267 1180.44L484.01 1176.82C483.975 1176.78 483.947 1176.74 483.928 1176.7C483.909 1176.65 483.899 1176.6 483.899 1176.55C483.899 1176.51 483.909 1176.46 483.928 1176.41C483.947 1176.37 483.975 1176.33 484.01 1176.29C484.045 1176.26 484.085 1176.23 484.13 1176.21C484.176 1176.19 484.224 1176.18 484.273 1176.18C484.322 1176.18 484.371 1176.19 484.416 1176.21C484.461 1176.23 484.502 1176.26 484.536 1176.29L487.793 1179.91C487.862 1179.98 487.902 1180.08 487.902 1180.17C487.902 1180.27 487.862 1180.37 487.793 1180.44C487.727 1180.51 487.638 1180.56 487.542 1180.56V1180.56Z" fill="white"/>
<path d="M486.699 1157.87C486.609 1157.87 486.524 1157.83 486.459 1157.77C486.393 1157.71 486.352 1157.63 486.343 1157.54C486.333 1157.45 486.356 1157.36 486.406 1157.29C486.457 1157.21 486.533 1157.16 486.619 1157.14L492.149 1155.91C492.246 1155.89 492.346 1155.91 492.428 1155.97C492.511 1156.02 492.569 1156.11 492.589 1156.2C492.601 1156.25 492.603 1156.3 492.595 1156.35C492.587 1156.4 492.569 1156.44 492.543 1156.48C492.517 1156.52 492.482 1156.56 492.442 1156.59C492.401 1156.61 492.356 1156.63 492.308 1156.64L486.809 1157.87L486.699 1157.87Z" fill="white"/>
<path d="M493.408 1168.32H493.341L487.97 1167.35C487.873 1167.33 487.786 1167.27 487.73 1167.19C487.674 1167.11 487.653 1167.01 487.67 1166.91C487.688 1166.82 487.744 1166.73 487.825 1166.67C487.907 1166.62 488.007 1166.6 488.104 1166.61L493.475 1167.59C493.567 1167.6 493.649 1167.65 493.705 1167.73C493.761 1167.8 493.788 1167.9 493.779 1167.99C493.771 1168.08 493.728 1168.17 493.659 1168.23C493.591 1168.29 493.501 1168.33 493.408 1168.33V1168.32Z" fill="white"/>
<path d="M453.917 1166.08H453.85L448.492 1165.1C448.394 1165.08 448.308 1165.03 448.252 1164.95C448.196 1164.87 448.174 1164.76 448.192 1164.67C448.21 1164.57 448.266 1164.48 448.347 1164.43C448.428 1164.37 448.529 1164.35 448.626 1164.37L453.997 1165.34C454.094 1165.36 454.18 1165.41 454.236 1165.5C454.293 1165.58 454.314 1165.68 454.296 1165.78C454.281 1165.86 454.235 1165.94 454.165 1166C454.095 1166.06 454.007 1166.09 453.917 1166.08V1166.08Z" fill="white"/>
<path d="M455.634 1157.25C455.558 1157.26 455.483 1157.23 455.421 1157.19L451.07 1154.13C450.989 1154.07 450.934 1153.98 450.917 1153.89C450.899 1153.79 450.922 1153.69 450.978 1153.61C451.035 1153.53 451.122 1153.47 451.219 1153.45C451.317 1153.44 451.417 1153.46 451.498 1153.51L455.848 1156.58C455.915 1156.62 455.965 1156.68 455.992 1156.76C456.018 1156.83 456.019 1156.92 455.995 1156.99C455.971 1157.07 455.923 1157.14 455.858 1157.18C455.793 1157.23 455.714 1157.25 455.634 1157.25V1157.25Z" fill="white"/>
<path d="M462.857 1186.24C462.799 1186.24 462.742 1186.22 462.692 1186.2C462.648 1186.17 462.609 1186.14 462.577 1186.11C462.545 1186.07 462.521 1186.02 462.505 1185.98C462.49 1185.93 462.484 1185.88 462.488 1185.83C462.491 1185.78 462.505 1185.74 462.527 1185.69L464.763 1181.22C464.811 1181.14 464.888 1181.08 464.978 1181.05C465.068 1181.02 465.165 1181.03 465.249 1181.07C465.333 1181.12 465.398 1181.19 465.432 1181.28C465.465 1181.36 465.464 1181.46 465.429 1181.55L463.193 1186.03C463.161 1186.09 463.113 1186.14 463.054 1186.18C462.995 1186.22 462.926 1186.24 462.857 1186.24V1186.24Z" fill="white"/>
<path d="M476.336 1186.84C476.237 1186.84 476.142 1186.8 476.072 1186.73C476.002 1186.66 475.963 1186.57 475.963 1186.47V1181.38C475.963 1181.28 476.002 1181.19 476.072 1181.12C476.142 1181.05 476.237 1181.01 476.336 1181.01C476.435 1181.01 476.53 1181.05 476.599 1181.12C476.669 1181.19 476.709 1181.28 476.709 1181.38V1186.47C476.709 1186.57 476.669 1186.66 476.599 1186.73C476.53 1186.8 476.435 1186.84 476.336 1186.84V1186.84Z" fill="white"/>
<path d="M462.857 1150.41C462.8 1150.42 462.742 1150.41 462.689 1150.39C462.635 1150.37 462.586 1150.34 462.545 1150.3L459.374 1146.45C459.343 1146.41 459.319 1146.36 459.304 1146.32C459.29 1146.27 459.285 1146.22 459.289 1146.17C459.294 1146.12 459.308 1146.08 459.331 1146.03C459.354 1145.99 459.385 1145.95 459.423 1145.92C459.5 1145.86 459.597 1145.83 459.695 1145.84C459.794 1145.85 459.884 1145.89 459.948 1145.97L463.12 1149.82C463.151 1149.86 463.174 1149.91 463.189 1149.95C463.203 1150 463.209 1150.05 463.204 1150.1C463.2 1150.15 463.185 1150.19 463.163 1150.24C463.14 1150.28 463.108 1150.32 463.071 1150.35C463.007 1150.39 462.933 1150.41 462.857 1150.41V1150.41Z" fill="white"/>
</g>
<path d="M486.063 1133.77L487.835 1130.53C487.931 1130.36 488.091 1130.23 488.281 1130.17C488.471 1130.12 488.675 1130.14 488.85 1130.23L490.279 1131.01C490.453 1131.11 490.582 1131.27 490.638 1131.46C490.694 1131.65 490.673 1131.86 490.579 1132.03L488.935 1135.09L486.063 1133.77Z" fill="#2F2E41"/>
<path d="M482.978 1143.32C482.868 1143.32 482.759 1143.3 482.66 1143.25C482.481 1143.17 482.342 1143.01 482.275 1142.83C482.207 1142.64 482.216 1142.44 482.299 1142.26L483.998 1138.59C484.087 1138.42 484.236 1138.29 484.415 1138.23C484.594 1138.17 484.79 1138.18 484.963 1138.25C485.135 1138.33 485.272 1138.47 485.345 1138.65C485.417 1138.82 485.421 1139.02 485.355 1139.2L483.65 1142.87C483.593 1143 483.499 1143.11 483.38 1143.19C483.261 1143.27 483.121 1143.32 482.978 1143.32V1143.32Z" fill="#2F2E41"/>
<path d="M477.014 1135.11L493.011 1143.02C493.519 1142.12 493.781 1141.1 493.769 1140.06C493.757 1139.03 493.472 1138.01 492.943 1137.12C492.222 1135.97 491.152 1135.07 489.888 1134.57L484.31 1132.28C484.31 1132.28 480.876 1129.49 477.821 1133.77L477.014 1135.11Z" fill="#0071F2"/>
<path opacity="0.2" d="M477.014 1135.11L493.011 1143.02C493.519 1142.12 493.781 1141.1 493.769 1140.06C493.757 1139.03 493.472 1138.01 492.943 1137.12C492.222 1135.97 491.152 1135.07 489.888 1134.57L484.31 1132.28C484.31 1132.28 480.876 1129.49 477.821 1133.77L477.014 1135.11Z" fill="black"/>
<path d="M106.563 1122.42C106.563 1122.42 94.7943 1098.55 102.994 1083.61C102.994 1083.61 110.711 1070.87 124.991 1071.59C126.094 1071.65 127.136 1072.12 127.916 1072.9C128.695 1073.69 129.158 1074.73 129.213 1075.84C129.329 1078.38 128.541 1082.31 125.107 1088.03C125.113 1088.03 109.373 1113.46 106.563 1122.42Z" fill="#0071F2"/>
<path opacity="0.2" d="M106.563 1122.42C106.563 1122.42 94.7943 1098.55 102.994 1083.61C102.994 1083.61 110.711 1070.87 124.991 1071.59C126.094 1071.65 127.136 1072.12 127.916 1072.9C128.695 1073.69 129.158 1074.73 129.213 1075.84C129.329 1078.38 128.541 1082.31 125.107 1088.03C125.113 1088.03 109.373 1113.46 106.563 1122.42Z" fill="black"/>
<path d="M114.775 1146.13C114.706 1146.13 114.638 1146.11 114.579 1146.08C114.519 1146.04 114.471 1145.99 114.439 1145.93L107.876 1133.04C100.428 1118.12 115.422 1085.58 116.095 1084.19C116.138 1084.11 116.214 1084.04 116.306 1084.01C116.399 1083.97 116.5 1083.98 116.589 1084.02C116.634 1084.04 116.674 1084.07 116.707 1084.1C116.741 1084.14 116.767 1084.18 116.784 1084.23C116.801 1084.27 116.809 1084.32 116.807 1084.37C116.805 1084.42 116.793 1084.47 116.773 1084.51C116.614 1084.85 101.289 1118.1 108.573 1132.7L115.135 1145.59C115.157 1145.63 115.171 1145.68 115.174 1145.73C115.178 1145.78 115.172 1145.83 115.157 1145.87C115.141 1145.92 115.117 1145.96 115.085 1146C115.053 1146.04 115.014 1146.07 114.97 1146.09C114.911 1146.12 114.843 1146.14 114.775 1146.13V1146.13Z" fill="#2F2E41"/>
<path d="M109.74 1102.62C109.656 1102.62 109.575 1102.6 109.508 1102.54C109.469 1102.51 109.437 1102.48 109.413 1102.43C109.389 1102.39 109.373 1102.34 109.368 1102.29C109.362 1102.25 109.366 1102.2 109.38 1102.15C109.393 1102.1 109.416 1102.06 109.447 1102.02C109.734 1101.65 116.632 1092.87 120.934 1091.04C121.024 1091.01 121.123 1091.01 121.211 1091.05C121.298 1091.09 121.369 1091.16 121.406 1091.25C121.444 1091.33 121.446 1091.43 121.413 1091.52C121.38 1091.61 121.313 1091.69 121.227 1091.73C117.097 1093.48 110.1 1102.39 110.033 1102.48C109.999 1102.52 109.955 1102.56 109.904 1102.59C109.853 1102.61 109.797 1102.62 109.74 1102.62V1102.62Z" fill="#2F2E41"/>
<path d="M110.595 1099.89C110.511 1099.9 110.428 1099.87 110.362 1099.82C110.295 1099.76 110.248 1099.69 110.229 1099.61C108.133 1090.15 111.793 1078.49 111.83 1078.37C111.842 1078.32 111.864 1078.28 111.895 1078.24C111.926 1078.2 111.965 1078.16 112.01 1078.14C112.054 1078.11 112.103 1078.1 112.154 1078.09C112.205 1078.09 112.256 1078.09 112.304 1078.11C112.353 1078.12 112.398 1078.15 112.436 1078.18C112.474 1078.22 112.506 1078.26 112.528 1078.3C112.549 1078.35 112.562 1078.4 112.564 1078.45C112.565 1078.5 112.557 1078.55 112.538 1078.6C112.502 1078.72 108.909 1090.19 110.956 1099.44C110.967 1099.49 110.968 1099.54 110.96 1099.59C110.951 1099.64 110.934 1099.68 110.908 1099.72C110.882 1099.76 110.848 1099.8 110.808 1099.83C110.768 1099.86 110.723 1099.88 110.675 1099.89L110.595 1099.89Z" fill="#2F2E41"/>
<path d="M108.206 1108.3C108.103 1108.3 108.004 1108.26 107.931 1108.19C101.9 1101.83 104.1 1092.57 104.118 1092.48C104.144 1092.38 104.206 1092.3 104.29 1092.25C104.374 1092.2 104.474 1092.18 104.571 1092.2C104.618 1092.21 104.664 1092.23 104.703 1092.26C104.743 1092.29 104.777 1092.33 104.802 1092.37C104.828 1092.41 104.845 1092.46 104.852 1092.51C104.86 1092.56 104.857 1092.61 104.846 1092.65C104.846 1092.75 102.725 1101.61 108.475 1107.67C108.544 1107.74 108.583 1107.84 108.583 1107.94C108.583 1108.04 108.544 1108.13 108.475 1108.2C108.402 1108.27 108.306 1108.31 108.206 1108.3V1108.3Z" fill="#2F2E41"/>
<path d="M109.569 1146.13C109.487 1146.13 109.408 1146.1 109.343 1146.06C109.278 1146.01 109.231 1145.94 109.208 1145.86C105.457 1132.24 57.6868 1119.4 57.204 1119.27C57.1566 1119.26 57.1122 1119.24 57.0734 1119.21C57.0345 1119.18 57.0019 1119.14 56.9775 1119.1C56.9531 1119.06 56.9373 1119.01 56.9311 1118.96C56.9249 1118.91 56.9284 1118.86 56.9413 1118.81C56.9534 1118.77 56.9747 1118.72 57.0041 1118.68C57.0334 1118.65 57.0702 1118.61 57.1123 1118.59C57.1544 1118.56 57.2009 1118.55 57.2492 1118.54C57.2975 1118.54 57.3465 1118.54 57.3935 1118.55C59.3793 1119.08 106.062 1131.63 109.942 1145.66C109.954 1145.71 109.958 1145.76 109.952 1145.81C109.946 1145.86 109.93 1145.9 109.905 1145.95C109.881 1145.99 109.848 1146.03 109.809 1146.06C109.771 1146.09 109.726 1146.11 109.679 1146.12L109.569 1146.13Z" fill="#2F2E41"/>
</svg>
