<svg width="1609" height="3375" viewBox="0 0 1609 3375" fill="none" xmlns="http://www.w3.org/2000/svg">
<path d="M3.40992e-05 1948.68H1609L1609 3374.43H0L3.40992e-05 1948.68Z" fill="#4673C9"/>
<path d="M0 0H1609V2826.91C817.908 2529.71 831.317 3159.9 0 2826.91V0Z" fill="#FF9A03"/>
<path d="M745.765 2933.62H134.071V3304.22H745.765V2933.62Z" fill="#455A64"/>
<path d="M732.119 2923.01H118.852C81.9306 2923.01 52 2951.55 52 2986.76V2989.35C52 3024.55 81.9306 3053.09 118.852 3053.09H732.119C769.041 3053.09 798.971 3024.55 798.971 2989.35V2986.76C798.971 2951.55 769.041 2923.01 732.119 2923.01Z" fill="#455A64"/>
<path d="M746.591 3051.33C746.591 3051.82 603.685 3052.23 427.472 3052.23C251.258 3052.23 108.313 3051.82 108.313 3051.33C108.313 3050.84 251.179 3050.43 427.472 3050.43C603.764 3050.43 746.591 3050.81 746.591 3051.33Z" fill="#151A1D"/>
<path d="M215.787 3307.18C215.237 3307.18 214.804 3250.67 214.804 3181C214.804 3111.33 215.237 3054.82 215.787 3054.82C216.338 3054.82 216.731 3111.33 216.731 3181C216.731 3250.67 216.298 3307.18 215.787 3307.18Z" fill="#151A1D"/>
<path d="M602.427 3000.6C601.421 2997.46 600.62 2994.27 600.028 2991.03C598.14 2983.32 595.507 2975.79 592.163 2968.54C588.788 2961.33 584.748 2954.43 580.09 2947.91C577.968 2945.31 576.011 2942.6 574.231 2939.77C576.874 2941.98 579.213 2944.5 581.192 2947.27C591.311 2960.1 598.213 2974.97 601.365 2990.73C602.16 2993.96 602.516 2997.28 602.427 3000.6Z" fill="#151A1D"/>
<path d="M635.263 2981.17C634.948 2981.17 633.611 2977.42 630.347 2971.83C621.76 2957.07 607.989 2945.66 591.455 2939.62C585.124 2937.3 580.995 2936.59 581.034 2936.25C582.039 2936.18 583.049 2936.27 584.023 2936.51C586.693 2936.93 589.324 2937.56 591.888 2938.39C609.154 2943.89 623.424 2955.71 631.566 2971.24C632.799 2973.54 633.825 2975.93 634.634 2978.4C634.997 2979.28 635.21 2980.22 635.263 2981.17Z" fill="#151A1D"/>
<path d="M270.645 2925.71C295.066 3054.26 337.497 3186.89 397.467 3304.44H424.994C436.241 3289.44 432.505 3268.89 425.466 3251.94C418.427 3235 408.478 3218.2 408.596 3199.86C408.596 3188.61 412.528 3177.62 414.062 3166.41C419.685 3123.1 388.501 3083.5 381.265 3040.42C378.67 3024.86 380.164 3006.86 392.551 2996.4C403.405 2987.21 419.292 2986.5 433.803 2986.83C471.712 2987.7 510.21 2992.23 547.215 2984.28C584.219 2976.33 620.595 2952.19 628.263 2916.79L270.645 2925.71Z" fill="black"/>
<path d="M629.718 2522.27L749.54 2491.41C749.54 2491.41 723.9 2418.89 703.924 2366.66C686.267 2320.46 656.734 2301.22 641.24 2290.76C635.007 2286.52 627.787 2283.79 620.201 2282.81C591.809 2279.06 514.261 2269.5 475.762 2266.42C428.14 2262.67 328.727 2287.61 328.727 2287.61C328.727 2287.61 241.545 2333.73 212.13 2352.37C204.947 2356.88 199.443 2363.45 196.4 2371.12C190.973 2385.07 184.052 2409.03 175.794 2440C170.485 2459.73 153.064 2524.93 153.064 2524.93L255.308 2521.93C275.914 2581.59 295.026 2635.18 295.026 2635.18L276.504 2744.9C276.504 2744.9 416.264 2798.18 451.971 2794.39C487.678 2790.61 649.498 2731.02 649.498 2731.02C649.498 2731.02 630.976 2556.96 630.976 2551.93C630.976 2549.98 630.426 2537.35 629.718 2522.27Z" fill="#4673C9"/>
<path d="M511.823 2406.22C507.804 2401.84 502.714 2398.49 497.005 2396.45C491.297 2394.41 485.147 2393.74 479.105 2394.52C467.04 2396.19 455.598 2400.69 445.797 2407.6C414.77 2427.67 392.787 2457.93 373.322 2488.41C339.375 2541.61 310.853 2597.79 288.144 2656.18L288.931 2671.18C314.374 2668.14 330.93 2647.67 341.98 2625.62C353.03 2603.57 357.71 2579.16 367.502 2556.55C386.404 2513.09 422.565 2478.53 468.094 2460.4C475.668 2461.33 483.366 2460.53 490.552 2458.07C497.738 2455.6 504.206 2451.54 509.424 2446.23C519.334 2435.31 521.221 2417.62 511.823 2406.22Z" fill="black"/>
<path d="M630.898 2541.21C630.308 2541.21 626.965 2509.56 623.308 2470.49C619.651 2431.42 617.213 2399.65 617.763 2399.58C618.314 2399.5 621.696 2431.19 625.353 2470.3C629.01 2509.41 631.566 2541.13 630.898 2541.21Z" fill="#151A1D"/>
<path d="M228.096 2399.58C228.749 2401.17 229.249 2402.81 229.59 2404.49C230.494 2408.24 231.596 2412.63 232.933 2418.07C235.685 2429.31 239.382 2445.36 243.275 2463.06C247.168 2480.76 250.668 2496.51 253.028 2508.06C254.129 2513.54 255.033 2518.15 255.78 2521.75C256.205 2523.41 256.442 2525.1 256.488 2526.81C255.827 2525.22 255.327 2523.58 254.994 2521.9C254.089 2518.34 252.988 2513.8 251.612 2508.36C248.859 2496.89 245.202 2481.02 241.269 2463.36C237.337 2445.7 233.916 2429.91 231.517 2418.37C230.455 2412.89 229.511 2408.32 228.804 2404.72C228.374 2403.03 228.137 2401.31 228.096 2399.58Z" fill="#151A1D"/>
<path d="M612.612 2284.16C613.202 2284.16 609.741 2296.98 607.382 2312.92C605.022 2328.86 604.511 2341.98 603.882 2341.98C603.349 2339.14 603.216 2336.24 603.488 2333.36C603.693 2326.43 604.31 2319.52 605.337 2312.66C606.376 2305.8 607.834 2299 609.702 2292.3C610.278 2289.47 611.257 2286.73 612.612 2284.16Z" fill="#151A1D"/>
<path d="M629.718 2522.27C628.656 2522.57 660.195 2625.92 660.195 2625.92L567.506 2618.72L523.266 2670.39L681.233 2725.89C681.233 2725.89 779.152 2684.26 779.152 2680.48C779.152 2676.69 743.759 2492.99 743.759 2492.99L629.718 2522.27Z" fill="#886962"/>
<path d="M561.529 2534.23C562.434 2534.21 563.322 2534 564.141 2533.64C564.959 2533.27 565.69 2532.74 566.287 2532.1C567.011 2531.33 567.562 2530.44 567.907 2529.46C568.252 2528.49 568.384 2527.46 568.293 2526.43C568.089 2525.05 567.473 2523.76 566.518 2522.7C565.563 2521.64 564.309 2520.87 562.906 2520.47C561.176 2519.87 559.309 2519.72 557.497 2520.04C555.686 2520.35 553.996 2521.13 552.603 2522.27C550.961 2523.55 549.621 2525.15 548.67 2526.96C548.172 2527.92 547.777 2528.92 547.49 2529.96C547.215 2531.01 546.861 2532.17 547.49 2532.85C547.832 2533.19 548.268 2533.43 548.749 2533.54C549.23 2533.66 549.735 2533.64 550.204 2533.48C551.308 2533.2 552.278 2532.56 552.956 2531.68C553.681 2530.73 554.158 2529.62 554.35 2528.45C554.541 2527.29 554.441 2526.09 554.058 2524.97C553.46 2523.8 552.624 2522.76 551.598 2521.91C550.573 2521.05 549.378 2520.4 548.085 2519.99C546.792 2519.58 545.426 2519.43 544.068 2519.53C542.71 2519.63 541.386 2519.99 540.176 2520.59C537.407 2521.78 534.989 2523.61 533.137 2525.91C532.192 2526.98 531.579 2528.28 531.367 2529.66C531.27 2530.26 531.415 2530.88 531.772 2531.39C532.128 2531.89 532.672 2532.25 533.294 2532.4C534.009 2532.49 534.737 2532.43 535.42 2532.21C536.103 2531.99 536.722 2531.61 537.227 2531.12C538.273 2530.11 538.913 2528.79 539.035 2527.37C539.118 2525.82 538.782 2524.28 538.059 2522.88C537.336 2521.49 536.251 2520.3 534.906 2519.42C533.444 2518.57 531.808 2518.02 530.106 2517.81C528.405 2517.6 526.676 2517.74 525.036 2518.22C523.329 2518.59 521.733 2519.33 520.37 2520.37C519.007 2521.42 517.913 2522.75 517.171 2524.26C516.787 2524.97 516.567 2525.75 516.526 2526.54C516.485 2527.34 516.625 2528.13 516.935 2528.87C517.286 2529.56 517.851 2530.14 518.554 2530.51C519.258 2530.89 520.065 2531.05 520.868 2530.97C521.73 2530.95 522.573 2530.72 523.325 2530.32C524.077 2529.92 524.716 2529.35 525.187 2528.66C525.659 2527.97 525.948 2527.18 526.031 2526.37C526.115 2525.55 525.989 2524.72 525.665 2523.96C525.023 2522.3 523.822 2520.89 522.25 2519.94C520.678 2519 518.823 2518.58 516.974 2518.75C512.984 2519.08 509.247 2520.75 506.435 2523.47C504.886 2524.76 503.5 2526.22 502.306 2527.82C501.73 2528.49 501.327 2529.28 501.129 2530.13C500.93 2530.98 500.943 2531.86 501.166 2532.7C501.369 2533.03 501.639 2533.32 501.962 2533.55C502.285 2533.79 502.653 2533.96 503.046 2534.05C503.438 2534.14 503.846 2534.16 504.246 2534.1C504.646 2534.05 505.029 2533.91 505.374 2533.71C506.173 2533.28 506.825 2532.65 507.251 2531.87C507.677 2531.1 507.858 2530.23 507.772 2529.36C507.639 2527.4 507.007 2525.5 505.931 2523.83C504.855 2522.16 503.368 2520.76 501.598 2519.76C498.89 2518.17 495.675 2517.56 492.533 2518.02C489.391 2518.49 486.526 2520.01 484.453 2522.31C483.789 2523.03 483.286 2523.87 482.975 2524.78C482.664 2525.68 482.551 2526.64 482.644 2527.6C483.037 2531.35 489.565 2532.13 491.689 2528.98C492.718 2527.29 493.011 2525.28 492.504 2523.38C491.997 2521.48 490.73 2519.84 488.975 2518.82C487.105 2517.82 485.019 2517.25 482.879 2517.14C480.738 2517.03 478.6 2517.39 476.627 2518.19C474.563 2518.94 472.586 2519.89 470.729 2521.04C468.899 2522.01 467.315 2523.35 466.088 2524.97C465.542 2525.7 465.216 2526.56 465.146 2527.45C465.077 2528.34 465.267 2529.24 465.695 2530.03C465.856 2530.4 466.097 2530.73 466.403 2531C466.708 2531.27 467.071 2531.47 467.466 2531.6C467.861 2531.72 468.279 2531.76 468.693 2531.72C469.107 2531.68 469.506 2531.55 469.863 2531.35C470.636 2530.89 471.25 2530.23 471.628 2529.44C472.005 2528.65 472.13 2527.78 471.987 2526.92C471.72 2525.04 470.887 2523.27 469.588 2521.82C468.329 2520.36 466.712 2519.22 464.881 2518.5C463.049 2517.79 461.06 2517.51 459.089 2517.7C457.153 2517.87 455.292 2518.5 453.673 2519.53C452.054 2520.56 450.726 2521.95 449.808 2523.58C449.385 2524.33 449.138 2525.15 449.084 2525.99C449.029 2526.83 449.169 2527.67 449.493 2528.46C449.848 2529.13 450.425 2529.68 451.135 2530.01C451.845 2530.34 452.65 2530.44 453.426 2530.3C454.268 2530.2 455.07 2529.9 455.758 2529.43C456.446 2528.96 456.997 2528.33 457.358 2527.6C457.708 2526.83 457.889 2526.01 457.889 2525.18C457.889 2524.35 457.708 2523.52 457.358 2522.76C456.594 2521.2 455.428 2519.86 453.97 2518.85C452.512 2517.84 450.81 2517.2 449.021 2516.99C445.462 2516.23 441.761 2516.32 438.246 2517.25C436.603 2517.6 435.092 2518.38 433.873 2519.49C432.655 2520.6 431.774 2522 431.325 2523.55C430.968 2525.04 431.165 2526.6 431.882 2527.97C432.599 2529.34 433.793 2530.43 435.258 2531.05C436.727 2531.31 438.247 2531.02 439.49 2530.23C440.733 2529.43 441.6 2528.21 441.904 2526.81C442.205 2525.39 442.14 2523.92 441.715 2522.53C441.291 2521.14 440.519 2519.87 439.466 2518.82C437.468 2516.69 434.834 2515.18 431.915 2514.51C429.171 2513.87 426.305 2513.88 423.565 2514.53C420.825 2515.19 418.292 2516.47 416.185 2518.26C414.244 2519.89 412.872 2522.05 412.253 2524.45C411.97 2525.52 412.008 2526.65 412.362 2527.7C412.717 2528.76 413.374 2529.69 414.258 2530.41C415.064 2531.06 416.093 2531.4 417.147 2531.36C418.201 2531.33 419.204 2530.92 419.961 2530.22C420.71 2529.58 421.279 2528.77 421.615 2527.87C421.952 2526.96 422.046 2525.99 421.887 2525.05C421.586 2523.24 420.826 2521.53 419.675 2520.07C418.524 2518.6 417.015 2517.43 415.281 2516.65C412.665 2515.29 409.629 2514.85 406.708 2515.41C404.555 2515.85 402.544 2516.77 400.849 2518.11C399.473 2519.26 398.304 2520.61 397.388 2522.12C397.525 2521.69 397.71 2521.28 397.939 2520.89C398.632 2519.73 399.522 2518.69 400.573 2517.81C402.27 2516.35 404.326 2515.32 406.551 2514.81C409.636 2514.15 412.866 2514.55 415.674 2515.94C417.469 2516.76 419.034 2517.98 420.243 2519.49C421.453 2521 422.272 2522.77 422.635 2524.63C422.819 2525.75 422.714 2526.89 422.33 2527.95C421.947 2529.02 421.295 2529.98 420.432 2530.75C419.474 2531.62 418.212 2532.13 416.886 2532.18C415.56 2532.23 414.262 2531.81 413.236 2531.01C412.169 2530.17 411.368 2529.06 410.923 2527.81C410.479 2526.55 410.408 2525.21 410.719 2523.92C411.27 2521.3 412.641 2518.89 414.652 2517.02C416.908 2515.05 419.638 2513.64 422.6 2512.92C425.563 2512.19 428.667 2512.17 431.64 2512.86C434.889 2513.57 437.828 2515.22 440.055 2517.59C441.288 2518.81 442.189 2520.31 442.682 2521.94C443.175 2523.57 443.246 2525.3 442.887 2526.96C442.374 2528.7 441.285 2530.24 439.78 2531.35C438.985 2531.93 438.058 2532.32 437.075 2532.49C436.091 2532.67 435.079 2532.62 434.117 2532.36C433.17 2532.06 432.301 2531.57 431.568 2530.92C430.836 2530.28 430.257 2529.49 429.87 2528.61C429.006 2526.9 428.718 2524.97 429.045 2523.1C429.566 2521.26 430.598 2519.6 432.031 2518.28C433.464 2516.96 435.245 2516.03 437.185 2515.6C441.021 2514.53 445.075 2514.39 448.982 2515.19C451.075 2515.47 453.061 2516.25 454.762 2517.45C456.464 2518.65 457.829 2520.23 458.735 2522.05C459.173 2523.04 459.398 2524.1 459.398 2525.18C459.398 2526.25 459.173 2527.32 458.735 2528.31C458.231 2529.32 457.47 2530.19 456.522 2530.84C455.574 2531.5 454.469 2531.92 453.308 2532.06C452.093 2532.29 450.832 2532.14 449.717 2531.63C448.602 2531.11 447.694 2530.26 447.134 2529.21C446.675 2528.16 446.465 2527.03 446.519 2525.89C446.573 2524.76 446.891 2523.65 447.448 2522.65C448.532 2520.71 450.102 2519.05 452.02 2517.82C453.937 2516.6 456.142 2515.85 458.438 2515.63C460.734 2515.42 463.051 2515.75 465.181 2516.59C467.312 2517.44 469.19 2518.77 470.65 2520.47C472.243 2522.19 473.244 2524.34 473.521 2526.62C473.703 2527.86 473.503 2529.11 472.943 2530.24C472.384 2531.37 471.491 2532.31 470.375 2532.96C469.793 2533.3 469.141 2533.52 468.463 2533.61C467.785 2533.69 467.097 2533.64 466.442 2533.45C465.124 2533 464.039 2532.09 463.414 2530.9C462.803 2529.78 462.52 2528.53 462.596 2527.28C462.672 2526.02 463.105 2524.81 463.847 2523.77C465.237 2521.89 467.051 2520.33 469.156 2519.2C471.132 2517.97 473.241 2516.95 475.448 2516.16C477.727 2515.24 480.197 2514.84 482.666 2514.99C485.135 2515.13 487.537 2515.81 489.683 2516.99C490.813 2517.63 491.796 2518.48 492.575 2519.49C493.355 2520.5 493.915 2521.65 494.223 2522.87C494.53 2524.09 494.58 2525.35 494.367 2526.59C494.155 2527.83 493.686 2529.01 492.986 2530.07C492.166 2531.12 491.061 2531.93 489.793 2532.41C488.525 2532.9 487.141 2533.05 485.79 2532.85C484.342 2532.72 482.97 2532.17 481.857 2531.27C480.812 2530.37 480.119 2529.15 479.891 2527.82C479.742 2526.59 479.865 2525.34 480.251 2524.15C480.637 2522.96 481.278 2521.86 482.133 2520.92C484.534 2518.22 487.871 2516.44 491.537 2515.89C495.203 2515.34 498.955 2516.06 502.11 2517.92C504.172 2519.1 505.902 2520.74 507.149 2522.7C508.396 2524.66 509.123 2526.88 509.267 2529.17C509.334 2530.41 509.035 2531.65 508.402 2532.74C507.769 2533.82 506.829 2534.72 505.688 2535.32C504.468 2535.89 503.082 2536.05 501.756 2535.77C501.069 2535.63 500.426 2535.33 499.88 2534.91C499.334 2534.48 498.899 2533.95 498.61 2533.33C498.241 2532.19 498.166 2530.97 498.392 2529.79C498.617 2528.61 499.137 2527.5 499.907 2526.55C501.192 2524.8 502.698 2523.22 504.391 2521.82C507.545 2518.81 511.732 2516.97 516.188 2516.65C518.47 2516.53 520.738 2517.06 522.716 2518.15C524.671 2519.32 526.132 2521.11 526.845 2523.21C527.216 2524.25 527.342 2525.36 527.213 2526.46C527.084 2527.55 526.703 2528.61 526.098 2529.55C525.44 2530.45 524.574 2531.2 523.564 2531.73C522.555 2532.27 521.43 2532.57 520.278 2532.62C519.102 2532.7 517.929 2532.44 516.908 2531.87C515.886 2531.31 515.061 2530.48 514.536 2529.47C514.105 2528.5 513.903 2527.45 513.944 2526.39C513.985 2525.34 514.267 2524.3 514.772 2523.36C515.64 2521.6 516.921 2520.05 518.517 2518.83C520.112 2517.62 521.98 2516.77 523.974 2516.35C525.863 2515.82 527.849 2515.67 529.801 2515.92C531.753 2516.18 533.627 2516.82 535.3 2517.81C536.898 2518.86 538.183 2520.28 539.031 2521.94C539.879 2523.61 540.26 2525.45 540.137 2527.3C540.127 2528.24 539.909 2529.17 539.498 2530.03C539.086 2530.88 538.49 2531.65 537.748 2532.27C537.006 2532.89 536.135 2533.36 535.191 2533.64C534.248 2533.92 533.253 2534.01 532.272 2533.9C531.259 2533.66 530.37 2533.09 529.776 2532.27C529.181 2531.45 528.922 2530.46 529.047 2529.47C529.308 2527.77 530.056 2526.18 531.21 2524.86C533.261 2522.42 535.889 2520.48 538.878 2519.2C541.7 2517.91 544.941 2517.74 547.891 2518.74C550.841 2519.73 553.257 2521.8 554.608 2524.48C555.071 2525.8 555.188 2527.21 554.948 2528.59C554.708 2529.96 554.119 2531.25 553.232 2532.36C552.365 2533.46 551.13 2534.24 549.732 2534.57C549.026 2534.77 548.273 2534.77 547.571 2534.55C546.869 2534.34 546.252 2533.93 545.799 2533.37C545.54 2532.78 545.406 2532.14 545.406 2531.5C545.406 2530.85 545.54 2530.22 545.799 2529.62C546.132 2528.53 546.58 2527.48 547.136 2526.47C548.159 2524.54 549.592 2522.83 551.344 2521.45C552.884 2520.24 554.731 2519.44 556.699 2519.13C558.667 2518.82 560.686 2519.01 562.552 2519.69C564.081 2520.15 565.437 2521.03 566.455 2522.21C567.474 2523.4 568.112 2524.84 568.293 2526.36C568.356 2527.46 568.182 2528.56 567.783 2529.59C567.384 2530.62 566.768 2531.56 565.973 2532.36C565.436 2532.98 564.755 2533.47 563.983 2533.8C563.212 2534.12 562.372 2534.27 561.529 2534.23Z" fill="#151A1D"/>
<path d="M396.641 2523.43L342.53 2718.42L514.576 2723.6L568.686 2531.01L396.641 2523.43Z" fill="#455A64"/>
<path d="M396.641 2523.43L389.759 2524.03L335.177 2704.14L343.474 2715.01L396.641 2523.43Z" fill="#E0E0E0"/>
<path d="M510.525 2573.12H566.405C569.037 2573.08 571.621 2573.79 573.827 2575.16C576.033 2576.53 577.762 2578.5 578.793 2580.81C581.026 2585.65 582.126 2590.89 582.017 2596.18C584.429 2599.31 585.799 2603.06 585.95 2606.94C586.512 2616.67 586.512 2626.42 585.95 2636.15C585.439 2637.69 579.501 2639.23 579.501 2639.23C579.501 2639.23 583.433 2647.44 580.051 2653.55C578.466 2656.99 575.59 2659.73 571.99 2661.24C571.99 2661.24 564.478 2677.66 556.928 2679.69C549.378 2681.71 542.457 2679.69 538.682 2679.69C534.906 2679.69 474.189 2649.99 474.189 2649.99V2643.32C474.189 2643.32 452.718 2645.38 452.167 2634.09C451.617 2622.8 466.128 2623.52 466.128 2623.52H498.924C498.924 2623.52 462.903 2624.87 459.6 2619.77C456.297 2614.67 452.049 2602.33 463.06 2600.31C474.071 2598.28 523.778 2598.24 523.778 2598.24L550.911 2602.52H555.198L551.855 2591.27C551.855 2591.27 523.384 2591.27 519.137 2590.71C514.89 2590.14 506.868 2589.17 506.868 2582.01C506.868 2574.84 510.525 2573.12 510.525 2573.12Z" fill="#886962"/>
<path d="M541.945 2626.67C538.507 2627.25 535.013 2627.48 531.524 2627.34C525.075 2627.34 516.149 2627.34 506.317 2626.67C496.486 2625.99 487.599 2625.09 481.228 2624.23C477.742 2623.94 474.3 2623.29 470.965 2622.28C474.447 2622.13 477.935 2622.29 481.386 2622.77C487.795 2623.29 496.643 2624 506.435 2624.6C516.227 2625.2 525.115 2625.58 531.524 2625.88C535.017 2625.81 538.508 2626.07 541.945 2626.67Z" fill="#2B2625"/>
<path d="M536.873 2655.39C533.768 2655.7 530.633 2655.61 527.553 2655.13C521.851 2654.64 513.986 2653.78 505.334 2652.43C496.683 2651.08 488.936 2649.58 483.352 2648.27C480.284 2647.76 477.288 2646.92 474.425 2645.75C477.539 2645.78 480.64 2646.14 483.666 2646.84L505.688 2650.4L527.749 2653.7C530.843 2653.96 533.901 2654.53 536.873 2655.39Z" fill="#2B2625"/>
<path d="M583.669 2615.12C583.669 2615.12 584.455 2615.34 585.635 2616.28C587.267 2617.65 588.511 2619.39 589.253 2621.34C590.464 2624.4 590.393 2627.78 589.056 2630.79C588.179 2632.7 586.854 2634.39 585.184 2635.74C583.514 2637.08 581.543 2638.05 579.422 2638.55L580.051 2637.09C581.311 2639.14 582.103 2641.42 582.374 2643.78C582.645 2646.14 582.39 2648.52 581.625 2650.78C580.86 2653.04 579.602 2655.12 577.935 2656.89C576.267 2658.65 574.228 2660.06 571.95 2661.01L572.579 2660.34C570.671 2667.28 566.43 2673.43 560.507 2677.85C558.82 2679.09 557.001 2680.16 555.08 2681.04C554.416 2681.41 553.681 2681.65 552.917 2681.75C552.917 2681.49 555.709 2680.25 559.681 2676.91C565.042 2672.42 568.853 2666.49 570.613 2659.89V2659.4L571.085 2659.21C573.071 2658.35 574.847 2657.1 576.298 2655.54C577.749 2653.98 578.844 2652.16 579.513 2650.17C580.183 2648.19 580.412 2646.1 580.187 2644.03C579.961 2641.95 579.285 2639.95 578.203 2638.14L577.416 2636.98L578.832 2636.64C580.672 2636.23 582.391 2635.43 583.862 2634.3C585.332 2633.18 586.517 2631.74 587.326 2630.12C588.626 2627.49 588.85 2624.49 587.955 2621.72C587.039 2619.25 585.577 2617 583.669 2615.12Z" fill="#2B2625"/>
<path d="M451.971 2361.63L486.458 2295.41L475.762 2266.39C475.762 2266.39 527.513 2240.78 509.817 2188.5C501.284 2163.27 479.262 2112.65 458.695 2067.05C448.068 2043.43 428.505 2024.49 403.898 2014C379.291 2003.5 351.443 2002.23 325.896 2010.43L320.626 2012.11C264.943 2033.49 252.87 2090.52 276.819 2143.02L346.856 2338.01L451.971 2361.63Z" fill="#886962"/>
<path d="M475.801 2266.24C450.75 2274.76 423.605 2275.99 397.821 2269.76C397.821 2269.76 427.865 2301.82 480.717 2279.66L475.801 2266.24Z" fill="#2B2625"/>
<path d="M460.622 2108.15C461.323 2110.08 461.205 2112.19 460.294 2114.04C459.384 2115.89 457.752 2117.33 455.746 2118.04C454.78 2118.44 453.74 2118.65 452.688 2118.66C451.636 2118.66 450.593 2118.47 449.621 2118.08C448.649 2117.7 447.769 2117.13 447.031 2116.42C446.293 2115.7 445.713 2114.85 445.325 2113.92C444.624 2111.99 444.742 2109.87 445.653 2108.03C446.564 2106.18 448.196 2104.74 450.201 2104.02C451.168 2103.62 452.208 2103.42 453.26 2103.41C454.312 2103.4 455.354 2103.6 456.326 2103.98C457.298 2104.37 458.179 2104.93 458.917 2105.65C459.655 2106.36 460.235 2107.21 460.622 2108.15Z" fill="#151A1D"/>
<path d="M455.864 2093.15C455.235 2094.42 447.999 2092.17 439.505 2094.87C431.011 2097.57 426.37 2103.57 425.112 2102.86C424.522 2102.6 424.876 2100.5 426.921 2097.8C429.702 2094.27 433.563 2091.65 437.971 2090.3C442.355 2088.94 447.076 2088.94 451.46 2090.3C454.606 2091.08 456.179 2092.58 455.864 2093.15Z" fill="#151A1D"/>
<path d="M383.428 2132.56C384.13 2134.49 384.014 2136.61 383.103 2138.47C382.193 2140.32 380.56 2141.77 378.552 2142.49C377.585 2142.89 376.545 2143.1 375.493 2143.1C374.441 2143.11 373.399 2142.92 372.427 2142.53C371.455 2142.15 370.574 2141.58 369.836 2140.87C369.098 2140.15 368.518 2139.3 368.131 2138.37C367.429 2136.43 367.545 2134.31 368.455 2132.46C369.366 2130.6 370.998 2129.16 373.007 2128.43C373.973 2128.03 375.013 2127.83 376.065 2127.82C377.117 2127.81 378.16 2128.01 379.132 2128.39C380.104 2128.78 380.984 2129.34 381.722 2130.06C382.46 2130.77 383.04 2131.62 383.428 2132.56Z" fill="#151A1D"/>
<path d="M374.383 2116.84C373.872 2118.19 366.282 2116.84 358.26 2120.26C350.238 2123.67 346.227 2130.23 344.89 2129.71C344.261 2129.48 344.379 2127.38 346.109 2124.46C348.454 2120.62 352.002 2117.58 356.255 2115.76C360.425 2113.9 365.11 2113.36 369.625 2114.22C372.968 2114.93 374.619 2116.24 374.383 2116.84Z" fill="#151A1D"/>
<path d="M425.466 2173.65C429.405 2170.9 433.701 2168.65 438.246 2166.94C440.331 2166.04 442.179 2164.99 442.179 2163.49C442.179 2161.99 440.488 2159.93 438.64 2157.87L426.842 2144.37C410.247 2125.02 397.428 2108.86 398.253 2108.22C399.079 2107.58 413.197 2122.77 429.713 2141.97L441.274 2155.66C443.491 2157.7 444.883 2160.42 445.207 2163.34C445.143 2164.16 444.887 2164.96 444.458 2165.67C444.03 2166.39 443.439 2167 442.729 2167.47C441.651 2168.14 440.489 2168.68 439.269 2169.08C434.891 2171.16 430.253 2172.7 425.466 2173.65Z" fill="#151A1D"/>
<path d="M362.979 2089.17C362.979 2091.61 354.17 2093.26 344.732 2097.53C335.295 2101.81 328.216 2106.95 326.211 2105.41C325.306 2104.66 325.975 2102.18 328.452 2099.03C331.836 2095.09 336.114 2091.93 340.963 2089.78C345.812 2087.64 351.107 2086.57 356.451 2086.66C360.541 2086.7 362.979 2087.82 362.979 2089.17Z" fill="#151A1D"/>
<path d="M445.875 2071.62C445.05 2073.95 438.6 2073.91 431.601 2076.05C424.601 2078.18 419.213 2081.37 417.168 2079.8C416.264 2079.05 416.539 2076.95 418.506 2074.4C421.239 2071.23 424.893 2068.91 429.008 2067.72C433.122 2066.54 437.514 2066.54 441.628 2067.72C444.735 2068.92 446.229 2070.42 445.875 2071.62Z" fill="#151A1D"/>
<path d="M294.869 2179.95C293.807 2179.95 253.617 2181.38 267.342 2216.59C281.066 2251.8 315.318 2231.59 315.003 2230.35C314.689 2229.11 294.869 2179.95 294.869 2179.95Z" fill="#886962"/>
<path d="M298.526 2221.01C298.329 2221.01 298.054 2221.69 297.15 2222.55C295.865 2223.71 294.161 2224.36 292.391 2224.35C287.948 2224.35 282.364 2219.63 279.729 2213.33C278.436 2210.35 277.871 2207.13 278.077 2203.92C277.994 2202.69 278.226 2201.47 278.754 2200.35C279.282 2199.23 280.089 2198.25 281.105 2197.5C281.777 2197.08 282.582 2196.89 283.384 2196.96C284.187 2197.04 284.938 2197.37 285.51 2197.92C286.375 2198.7 286.414 2199.49 286.65 2199.49C286.886 2199.49 287.201 2198.63 286.335 2197.28C285.783 2196.48 284.966 2195.89 284.015 2195.59C282.708 2195.21 281.298 2195.33 280.083 2195.93C278.673 2196.76 277.51 2197.91 276.705 2199.29C275.899 2200.67 275.478 2202.22 275.482 2203.8C275.103 2207.4 275.657 2211.03 277.094 2214.38C280.083 2221.39 286.493 2226.71 292.391 2226.26C293.492 2226.19 294.561 2225.88 295.52 2225.36C296.48 2224.84 297.305 2224.13 297.936 2223.26C298.801 2221.91 298.683 2221.05 298.526 2221.01Z" fill="#2B2625"/>
<path d="M402.697 2187.12C404.034 2186.59 407.141 2195.29 417.09 2198.93C427.039 2202.57 436.438 2198.55 436.752 2199.72C437.067 2200.24 435.179 2202.12 431.129 2203.47C425.824 2205.25 420.028 2205.18 414.77 2203.28C409.716 2201.46 405.599 2197.84 403.287 2193.19C401.793 2189.74 402.068 2187.27 402.697 2187.12Z" fill="#151A1D"/>
<path d="M472.144 1989.95C470.451 1986.72 467.939 1983.94 464.835 1981.86C461.732 1979.79 458.135 1978.48 454.37 1978.06C453.644 1976.1 452.722 1974.2 451.617 1972.4C448.212 1966.93 442.942 1962.74 436.686 1960.53C430.431 1958.32 423.569 1958.22 417.247 1960.25C414.611 1956.02 410.815 1952.55 406.266 1950.22C401.717 1947.89 396.588 1946.79 391.431 1947.03C386.274 1947.28 381.284 1948.86 376.999 1951.6C372.713 1954.35 369.293 1958.15 367.108 1962.62C361.073 1960.3 354.468 1959.7 348.081 1960.87C341.693 1962.04 335.794 1964.94 331.087 1969.22C329.857 1970.2 328.944 1971.5 328.452 1972.97C328.341 1973.47 328.34 1973.99 328.448 1974.49C328.556 1974.99 328.772 1975.47 329.081 1975.89C326.411 1973.83 323.258 1972.41 319.889 1971.75C316.521 1971.1 313.037 1971.23 309.734 1972.14C307.499 1972.8 305.398 1973.81 303.52 1975.14C297.779 1977.53 293.237 1981.95 290.858 1987.48C282.494 1987.6 274.466 1990.64 268.292 1996.02C262.119 2001.4 258.227 2008.75 257.353 2016.69C251.388 2019.06 246.299 2023.08 242.734 2028.22C239.17 2033.36 237.291 2039.4 237.337 2045.56C233.469 2047.09 230.098 2049.58 227.572 2052.77C225.046 2055.95 223.455 2059.72 222.962 2063.69C222.47 2067.66 223.094 2071.68 224.77 2075.34C226.446 2079 229.114 2082.17 232.5 2084.52C232.5 2084.52 208.355 2098.55 222.983 2118.61C230.455 2128.88 245.792 2121.76 245.792 2121.76L291.172 2187.27C290.976 2187.72 299.037 2194.5 302.97 2191.24C306.902 2187.98 307.807 2182.77 309.026 2177.97C310.892 2172.62 311.861 2167.03 311.896 2161.39C311.84 2158.58 310.829 2155.85 309.014 2153.63C307.2 2151.4 304.679 2149.8 301.829 2149.06C304.538 2146.81 306.579 2143.92 307.746 2140.68C308.912 2137.44 309.164 2133.97 308.475 2130.61C307.049 2123.9 304.386 2117.49 300.61 2111.67L285.392 2085.16C292.094 2082.73 297.974 2078.61 302.396 2073.23C306.818 2067.85 309.613 2061.42 310.481 2054.64C313.534 2055.48 316.74 2055.69 319.886 2055.26C323.032 2054.83 326.048 2053.78 328.734 2052.16C331.42 2050.54 333.716 2048.4 335.471 2045.87C337.225 2043.34 338.398 2040.49 338.912 2037.5C343.556 2043.04 350.23 2046.69 357.586 2047.72C364.942 2048.75 372.435 2047.08 378.552 2043.05C379.653 2050.89 395.933 2053.29 404.231 2052.8C412.528 2052.31 420.236 2044.14 420.236 2044.14C425.805 2045.22 431.533 2045.33 437.145 2044.47L437.971 2044.29C448.864 2041.89 455.943 2029.29 457.948 2018.98C460.797 2018.39 463.48 2017.23 465.813 2015.56C469.685 2012.56 472.406 2008.42 473.551 2003.78C474.696 1999.15 474.202 1994.29 472.144 1989.95Z" fill="#151A1D"/>
<path d="M165.452 2524.52C165.452 2524.52 141.503 2607.02 136.233 2627.34C130.964 2647.67 131.003 2694.43 142.879 2708.3C154.755 2722.17 194.473 2730.99 194.473 2730.99C194.473 2730.99 272.218 2694.8 298.644 2650.67C325.07 2606.53 397.467 2486.42 397.467 2486.42L374.541 2426.43L254.05 2536.15L255.269 2521.9L165.452 2524.52Z" fill="#886962"/>
<path d="M417.09 2237.36C418.081 2236.89 419.162 2236.6 420.27 2236.52C421.378 2236.44 422.491 2236.57 423.547 2236.9C424.602 2237.23 425.579 2237.76 426.421 2238.45C427.263 2239.14 427.954 2239.98 428.455 2240.93L497.863 2372.58L480.088 2380.08L413.236 2247.98C412.305 2246.08 412.187 2243.91 412.907 2241.92C413.626 2239.94 415.127 2238.31 417.09 2237.36Z" fill="#455A64"/>
<path d="M370.687 2430.4L435.494 2366.66H497.627L537.423 2416.75C537.423 2416.75 518.587 2420.09 511.823 2410.45L503.053 2398.53C503.053 2398.53 511.823 2416.87 506.986 2425.9C506.986 2425.9 497.666 2446.83 496.172 2449.08C493.34 2453.28 491.177 2455.98 483.076 2454.7C474.976 2453.43 462.392 2447.2 463.768 2442.63C464.193 2441.33 464.982 2440.16 466.049 2439.26C467.116 2438.35 468.421 2437.74 469.824 2437.49L450.909 2434.9C450.909 2434.9 431.876 2467.79 420.393 2475.51C413.308 2480.23 405.547 2483.96 397.349 2486.57L370.687 2430.4Z" fill="#886962"/>
<path d="M256.488 2534.23C256.488 2534.53 251.258 2536.93 243 2541.51C232.284 2547.51 222.209 2554.49 212.916 2562.36C203.646 2570.29 195.228 2579.08 187.788 2588.61C182.047 2595.88 178.94 2600.72 178.665 2600.53C179.138 2599.28 179.758 2598.09 180.513 2596.97C181.811 2594.72 183.856 2591.57 186.608 2587.78C201.023 2568.04 220.078 2551.78 242.253 2540.31C246.5 2538.13 250.117 2536.56 252.516 2535.58C253.781 2534.99 255.114 2534.54 256.488 2534.23Z" fill="#2B2625"/>
<path d="M449.769 2385.03C452.728 2384.21 455.776 2383.72 458.853 2383.57C464.515 2382.89 472.341 2382.14 480.953 2381.39C483.133 2381.13 485.34 2381.13 487.52 2381.39C489.616 2381.68 491.61 2382.44 493.34 2383.6C496.16 2385.53 498.42 2388.11 499.907 2391.1C501.415 2393.71 502.402 2396.56 502.818 2399.5C502.503 2399.5 501.323 2396.43 498.649 2391.74C497.111 2389.07 494.944 2386.77 492.318 2385.03C490.778 2384.09 489.051 2383.46 487.245 2383.19C485.22 2382.97 483.175 2382.97 481.15 2383.19C472.498 2383.9 464.673 2384.47 458.971 2384.77C455.922 2385.17 452.837 2385.25 449.769 2385.03Z" fill="#2B2625"/>
<path d="M499.239 2445.7C498.924 2445.7 499.514 2441.2 499.239 2434.04C499.006 2429.85 498.414 2425.69 497.469 2421.59C496.408 2417.09 494.874 2411.69 490.155 2409.07C487.747 2407.85 485.163 2406.97 482.487 2406.48L474.858 2404.83C470.557 2403.91 466.195 2403.27 461.802 2402.92C457.749 2402.78 453.691 2402.88 449.651 2403.22C450.627 2402.68 451.713 2402.34 452.836 2402.24C455.814 2401.69 458.847 2401.45 461.881 2401.53C466.362 2401.68 470.822 2402.19 475.212 2403.07C477.689 2403.52 480.284 2404.04 483.077 2404.64C485.951 2405.13 488.725 2406.06 491.295 2407.38C493.903 2408.89 495.941 2411.14 497.115 2413.83C498.187 2416.23 498.953 2418.75 499.396 2421.33C500.296 2425.54 500.77 2429.82 500.812 2434.11C500.861 2437 500.677 2439.88 500.261 2442.74C500.089 2443.77 499.744 2444.77 499.239 2445.7Z" fill="#2B2625"/>
<path d="M476.745 2424.29C477.686 2428.18 478.018 2432.19 477.728 2436.18V2437.34L476.509 2437.11C475.816 2437.06 475.119 2437.06 474.425 2437.11C471.16 2437.23 468.077 2438.58 465.852 2440.86C464.083 2442.63 463.532 2444.13 463.218 2444.01C462.903 2443.9 463.218 2442.21 464.751 2440C465.879 2438.57 467.338 2437.4 469.015 2436.58C470.693 2435.77 472.544 2435.34 474.425 2435.31C475.271 2435.32 476.114 2435.41 476.942 2435.58L475.723 2436.51C475.416 2432.41 475.761 2428.29 476.745 2424.29Z" fill="#2B2625"/>
<path d="M476.824 2426.28C472.62 2426.45 468.409 2426.26 464.24 2425.72C460.019 2425.82 455.796 2425.58 451.617 2425C455.691 2423.65 460.042 2423.22 464.319 2423.77C468.635 2423.67 472.916 2424.53 476.824 2426.28Z" fill="#2B2625"/>
<path d="M452.639 2423.2C452.877 2427.49 451.913 2431.76 449.847 2435.58C448.427 2439.66 445.904 2443.32 442.533 2446.19C442.061 2445.85 445.207 2441.16 447.96 2434.94C450.712 2428.71 452.049 2423.09 452.639 2423.2Z" fill="#2B2625"/>
<path d="M701.014 3144.03L695.429 3313.78L916.866 3321.5C916.355 3301.29 803.336 3256.78 803.336 3256.78L811.634 3148.04L701.014 3144.03Z" fill="#FF9A03"/>
<path d="M735.226 3245.23C733.071 3245.78 731.202 3247.07 729.976 3248.84C728.751 3250.62 728.254 3252.77 728.58 3254.87C729.072 3256.94 730.378 3258.75 732.229 3259.93C734.08 3261.11 736.335 3261.57 738.529 3261.21C740.813 3260.64 742.792 3259.28 744.08 3257.39C745.367 3255.51 745.87 3253.23 745.49 3251.01C744.75 3248.9 743.18 3247.14 741.112 3246.12C739.044 3245.09 736.637 3244.87 734.4 3245.5" fill="white"/>
<path d="M695.429 3313.78L696.688 3296.68L908.53 3310.48C908.53 3310.48 918.243 3314.94 916.866 3321.5L695.429 3313.78Z" fill="white"/>
<path d="M806.993 3255.84C806.993 3256.86 801.488 3257.16 796.022 3260.27C790.556 3263.38 787.567 3267.77 786.584 3267.21C785.601 3266.64 787.449 3260.87 794.134 3257.19C800.819 3253.52 807.229 3254.91 806.993 3255.84Z" fill="#151A1D"/>
<path d="M829.841 3265.82C830.077 3266.83 825.319 3268.41 821.465 3272.64C817.611 3276.88 816.392 3281.46 815.33 3281.38C814.268 3281.31 813.797 3275.42 818.673 3270.13C823.549 3264.84 829.88 3264.84 829.841 3265.82Z" fill="#151A1D"/>
<path d="M842.032 3292.85C841.049 3292.85 839.712 3287.83 842.74 3282.28C845.768 3276.73 850.84 3274.78 851.273 3275.53C851.706 3276.28 848.442 3279.28 846.082 3283.93C843.723 3288.58 843.093 3292.85 842.032 3292.85Z" fill="#151A1D"/>
<path d="M805.971 3230.87C805.499 3231.81 800.584 3230.2 794.449 3230.38C788.314 3230.57 783.477 3232.26 782.966 3231.36C782.455 3230.46 787.174 3226.93 794.37 3226.82C801.567 3226.71 806.561 3230.08 805.971 3230.87Z" fill="#151A1D"/>
<path d="M801.685 3205.63C801.685 3206.08 797.359 3206.57 790.595 3205.18C786.622 3204.38 782.766 3203.12 779.112 3201.43C776.945 3200.43 774.856 3199.27 772.86 3197.99C771.637 3197.29 770.535 3196.42 769.596 3195.4C768.921 3194.64 768.528 3193.68 768.478 3192.69C768.428 3191.69 768.724 3190.71 769.32 3189.89C769.892 3189.19 770.628 3188.63 771.468 3188.25C772.308 3187.87 773.229 3187.69 774.157 3187.71C775.562 3187.74 776.954 3187.96 778.286 3188.39C780.638 3189 782.917 3189.84 785.09 3190.9C788.775 3192.63 792.147 3194.9 795.078 3197.65C800.033 3202.37 801.645 3206.27 801.291 3206.46C800.937 3206.65 798.381 3203.46 793.426 3199.52C790.459 3197.26 787.21 3195.36 783.753 3193.86C781.713 3193.02 779.61 3192.33 777.461 3191.8C775.101 3191.12 773.135 3191.01 772.466 3191.8C772.27 3192.17 772.23 3192.32 772.702 3193C773.386 3193.74 774.181 3194.39 775.062 3194.91C776.989 3196.19 778.994 3197.31 780.803 3198.32C784.181 3200.06 787.723 3201.49 791.382 3202.6C794.886 3203.38 798.329 3204.39 801.685 3205.63Z" fill="#151A1D"/>
<path d="M800.19 3207.06C799.797 3207.06 797.831 3203.31 797.674 3196.75C797.62 3190.47 799.36 3184.3 802.707 3178.9C803.361 3177.53 804.373 3176.34 805.647 3175.44C806.921 3174.55 808.413 3173.98 809.982 3173.8C810.966 3173.86 811.911 3174.19 812.711 3174.74C813.51 3175.29 814.132 3176.04 814.505 3176.91C815.028 3178.17 815.359 3179.5 815.488 3180.85C815.774 3183.22 815.681 3185.62 815.212 3187.97C814.444 3191.91 812.675 3195.6 810.061 3198.73C805.539 3204.06 800.977 3205.11 800.898 3204.77C800.82 3204.43 804.398 3202.37 807.898 3197.27C809.953 3194.31 811.296 3190.96 811.83 3187.45C812.145 3185.42 812.145 3183.36 811.83 3181.34C811.555 3179.09 810.769 3177.25 809.864 3177.59C808.96 3177.92 806.836 3179.16 805.932 3180.92C804.754 3182.7 803.766 3184.58 802.982 3186.55C801.617 3189.92 800.757 3193.45 800.426 3197.05C799.797 3203.05 800.662 3206.95 800.19 3207.06Z" fill="#151A1D"/>
<path d="M368.839 3145.26L424.915 3306.5L214.922 3374C209.377 3354.5 304.425 3281.16 304.425 3281.16L264.078 3179.27L368.839 3145.26Z" fill="#FF9A03"/>
<path d="M366.282 3251.61C368.521 3251.55 370.703 3252.29 372.409 3253.67C374.115 3255.05 375.224 3256.99 375.524 3259.11C375.671 3261.23 374.964 3263.32 373.545 3264.96C372.127 3266.6 370.105 3267.66 367.895 3267.92C365.533 3267.98 363.232 3267.2 361.432 3265.74C359.632 3264.28 358.461 3262.24 358.142 3260.01C358.142 3255.77 362.783 3250.97 367.148 3251.68" fill="white"/>
<path d="M424.915 3306.47L418.584 3290.42L219.641 3361.18C219.641 3361.18 211.776 3368.08 214.922 3374L424.915 3306.47Z" fill="white"/>
<path d="M300.689 3281.23C301.043 3282.17 306.352 3280.97 312.486 3282.51C318.621 3284.04 322.789 3287.27 323.615 3286.56C324.441 3285.84 320.862 3280.74 313.391 3279.06C305.919 3277.37 300.138 3280.41 300.689 3281.23Z" fill="#151A1D"/>
<path d="M281.577 3296.98C281.577 3297.99 286.689 3298.25 291.644 3301.25C296.599 3304.25 299.155 3308.34 300.138 3307.97C301.122 3307.59 299.863 3301.85 293.61 3298.22C287.358 3294.58 281.577 3296.04 281.577 3296.98Z" fill="#151A1D"/>
<path d="M278.117 3326.15C279.1 3326.15 278.824 3320.72 274.184 3316.22C269.544 3311.72 264.078 3311.12 263.96 3312.05C263.842 3312.99 267.892 3314.94 271.431 3318.69C274.971 3322.44 277.055 3326.38 278.117 3326.15Z" fill="#151A1D"/>
<path d="M294.161 3257.01C294.908 3257.79 299.155 3254.91 305.054 3253.26C310.953 3251.61 316.144 3252.06 316.379 3251.08C316.615 3250.11 311.031 3247.97 304.071 3249.81C297.11 3251.64 293.375 3256.41 294.161 3257.01Z" fill="#151A1D"/>
<path d="M290.779 3231.66C290.779 3232.07 295.183 3231.36 301.279 3228.21C304.838 3226.36 308.141 3224.09 311.11 3221.46C312.882 3219.9 314.55 3218.23 316.104 3216.47C317.059 3215.47 317.843 3214.33 318.424 3213.1C318.859 3212.19 318.96 3211.16 318.71 3210.19C318.46 3209.22 317.875 3208.35 317.048 3207.73C316.296 3207.22 315.427 3206.88 314.512 3206.74C313.596 3206.6 312.66 3206.67 311.778 3206.95C310.381 3207.36 309.056 3207.96 307.846 3208.75C305.793 3210 303.858 3211.41 302.065 3212.98C299.057 3215.65 296.509 3218.75 294.515 3222.17C292.368 3225.15 291.217 3228.68 291.212 3232.3C291.802 3232.3 293.099 3228.55 296.796 3223.48C298.962 3220.5 301.512 3217.8 304.385 3215.42C306.086 3214.03 307.901 3212.78 309.812 3211.67C311.818 3210.4 313.745 3209.8 314.61 3210.55C315.475 3211.3 315.042 3210.96 314.61 3211.75C314.155 3212.64 313.573 3213.48 312.88 3214.22C311.498 3215.91 310 3217.52 308.397 3219.02C305.691 3221.62 302.727 3223.97 299.549 3226.03C294.436 3229.6 290.543 3231.13 290.779 3231.66Z" fill="#151A1D"/>
<path d="M292.588 3232.63C293.021 3232.63 293.807 3228.51 291.959 3222.06C290.133 3216.03 286.627 3210.59 281.813 3206.31C280.77 3205.17 279.437 3204.31 277.943 3203.8C276.448 3203.3 274.842 3203.16 273.28 3203.42C272.352 3203.74 271.539 3204.3 270.939 3205.05C270.339 3205.79 269.977 3206.69 269.898 3207.62C269.758 3208.96 269.824 3210.31 270.094 3211.63C271.31 3217.98 275.096 3223.61 280.633 3227.31C286.611 3231.06 291.29 3231.06 291.251 3230.61C288.153 3229.01 285.159 3227.23 282.285 3225.28C279.45 3223 277.168 3220.16 275.6 3216.96C274.709 3215.08 274.087 3213.1 273.752 3211.07C273.319 3208.86 273.752 3206.87 274.459 3206.8C275.379 3206.8 276.287 3206.99 277.122 3207.36C277.957 3207.73 278.698 3208.27 279.296 3208.93C280.956 3210.33 282.483 3211.86 283.858 3213.51C286.169 3216.36 288.037 3219.52 289.403 3222.88C291.802 3228.66 291.998 3232.86 292.588 3232.63Z" fill="#151A1D"/>
<path d="M318.267 2762.3C318.267 2762.3 236 2692.74 199.9 2693.34C163.8 2693.94 45.3935 2686.4 95.0605 2842.84C145.121 3000.6 234.781 3241.82 237.219 3233.16L391.686 3168.51L328.767 2944.12C328.767 2944.12 539.035 2946.37 579.658 2941.31C620.28 2936.25 696.255 2885.06 696.255 2885.06L684.143 3168.59L845.374 3160.04C845.374 3160.04 868.025 2819.44 874.553 2749.47C880.216 2688.54 808.409 2620.14 735.147 2635.55C687.329 2645.64 516.306 2760.76 516.306 2760.76L318.267 2762.3Z" fill="#151A1D"/>
<path d="M701.8 2734.47C702.046 2736.97 702.046 2739.48 701.8 2741.97C701.525 2747.22 701.131 2753.97 700.699 2762.15C699.873 2779.21 699.283 2802.76 698.851 2828.82C698.418 2854.88 697.907 2878.46 696.963 2895.53C696.531 2904.08 695.98 2910.98 695.508 2915.74C695.43 2918.26 695.088 2920.78 694.486 2923.24C694.276 2920.74 694.276 2918.23 694.486 2915.74C694.486 2910.49 694.8 2903.7 695.036 2895.56C695.351 2878.01 695.744 2854.65 696.177 2828.82C696.609 2802.98 697.474 2779.17 698.772 2762.11C699.441 2753.6 700.109 2746.7 700.738 2741.93C700.879 2739.42 701.234 2736.93 701.8 2734.47Z" fill="#455A64"/>
<path d="M695.272 2867.22C692.449 2864.88 690.045 2862.12 688.154 2859.04C678.221 2844.59 672.768 2827.76 672.425 2810.48C672.112 2806.93 672.444 2803.35 673.408 2799.91C674.312 2799.91 673.054 2816.22 679.346 2835.08C685.638 2853.94 696.019 2866.77 695.272 2867.22Z" fill="#455A64"/>
<path d="M475.88 2924.66C475.605 2924.66 475.29 2920.91 474.032 2913.86C472.283 2904.08 469.449 2894.5 465.577 2885.29C459.851 2871.66 451.988 2858.94 442.258 2847.57C430.291 2833.62 415.6 2822.02 399 2813.41C364.159 2794.13 333.368 2775.16 311.896 2760.38C301.161 2752.88 292.706 2746.66 287.122 2742.01C284.291 2739.76 282.206 2737.85 280.791 2736.57C280.03 2735.96 279.344 2735.27 278.746 2734.51C278.746 2734.51 281.97 2736.87 287.79 2741.22C293.61 2745.57 302.144 2751.72 312.998 2758.88C334.705 2773.28 365.575 2791.92 400.495 2811.38C417.331 2820.17 432.19 2832.03 444.224 2846.29C454.007 2857.92 461.81 2870.94 467.347 2884.88C471.17 2894.23 473.81 2903.99 475.212 2913.94C475.623 2916.62 475.872 2919.33 475.959 2922.04C476.028 2922.91 476.002 2923.79 475.88 2924.66Z" fill="#455A64"/>
<path d="M532.783 2758.55C532.115 2760.81 531.22 2763.01 530.109 2765.11C528.182 2769.27 525.586 2775.31 522.598 2782.88C506.947 2822.37 499.689 2864.44 501.244 2906.63C501.52 2914.69 501.952 2921.21 502.385 2925.71C502.742 2928.05 502.847 2930.41 502.7 2932.76C502.021 2930.49 501.561 2928.17 501.323 2925.83C500.576 2921.36 499.868 2914.8 499.357 2906.7C496.725 2864.26 504.06 2821.79 520.828 2782.4C524.053 2774.9 526.923 2768.9 529.165 2764.88C530.148 2762.66 531.36 2760.54 532.783 2758.55Z" fill="#455A64"/>
<path d="M223.455 2738.15C224.24 2738.55 224.989 2739.02 225.697 2739.54L231.871 2743.85C233.247 2744.78 234.702 2745.83 236.315 2747C237.927 2748.16 239.461 2749.66 241.23 2751.16C245.289 2754.48 249.112 2758.05 252.674 2761.85L258.926 2768.48C260.932 2770.92 262.859 2773.51 265.022 2775.98L268.246 2780.07C269.269 2781.5 270.212 2783 271.195 2784.5C273.162 2787.53 275.128 2790.57 277.251 2793.83C285.468 2808.08 292.389 2822.97 297.936 2838.34C304.032 2854.62 308.632 2870.52 312.762 2884.91L323.458 2923.27C326.604 2934.19 329.121 2943 331.048 2949.04C331.913 2951.96 332.581 2954.29 333.132 2956.05C333.383 2956.86 333.58 2957.69 333.722 2958.52C333.303 2957.77 332.974 2956.98 332.738 2956.16C332.149 2954.4 331.323 2952.11 330.34 2949.26C328.216 2943.26 325.463 2934.49 322.16 2923.61L311.071 2885.36C306.824 2870.97 302.183 2855.14 296.127 2838.94C290.619 2823.67 283.793 2808.86 275.718 2794.66C273.791 2791.39 271.785 2788.36 269.78 2785.36C268.797 2783.86 267.892 2782.36 266.87 2780.93L263.763 2776.88C261.679 2774.22 259.831 2771.6 257.786 2769.2L251.69 2762.52C248.207 2758.7 244.477 2755.1 240.522 2751.72C238.792 2750.18 237.298 2748.68 235.725 2747.45L231.438 2744.22L225.461 2739.65C224.742 2739.21 224.07 2738.71 223.455 2738.15Z" fill="#455A64"/>
<path d="M316.576 2760.91C345.912 2779.36 378.237 2783.71 412.803 2790.01C432.741 2793.76 453.583 2796.94 473.049 2791.47C514.772 2779.73 555.08 2734.44 581.86 2718.31L469.981 2745.39L316.576 2760.91Z" fill="#4673C9"/>
</svg>
