<svg width="1230" height="1143" viewBox="0 0 1230 1143" fill="none" xmlns="http://www.w3.org/2000/svg">
<path d="M256.417 780.726L332.886 663.699L396.024 788.419L256.417 780.726Z" fill="#FF9A03"/>
<path d="M973.77 780.726L897.303 663.699L834.162 788.419L973.77 780.726Z" fill="#FF9A03"/>
<path d="M1208.22 532.861H986.644L1208.22 92.6281V532.861ZM1169.21 715.666C1144.07 772.178 1107.71 824.015 1061.15 869.745C967.49 961.728 839.248 1021.6 699.584 1038.8L755.836 554.551H1207.78C1205.11 609.977 1192.17 664.078 1169.21 715.666ZM614.982 1039.33L546.448 805.462H683.515L614.982 1039.33ZM168.857 869.745C122.293 824.015 85.9342 772.173 60.7875 715.662C37.834 664.078 24.8929 609.977 22.2177 554.551H474.128L530.416 1038.8C390.749 1021.6 262.509 961.724 168.857 869.745ZM21.6915 92.6281L243.265 532.861H21.6915V92.6281ZM758.498 532.861H471.502L0 2.12092V532.861C0 803.043 232.09 1026.25 532.949 1061.01C532.965 1061.01 532.981 1061.01 532.998 1061.01C532.998 1061.04 533.002 1061.08 533.002 1061.11C533.03 1088.01 546.021 1111.88 566.066 1126.81C579.727 1136.98 596.659 1143 615.002 1143C633.345 1143 650.281 1136.98 663.938 1126.8C683.979 1111.87 696.966 1088.02 696.999 1061.12C696.999 1061.09 696.999 1061.06 696.999 1061.02C697.015 1061.02 697.035 1061.01 697.055 1061.01C997.913 1026.25 1230 803.043 1230 532.861V0L758.498 532.861Z" fill="#FF9A03"/>
</svg>
